<?xml version="1.0" standalone="no"?>
<!DOCTYPE svg PUBLIC "-//W3C//DTD SVG 1.1//EN" "http://www.w3.org/Graphics/SVG/1.1/DTD/svg11.dtd" >
<svg xmlns="http://www.w3.org/2000/svg" xmlns:xlink="http://www.w3.org/1999/xlink" version="1.1">
<metadata>
Created by FontForge 20190413 at Thu Feb 11 20:33:45 2010
 By Mark Brand
Copyright 2010 URW++ Design &#38; Development Hamburg
</metadata>
<defs>
<font id="Life-RegIta" horiz-adv-x="500" >
  <font-face 
    font-family="Life-RegIta"
    font-weight="400"
    font-style="italic"
    font-stretch="normal"
    units-per-em="1000"
    panose-1="0 0 5 0 0 0 0 0 0 0"
    ascent="707"
    descent="-293"
    x-height="440"
    cap-height="667"
    bbox="-140 -263 1019 895"
    underline-thickness="42"
    underline-position="-109"
    slope="-12"
    unicode-range="U+0020-FB04"
  />
<missing-glyph horiz-adv-x="250" 
 />
    <glyph glyph-name="ff" unicode="ff" horiz-adv-x="552" 
d="M221 387l-54 -253q-36 -169 -78.5 -248t-97.5 -79q-22 0 -36.5 13t-14.5 33t13 34t32 14q13 0 19.5 -5.5t14.5 -25.5q2 -8 8 -8q11 0 20 28t25 119l70 378h-88v33h95l16 69q32 138 96 185q41 30 93 30q34 0 54 -17.5t20 -47.5q0 -50 -41 -50q-17 0 -27.5 9.5t-10.5 25.5
q0 6 3 27q1 2 1 7q0 15 -17 15q-20 0 -41 -23q-17 -20 -24 -39.5t-21 -88.5l-22 -102h185l16 69q32 137 97 185q39 30 92 30q34 0 54 -17.5t20 -47.5q0 -23 -10.5 -36.5t-29.5 -13.5q-17 0 -27.5 9.5t-10.5 25.5q0 6 3 27v7q0 15 -17 15q-20 0 -40 -23q-18 -21 -25 -40.5
t-21 -87.5l-22 -102h86v-33h-93l-54 -253q-36 -169 -78.5 -248t-97.5 -79q-22 0 -36.5 13t-14.5 33t13 34t32 14q13 0 19.5 -5.5t14.5 -25.5q2 -8 8 -8q11 0 20 28t26 119l69 378h-185z" />
    <glyph glyph-name="fi" unicode="fi" horiz-adv-x="541" 
d="M228 420h119q57 0 155 43q-17 -50 -35 -135l-29 -139q-22 -98 -22 -111q0 -20 13 -20q25 0 68 61l16 -11q-77 -121 -134 -121q-20 0 -32.5 12.5t-12.5 34.5q0 11 14 74l42 195q1 7 3.5 16.5t3.5 15.5t2 9q5 18 5 29q0 10 -7.5 11.5t-50.5 2.5h-124l-54 -254
q-24 -111 -40.5 -163.5t-40.5 -94.5q-41 -68 -90 -68q-22 0 -37 13.5t-15 33.5t13 33.5t32 13.5q13 0 19.5 -5.5t14.5 -25.5q3 -8 8 -8q11 0 19.5 28.5t23.5 118.5l68 378h-89v33h95l14 69q22 101 88.5 158t161.5 57q52 0 84 -20t32 -52q0 -25 -17 -41t-43 -16
q-18 0 -28.5 11t-10.5 30q0 8 3 23q2 10 2 12q0 22 -45 22q-52 0 -90 -41t-52 -110z" />
    <glyph glyph-name="fl" unicode="fl" horiz-adv-x="550" 
d="M313 420v-33h-92l-53 -254q-24 -111 -40.5 -162.5t-41.5 -94.5q-40 -69 -89 -69q-22 0 -37 13.5t-15 33.5t12.5 33.5t31.5 13.5q13 0 19.5 -5.5t14.5 -25.5q3 -8 9 -8q11 0 19.5 28.5t22.5 118.5l68 378h-89v33h95l15 69q27 132 130 187q57 32 106 32h6q6 -1 18 -1.5
t24 -0.5q7 -1 28 -1q46 0 81 2q-28 -89 -41 -150l-63 -296q-34 -163 -34 -179q0 -24 17 -24q25 0 66 58l15 -12q-69 -117 -127 -117q-22 0 -36.5 14t-14.5 36q0 25 17 106l76 357q28 144 28 152q0 13 -9.5 17t-42.5 4q-57 0 -102 -42t-58 -109l-20 -102h86z" />
    <glyph glyph-name="ffi" unicode="ffi" horiz-adv-x="805" 
d="M221 387l-54 -254q-36 -168 -78.5 -247t-97.5 -79q-22 0 -36.5 13t-14.5 33t13 34t32 14q13 0 19.5 -5.5t14.5 -25.5q2 -8 8 -8q11 0 20 28t25 119l70 378h-88v33h95l16 69q31 137 96 185q41 30 92 30q34 0 54 -17.5t20 -47.5q0 -23 -10.5 -36.5t-29.5 -13.5
q-17 0 -27.5 9.5t-10.5 25.5q0 6 3 27v7q0 15 -17 15q-20 0 -40 -23q-17 -21 -24 -40t-22 -88l-21 -102h185l14 69q20 100 87.5 157.5t162.5 57.5q52 0 84 -20t32 -52q0 -25 -17 -41t-43 -16q-18 0 -28.5 11t-10.5 30q0 8 3 23q2 10 2 12q0 22 -45 22q-52 0 -91 -41
t-52 -110l-20 -102h119q57 0 155 43q-12 -41 -35 -135l-29 -139q-21 -97 -21 -111q0 -20 13 -20q26 0 67 61l17 -11q-42 -65 -73 -93t-61 -28q-20 0 -32.5 12.5t-12.5 34.5q0 10 14 74l41 195q2 6 5 20.5t5 20.5q5 18 5 29q0 10 -7.5 11.5t-51.5 2.5h-123l-54 -254
q-24 -111 -40.5 -163.5t-41.5 -94.5q-40 -68 -89 -68q-22 0 -37 13.5t-15 33.5t12.5 33.5t31.5 13.5q14 0 20.5 -6t14.5 -25q2 -8 8 -8q11 0 19 27.5t24 119.5l67 378h-185z" />
    <glyph glyph-name="ffl" unicode="ffl" horiz-adv-x="814" 
d="M221 387l-54 -254q-36 -168 -78.5 -247t-97.5 -79q-22 0 -36.5 13t-14.5 33t13 34t32 14q13 0 19.5 -5.5t14.5 -25.5q2 -8 8 -8q11 0 20 28t25 119l70 378h-88v33h95l16 69q31 137 96 185q41 30 92 30q34 0 54 -17.5t20 -47.5q0 -23 -10.5 -36.5t-29.5 -13.5
q-17 0 -27.5 9.5t-10.5 25.5q0 6 3 27v7q0 15 -17 15q-20 0 -40 -23q-17 -21 -24 -40t-22 -88l-21 -102h185l14 69q26 130 130 187q23 13 54.5 22.5t51.5 9.5h6q6 -1 17.5 -1.5t24.5 -0.5q7 -1 28 -1q46 0 81 2q-28 -89 -41 -150l-63 -296q-34 -163 -34 -179q0 -24 17 -24
q25 0 66 58l15 -12q-69 -117 -127 -117q-22 0 -36.5 14t-14.5 36q0 25 17 106l76 357q28 144 28 152q0 13 -9.5 17t-42.5 4q-57 0 -101.5 -42t-57.5 -109l-21 -102h86v-33h-91l-54 -254q-24 -113 -40.5 -164t-41.5 -94q-40 -68 -89 -68q-22 0 -37 13.5t-15 33.5t12.5 33.5
t31.5 13.5q14 0 20.5 -6t14.5 -25q2 -8 8 -8q11 0 19.5 28.5t23.5 118.5l67 378h-185z" />
    <glyph glyph-name=".notdef" horiz-adv-x="250" 
 />
    <glyph glyph-name=".null" horiz-adv-x="0" 
 />
    <glyph glyph-name="nonmarkingreturn" horiz-adv-x="333" 
 />
    <glyph glyph-name="space" unicode=" " horiz-adv-x="250" 
 />
    <glyph glyph-name="exclam" unicode="!" horiz-adv-x="305" 
d="M153 182h-22l60 406q10 62 22.5 83.5t40.5 21.5q20 0 33.5 -13.5t13.5 -35.5q0 -17 -22 -81zM117 100q20 0 33.5 -13.5t13.5 -33.5q0 -24 -18 -42t-42 -18q-20 0 -33.5 13.5t-13.5 33.5q0 24 18 42t42 18z" />
    <glyph glyph-name="quotedbl" unicode="&#x22;" horiz-adv-x="329" 
d="M154 450h-21l5 135q1 53 10 72q12 23 40 23q32 0 32 -37q0 -25 -13 -58zM298 450h-21l4 135q1 51 11 72q12 23 40 23q32 0 32 -37q0 -25 -14 -58z" />
    <glyph glyph-name="numbersign" unicode="#" horiz-adv-x="603" 
d="M556 281l-17 -47h-132l-85 -234h-57l85 234h-113l-85 -234h-57l85 234h-134l17 47h135l43 118h-134l17 47h134l80 221h57l-80 -221h113l80 221h57l-80 -221h131l-17 -47h-131l-44 -118h132zM411 399h-113l-44 -118h113z" />
    <glyph glyph-name="dollar" unicode="$" horiz-adv-x="540" 
d="M403 742l-16 -78q55 -15 86.5 -48t31.5 -74q0 -29 -15 -48.5t-38 -19.5q-21 0 -36.5 14t-15.5 33q0 18 17 42q5 6 5 15q0 22 -26 37t-64 15q-50 0 -83.5 -29t-33.5 -72q0 -29 18 -56.5t61 -61.5l85 -69q84 -68 84 -153q0 -46 -23.5 -89t-64.5 -70q-47 -31 -130 -34
l-17 -80h-40l17 80q-55 11 -90 40q-50 42 -50 95q0 32 17.5 53.5t43.5 21.5q22 0 37 -15t15 -37q0 -16 -17 -33q-13 -14 -13 -26q0 -24 32 -41.5t76 -17.5q57 0 95.5 33.5t38.5 83.5q0 55 -73 114l-80 65q-56 46 -79.5 84.5t-23.5 83.5q0 46 25 84.5t68 60.5q49 24 121 25
l16 72h39z" />
    <glyph glyph-name="percent" unicode="%" horiz-adv-x="746" 
d="M261 657q49 0 75.5 -31t26.5 -87q0 -94 -52.5 -168t-118.5 -74q-46 0 -73 32.5t-27 88.5q0 98 50 168.5t119 70.5zM254 625q-40 0 -70.5 -61t-30.5 -142q0 -40 13.5 -63.5t36.5 -23.5q29 0 52 36q20 30 33.5 79t13.5 89q0 86 -48 86zM600 680l27 -18l-433 -677l-27 17z
M598 350q48 0 74.5 -31t26.5 -87q0 -94 -52 -168t-118 -74q-46 0 -73 32.5t-27 88.5q0 98 50 168.5t119 70.5zM590 318q-40 0 -70 -61t-30 -142q0 -40 13.5 -63.5t36.5 -23.5q35 0 66.5 65t31.5 139q0 86 -48 86z" />
    <glyph glyph-name="ampersand" unicode="&#x26;" horiz-adv-x="781" 
d="M530 385h177v-22q-33 -1 -53.5 -21t-108.5 -135l-44 -57q31 -45 55 -68q46 -46 104 -46q39 0 85 30l10 -17q-47 -33 -79.5 -46t-68.5 -13q-47 0 -84 22.5t-77 76.5q-60 -55 -110 -77t-114 -22q-76 0 -120.5 39.5t-44.5 106.5q0 94 96 170q47 38 141 80q-13 53 -13 88
q0 87 54 143.5t137 56.5q99 0 99 -78q0 -73 -80 -134q-35 -27 -115 -62q50 -142 110 -226q90 130 90 165q0 23 -46 24v22zM369 422q139 78 139 171q0 56 -47 56q-41 0 -72 -40t-31 -93q0 -56 11 -94zM301 363q-80 -47 -115 -91t-35 -96q0 -56 36 -92.5t92 -36.5q75 0 150 64
q-37 50 -73 121t-55 131z" />
    <glyph glyph-name="quotesingle" unicode="'" horiz-adv-x="185" 
d="M154 450h-21l5 135q1 53 10 72q12 23 40 23q32 0 32 -37q0 -25 -13 -58z" />
    <glyph glyph-name="parenleft" unicode="(" horiz-adv-x="301" 
d="M354 695l12 -13q-110 -93 -169 -252q-29 -81 -48.5 -192.5t-19.5 -199.5q0 -112 37 -178l-15 -8q-90 138 -90 283q0 158 80 310.5t213 249.5z" />
    <glyph glyph-name="parenright" unicode=")" horiz-adv-x="301" 
d="M-30 -148l-12 12q58 50 97.5 109.5t70.5 143.5q29 81 48.5 192.5t19.5 199.5q0 110 -36 178l15 8q89 -139 89 -283q0 -158 -80 -311.5t-212 -248.5z" />
    <glyph glyph-name="asterisk" unicode="*" horiz-adv-x="422" 
d="M288 678q16 0 27 -10.5t11 -25.5q0 -26 -37 -90q-8 -12 -8 -19q0 -9 9 -9q10 0 35 21q55 47 79 47q16 0 26.5 -11t10.5 -27q0 -44 -68 -44q-22 0 -54 4q-5 1 -12 1q-15 0 -15 -11q0 -7 5.5 -12t22.5 -15q64 -38 64 -66q0 -18 -14 -32t-31 -14q-20 0 -31 18q-13 26 -20 88
q-2 22 -11 22q-14 0 -24 -36q-12 -49 -26.5 -70t-36.5 -21q-16 0 -26.5 10.5t-10.5 26.5q0 34 69 68q37 18 37 28q0 11 -17 11q-5 0 -25 -2q-25 -4 -50 -4q-51 0 -51 39q0 19 12 32t29 13q30 0 83 -56q11 -12 18 -12q11 0 11 15q0 9 -8 29q-16 47 -16 70q0 19 12 31.5
t31 12.5z" />
    <glyph glyph-name="plus" unicode="+" horiz-adv-x="540" 
d="M77 359h188v175h58v-175h187v-54h-187v-176h-58v176h-188v54z" />
    <glyph glyph-name="comma" unicode="," horiz-adv-x="240" 
d="M-13 -132l-8 15q52 22 78.5 51t43.5 81q-19 -20 -35 -20t-26 12t-10 31q0 25 17 43.5t40 18.5q25 0 39 -18t14 -49q0 -53 -41.5 -98t-111.5 -67z" />
    <glyph glyph-name="hyphen" unicode="-" horiz-adv-x="222" 
d="M217 260v-67h-208v67h208z" />
    <glyph glyph-name="period" unicode="." horiz-adv-x="240" 
d="M90 100q20 0 33.5 -13.5t13.5 -33.5q0 -24 -18 -42t-42 -18q-20 0 -33.5 13.5t-13.5 33.5q0 24 18 42t42 18z" />
    <glyph glyph-name="slash" unicode="/" horiz-adv-x="396" 
d="M452 673l-473 -830h-49l473 830h49z" />
    <glyph glyph-name="zero" unicode="0" horiz-adv-x="540" 
d="M353 657q82 0 131 -57q47 -54 47 -160q0 -85 -30 -178t-79 -158q-85 -114 -192 -114q-81 0 -127.5 59.5t-46.5 163.5q0 92 28.5 184t77.5 154q83 106 191 106zM343 620q-52 0 -98.5 -55.5t-74 -149t-27.5 -198.5q0 -76 23 -122q13 -26 35 -41.5t46 -15.5q80 0 142 143
q23 54 39 130t16 133q0 84 -26 130t-75 46z" />
    <glyph glyph-name="one" unicode="1" horiz-adv-x="540" 
d="M192 532l234 135q-4 -19 -9.5 -43t-11.5 -50q-11 -48 -14 -65l-75 -352q-19 -96 -19 -106q0 -16 10.5 -23t34.5 -7h19v-21h-236v21h15q30 1 44 10.5t24 37t24 95.5l65 303q13 61 13 72q0 12 -11 12q-14 0 -95 -42z" />
    <glyph glyph-name="two" unicode="2" horiz-adv-x="540" 
d="M141 478h-27q11 84 65 131.5t138 47.5q79 0 130 -46.5t51 -119.5q0 -69 -44 -121q-53 -62 -148 -140l-179 -146q55 6 112 6h130q29 0 37 2.5t20 15.5h25l-47 -108h-378v42l113 101q139 124 207 202q58 64 58 131q0 53 -34.5 86t-89.5 33q-116 0 -139 -117z" />
    <glyph glyph-name="three" unicode="3" horiz-adv-x="540" 
d="M124 550l60 97h329l-239 -259q27 5 46 5q58 0 96 -45.5t38 -115.5q0 -97 -69.5 -169.5t-163.5 -72.5q-49 0 -89.5 20t-84.5 67l19 19q64 -63 129 -63q67 0 115.5 55.5t48.5 131.5q0 81 -59 117q-29 19 -87 24l190 208h-195q-27 0 -37.5 -4t-15.5 -15h-31z" />
    <glyph glyph-name="four" unicode="4" horiz-adv-x="540" 
d="M513 257l-13 -62h-112l-42 -195h-83l42 195h-250v68l374 399h56l-86 -405h114zM318 257l65 306l-285 -306h220z" />
    <glyph glyph-name="five" unicode="5" horiz-adv-x="540" 
d="M503 653l-31 -86h-256l-53 -151q50 36 109 36q87 0 141.5 -54t54.5 -141q0 -110 -74.5 -188.5t-178.5 -78.5q-97 0 -169 82l21 19q63 -63 131 -63q74 0 127 60t53 144q0 70 -41.5 112.5t-109.5 42.5q-48 0 -112 -27l95 287h224h23q14 0 25 6h21z" />
    <glyph glyph-name="six" unicode="6" horiz-adv-x="540" 
d="M513 638l-6 -25q-50 11 -76 11q-89 0 -156 -71.5t-101 -203.5q76 92 168 92q71 0 116 -50t45 -130q0 -108 -72.5 -189.5t-169.5 -81.5q-88 0 -138.5 59.5t-50.5 162.5q0 95 35 188t95 158q90 99 209 99q46 0 102 -19zM170 321q-9 -62 -9 -114q0 -65 19 -102
q32 -65 102 -65q62 0 105 52t43 127q0 68 -39.5 114t-98.5 46q-58 0 -122 -58z" />
    <glyph glyph-name="seven" unicode="7" horiz-adv-x="540" 
d="M126 537l36 110h392q-255 -458 -332 -647h-90l188 341q2 3 55 97q48 82 72 126h-225q-39 0 -49.5 -4t-20.5 -23h-26z" />
    <glyph glyph-name="eight" unicode="8" horiz-adv-x="540" 
d="M350 353q68 -59 94.5 -100.5t26.5 -87.5q0 -76 -62 -128q-57 -47 -157 -47q-98 0 -152.5 39.5t-54.5 112.5q0 147 207 201q-51 48 -72 85t-21 78q0 68 54.5 109.5t143.5 41.5q81 0 126 -34t45 -96q0 -80 -73 -131q-39 -26 -105 -43zM333 369q55 23 83 55q36 42 36 92
q0 48 -30.5 78.5t-78.5 30.5q-46 0 -73.5 -26.5t-27.5 -70.5q0 -37 18.5 -69.5t72.5 -89.5zM268 325q-64 -24 -92 -56q-43 -46 -43 -113q0 -55 40 -91.5t102 -36.5q51 0 85.5 30.5t34.5 75.5q0 40 -27.5 82t-99.5 109z" />
    <glyph glyph-name="nine" unicode="9" horiz-adv-x="540" 
d="M52 37l17 23q50 -33 98 -33q80 0 150.5 81.5t99.5 206.5q-65 -83 -153 -83q-76 0 -122 50t-46 132q0 104 65 173.5t164 69.5q89 0 141 -54q52 -52 52 -160q0 -93 -33 -185t-92 -163q-89 -105 -200 -105q-73 0 -141 47zM421 345q10 69 10 124q0 161 -110 161
q-60 0 -101 -52t-41 -128q0 -70 38.5 -115.5t96.5 -45.5q54 0 107 56z" />
    <glyph glyph-name="colon" unicode=":" horiz-adv-x="240" 
d="M162 440q20 0 33.5 -13.5t13.5 -33.5q0 -24 -18 -42t-42 -18q-20 0 -33.5 13.5t-13.5 33.5q0 24 18 42t42 18zM90 100q20 0 33.5 -13.5t13.5 -33.5q0 -24 -18 -42t-42 -18q-20 0 -33.5 13.5t-13.5 33.5q0 24 18 42t42 18z" />
    <glyph glyph-name="semicolon" unicode=";" horiz-adv-x="240" 
d="M-13 -132l-8 15q52 22 78.5 51t43.5 81q-19 -20 -35 -20t-26 12t-10 31q0 25 17 43.5t40 18.5q25 0 39 -18t14 -49q0 -53 -41.5 -98t-111.5 -67zM162 440q20 0 33.5 -13.5t13.5 -33.5q0 -24 -18 -42t-42 -18q-20 0 -33.5 13.5t-13.5 33.5q0 24 18 42t42 18z" />
    <glyph glyph-name="less" unicode="&#x3c;" 
d="M457 612v-37l-313 -204l313 -209v-99l-414 277v6z" />
    <glyph glyph-name="equal" unicode="=" horiz-adv-x="540" 
d="M79 442h433v-52h-433v52zM79 294h433v-52h-433v52z" />
    <glyph glyph-name="greater" unicode="&#x3e;" 
d="M43 63v38l313 204l-313 209v98l414 -276v-6z" />
    <glyph glyph-name="question" unicode="?" horiz-adv-x="432" 
d="M213 185l-26 8q31 77 44 101.5t43 61.5l40 46q49 57 49 125q0 50 -31.5 86.5t-75.5 36.5q-18 0 -33 -11.5t-21 -29.5q-4 -16 -4 -49q0 -42 -8 -53q-12 -21 -41 -21q-42 0 -42 38q0 62 54.5 109t125.5 47q76 0 122.5 -40.5t46.5 -105.5q0 -84 -85 -154l-53 -44
q-69 -55 -105 -151zM163 100q20 0 33.5 -13.5t13.5 -33.5q0 -24 -18 -42t-42 -18q-20 0 -33.5 13.5t-13.5 33.5q0 24 18 42t42 18z" />
    <glyph glyph-name="at" unicode="@" horiz-adv-x="753" 
d="M656 170h53q-39 -82 -121.5 -132t-177.5 -50q-139 0 -237 99t-98 239q0 142 99 240.5t242 98.5q127 0 216 -81.5t89 -198.5t-90 -190q-65 -50 -126 -50q-56 0 -70 53q-53 -48 -105 -48q-50 0 -81.5 35.5t-31.5 91.5q0 85 59 155.5t130 70.5q64 0 94 -55l15 39h65
l-79 -236q-8 -27 -8 -38q0 -13 8 -20.5t22 -7.5q47 0 92 50q58 61 58 146q0 100 -74.5 169.5t-182.5 69.5q-122 0 -206 -85t-84 -209q0 -122 83.5 -207t204.5 -85q73 0 139 37t103 99zM444 290l22 63q12 32 12 52q0 25 -15 42.5t-37 17.5q-49 0 -93 -67.5t-44 -142.5
q0 -32 14.5 -51t38.5 -19q66 0 102 105z" />
    <glyph glyph-name="A" unicode="A" horiz-adv-x="617" 
d="M403 228h-230l-88 -143q-19 -32 -19 -44q0 -11 10 -14.5t41 -4.5v-22h-155v22q29 3 42 16q9 8 32 44l57 87l328 523h17l66 -515q12 -88 16 -109t12 -32q9 -13 52 -14v-22h-220v22h12q29 1 37.5 6.5t8.5 25.5q0 16 -3 44zM399 261l-33 281l-172 -281h205z" />
    <glyph glyph-name="B" unicode="B" horiz-adv-x="592" 
d="M30 0v22q24 2 33.5 6t14.5 16q9 19 31 124l74 350q17 75 17 100q0 14 -10 20t-37 7q-8 0 -15 1v21h231q102 0 145 -22q58 -29 58 -106q0 -40 -18.5 -76t-50.5 -57q-38 -25 -112 -41q73 -11 105 -37q46 -38 46 -110q0 -98 -76 -161q-38 -31 -87.5 -44t-128.5 -13h-220z
M252 374l29 -1q94 0 139 41q52 46 52 126q0 52 -30 76.5t-94 24.5q-10 0 -40 -2zM245 342l-49 -233q-9 -37 -9 -55q0 -15 11 -21t39 -6q92 0 142 44q59 53 59 145q0 66 -35.5 97.5t-111.5 31.5q-16 0 -46 -3z" />
    <glyph glyph-name="C" unicode="C" horiz-adv-x="621" 
d="M652 647l-44 -208h-21q1 10 1 25q0 86 -38 133t-108 47q-110 0 -196 -116t-86 -266q0 -97 52 -159.5t134 -62.5q121 0 204 124l21 -6q-51 -87 -114.5 -127.5t-149.5 -40.5q-115 0 -183 68.5t-68 184.5q0 96 41 186.5t112 152.5q109 95 229 95q44 0 117 -21q51 -16 69 -16
q10 0 28 7z" />
    <glyph glyph-name="D" unicode="D" horiz-adv-x="726" 
d="M29 0v22q24 1 33.5 5.5t14.5 15.5q8 18 32 124l74 350q17 79 17 100q0 16 -11 21t-51 7v22h279q139 0 202 -40q46 -29 71 -82.5t25 -122.5q0 -82 -31 -159.5t-87 -135.5q-120 -127 -336 -127h-232zM308 636l-97 -454q-20 -98 -20 -123q0 -18 15.5 -25t57.5 -7
q150 0 240 102q49 56 76.5 131t27.5 154q0 110 -58.5 168t-169.5 58q-28 0 -72 -4z" />
    <glyph glyph-name="E" unicode="E" horiz-adv-x="602" 
d="M598 667l-20 -153h-21q0 79 -23.5 99.5t-113.5 20.5h-113l-58 -271h91q72 0 92 11.5t33 63.5h22l-42 -195h-21q4 35 4 49q0 27 -13.5 32.5t-76.5 5.5h-96l-63 -297h108q113 0 162.5 27.5t76.5 106.5h24l-41 -167h-486v21q26 2 36 6.5t16 15.5q10 21 33 124l75 350
q18 89 18 101q0 14 -10 20t-37 7l-15 1v21h459z" />
    <glyph glyph-name="F" unicode="F" horiz-adv-x="512" 
d="M562 667l-17 -153h-23q-1 69 -16 89q-22 31 -97 31h-102l-57 -272h93q59 0 79 14t30 63h22l-42 -197h-21q2 38 2 48q0 26 -11.5 32.5t-59.5 6.5h-99l-39 -180q-17 -83 -17 -100q0 -15 11.5 -20t51.5 -7v-22h-230v22q42 1 53.5 20t35.5 125l74 350q17 74 17 101
q0 13 -10 19t-37 8l-15 1v21h424z" />
    <glyph glyph-name="G" unicode="G" horiz-adv-x="737" 
d="M709 654l-41 -192h-20q-11 183 -171 183q-81 0 -154 -53t-117 -141t-44 -187q0 -98 59 -163.5t148 -65.5q32 0 66 9.5t52 22.5q16 12 27 62l23 110q8 38 8 46q0 14 -11.5 18.5t-51.5 8.5v22h244v-22q-52 -3 -68 -10q-10 -4 -15 -16t-13 -50l-37 -173q-73 -40 -129 -56.5
t-124 -16.5q-130 0 -207 73t-77 198q0 110 57 206t154 153t207 57q54 0 147 -23q27 -6 48 -6q9 0 40 6z" />
    <glyph glyph-name="H" unicode="H" horiz-adv-x="735" 
d="M539 327h-297l-37 -177q-17 -80 -17 -100q0 -16 11 -21t51 -7v-22h-220v22q24 2 33.5 6t15.5 17q8 21 30 123l74 350q17 74 17 99q0 16 -12 21.5t-50 6.5v22h250v-22q-63 -1 -76 -16q-7 -7 -30 -117l-33 -152h297l33 158q17 75 17 99q0 16 -11 21t-51 7v22h220v-22
q-39 -1 -48 -21t-31 -124l-74 -350q-18 -83 -18 -101q0 -15 11.5 -20t51.5 -7v-22h-250v22q64 3 76 16q8 10 30 117z" />
    <glyph glyph-name="I" unicode="I" horiz-adv-x="339" 
d="M138 645v22h229v-22q-26 -2 -36.5 -6t-16.5 -15q-12 -19 -35 -124l-74 -351q-17 -76 -17 -100q0 -15 11.5 -20t50.5 -7v-22h-230v22q42 1 53.5 20t35.5 125l74 351q17 74 17 99q0 14 -10 19.5t-37 7.5z" />
    <glyph glyph-name="J" unicode="J" horiz-adv-x="323" 
d="M-18 -166v23q38 10 59 48t40 132l102 481q17 79 17 100q0 15 -11 20t-51 7v22h228v-22q-42 -2 -53.5 -20.5t-33.5 -124.5l-64 -299q-27 -138 -54 -208.5t-67 -106t-112 -52.5z" />
    <glyph glyph-name="K" unicode="K" horiz-adv-x="681" 
d="M138 667h250v-22q-63 -1 -76 -16q-5 -6 -9 -20.5t-21 -96.5l-77 -363q-17 -70 -17 -100q0 -15 11 -20t51 -7v-22h-220v22q24 2 33.5 6t15.5 17q8 18 30 122l74 351q17 74 17 99q0 14 -10 19.5t-37 7.5l-15 1v22zM335 383l181 -260q48 -69 68 -84.5t64 -16.5v-22h-259v22
q64 4 64 23q0 10 -30 57l-170 251l243 209q46 38 56 48.5t10 18.5q0 9 -10 12.5t-38 3.5v22h183v-22q-32 -5 -56.5 -19.5t-91.5 -69.5z" />
    <glyph glyph-name="L" unicode="L" horiz-adv-x="575" 
d="M528 182h26l-80 -182h-474v22q64 3 76 16q6 8 15 50q8 32 15 67l73 341q21 99 21 122q0 15 -12 20t-50 7v22h250v-22q-63 -1 -76 -16q-8 -8 -31 -117l-101 -475h89q102 0 156 30.5t103 114.5z" />
    <glyph glyph-name="M" unicode="M" horiz-adv-x="831" 
d="M344 0h-8l-100 571l-96 -444q-14 -70 -14 -80q0 -13 11.5 -18t46.5 -7v-22h-159v22q39 2 48 16q5 8 8 22q12 50 28 113l69 298q31 129 31 148q0 14 -11.5 19.5t-48.5 6.5v22h158l87 -526l322 526h128v-22q-34 -5 -41 -18q-10 -21 -32 -124l-77 -366q-16 -77 -16 -88
q0 -14 9.5 -19t39.5 -7l15 -1v-22h-248v22q48 2 65 8q12 5 17 17t16 64l102 453z" />
    <glyph glyph-name="N" unicode="N" horiz-adv-x="713" 
d="M549 -17h-23l-292 581l-88 -415q-17 -80 -17 -100q0 -15 11.5 -20t50.5 -7v-22h-161v22q23 2 33 6t15 15q10 24 31 124l94 440q-20 26 -27.5 31.5t-26.5 6.5v22h138l257 -517l78 368q17 81 17 100q0 15 -12 20.5t-50 6.5v22h164v-22q-38 -1 -49 -21q-8 -16 -33 -124z" />
    <glyph glyph-name="O" unicode="O" horiz-adv-x="737" 
d="M458 677q122 0 194.5 -74t72.5 -198q0 -89 -42 -179.5t-111 -148.5q-104 -87 -238 -87q-124 0 -200 70.5t-76 186.5q0 112 55 211.5t147.5 159t197.5 59.5zM456 644q-114 0 -204 -122t-90 -276q0 -96 51.5 -154.5t135.5 -58.5q109 0 189 115q38 56 61 133.5t23 147.5
q0 100 -44.5 157.5t-121.5 57.5z" />
    <glyph glyph-name="P" unicode="P" horiz-adv-x="551" 
d="M235 290l-30 -141q-17 -76 -17 -100q0 -15 11.5 -20t50.5 -7v-22h-230v22q42 1 54 20.5t35 124.5l74 350q17 78 17 100q0 14 -10 19.5t-37 7.5l-15 1v22h238q112 0 154 -35q46 -38 46 -111q0 -61 -36 -116.5t-93 -82.5q-37 -18 -81 -24.5t-131 -7.5zM309 638l-69 -323
q113 3 159 36q32 24 53 76.5t21 108.5q0 104 -124 104q-22 0 -40 -2z" />
    <glyph glyph-name="Q" unicode="Q" horiz-adv-x="737" 
d="M680 -32l2 -24q-82 2 -154.5 18t-101.5 39q-47 -11 -91 -11q-125 0 -201 70.5t-76 186.5q0 113 55 212.5t148 158.5t198 59q119 0 192.5 -73.5t73.5 -192.5q0 -154 -97 -276q-48 -62 -122 -103q103 -59 174 -64zM456 644q-114 0 -204 -122t-90 -276q0 -96 51.5 -154.5
t135.5 -58.5q109 0 189 115q38 56 61 133.5t23 147.5q0 100 -44.5 157.5t-121.5 57.5z" />
    <glyph glyph-name="R" unicode="R" horiz-adv-x="643" 
d="M241 323l-37 -174q-17 -85 -17 -100t11.5 -20t51.5 -7v-22h-229v22q43 2 53 21q12 22 35 124l74 350q19 87 19 101q0 13 -10 18.5t-37 7.5l-15 1v22h279q94 0 137.5 -33.5t43.5 -106.5q0 -56 -29.5 -100.5t-81.5 -68.5q-44 -21 -116 -21q21 -12 31 -24t25 -44l70 -147
q35 -69 51.5 -84t64.5 -16v-22h-157l-116 242q-28 59 -36.5 70t-28.5 11h-36zM309 638l-61 -287q16 -1 40 -1q103 0 156.5 44.5t53.5 129.5q0 60 -35 88t-110 28q-26 0 -44 -2z" />
    <glyph glyph-name="S" unicode="S" horiz-adv-x="502" 
d="M501 658l-35 -165h-22q-19 150 -139 150q-49 0 -81.5 -29.5t-32.5 -73.5q0 -29 20.5 -58t70.5 -70l77 -61q50 -40 71 -77.5t21 -84.5q0 -85 -60.5 -142t-150.5 -57q-41 0 -94 15q-48 15 -69 15q-27 0 -58 -20l44 236h23q0 -85 36 -136q45 -67 122 -67q56 0 94 35.5
t38 87.5q0 29 -17 54.5t-58 60.5l-81 68q-66 55 -87 87.5t-21 81.5q0 73 54 121t136 48q44 0 92 -16q44 -13 58 -13q20 0 49 10z" />
    <glyph glyph-name="T" unicode="T" horiz-adv-x="569" 
d="M423 634l-103 -485q-17 -79 -17 -100q0 -13 10.5 -18.5t37.5 -7.5l15 -1v-22h-250v22q63 1 76 16q6 6 9.5 21.5t20.5 95.5l102 479q-115 0 -154.5 -23t-76.5 -113h-21l37 174q90 -5 167 -5h204q68 0 168 5l-33 -174h-22l1 24q0 74 -30 95q-15 10 -39.5 13t-101.5 4z" />
    <glyph glyph-name="U" unicode="U" horiz-adv-x="698" 
d="M130 667h252v-22q-63 -1 -76 -16q-7 -3 -32 -117l-49 -231q-16 -74 -16 -113q0 -58 41.5 -92t112.5 -34q83 0 131 53q21 23 35 60t32 121l51 242q15 69 15 100q0 13 -10 18.5t-37 7.5q-2 1 -15 1v22h162v-22q-23 -2 -33 -6t-15 -15q-7 -18 -31 -124l-51 -239
q-20 -95 -38.5 -138.5t-51.5 -73.5q-67 -59 -175 -59q-103 0 -162.5 48t-59.5 130q0 38 13 102l53 248q16 77 16 99q0 16 -11 21t-51 7v22z" />
    <glyph glyph-name="V" unicode="V" horiz-adv-x="593" 
d="M252 -20h-14l-82 500q-3 15 -8.5 49t-8.5 52q-10 43 -20.5 51.5t-56.5 12.5v22h245v-22q-46 -2 -59 -7t-13 -21q0 -18 11 -86l60 -390l223 375q58 98 58 109q0 19 -43 20h-13v22h164v-22q-21 -2 -31.5 -7t-21.5 -19q-8 -9 -70 -110z" />
    <glyph glyph-name="W" unicode="W" horiz-adv-x="860" 
d="M569 -20h-12l-64 491l-266 -491h-10l-70 520q-9 60 -13 85q-4 37 -12 45.5t-41 13.5l-19 1v22h237v-22q-47 -2 -58.5 -7t-11.5 -24q0 -8 7 -67l50 -389l200 374l-9 63q-4 31 -13.5 39t-38.5 10l-17 1v22h233v-22q-47 -3 -58 -8t-11 -24q0 -9 6 -66l48 -389l214 395
q28 56 28 73q0 10 -11.5 14t-45.5 5v22h149v-22q-20 -5 -35 -26.5t-83 -143.5z" />
    <glyph glyph-name="X" unicode="X" horiz-adv-x="648" 
d="M387 367l114 -258q27 -62 40.5 -73.5t64.5 -13.5v-22h-254v22q41 2 54.5 7t13.5 17q0 10 -23 63l-79 188l-162 -182q-59 -69 -59 -75q0 -8 11.5 -12t43.5 -6v-22h-165v22q28 4 44.5 17t83.5 86l189 205l-92 215q-30 71 -43.5 83.5t-64.5 17.5v21h246v-21q-40 -2 -54 -6.5
t-14 -14.5t26 -71l66 -156l127 142q56 61 65 72.5t9 17.5q0 14 -35 15q-9 0 -17 1v21h163v-21q-20 -2 -30 -7t-26 -21q-16 -14 -95 -97z" />
    <glyph glyph-name="Y" unicode="Y" horiz-adv-x="578" 
d="M356 299l-31 -150q-17 -90 -17 -100q0 -13 10 -18.5t37 -7.5l15 -1v-22h-246v22q63 1 76 16q8 10 31 117l30 144l-85 222q-2 6 -13.5 34t-17.5 43q-11 28 -21 35t-41 10q-1 0 -3.5 0.5t-7 1t-7.5 0.5v22h241v-22q-44 -4 -49 -5q-14 -5 -14 -18q0 -9 17 -56l84 -227
l150 191q54 68 63 80.5t9 19.5q0 13 -29 14q-7 0 -23 1v22h173v-22q-38 -3 -58 -18.5t-78 -87.5z" />
    <glyph glyph-name="Z" unicode="Z" horiz-adv-x="620" 
d="M636 667l-484 -625h165q112 0 154 23.5t79 106.5h23l-43 -172h-528l486 625h-141q-92 0 -133 -21.5t-75 -88.5h-22l49 152h470z" />
    <glyph glyph-name="bracketleft" unicode="[" horiz-adv-x="286" 
d="M349 677l-7 -32h-102l-159 -750h102l-7 -32h-172l173 814h172z" />
    <glyph glyph-name="backslash" unicode="\" horiz-adv-x="396" 
d="M136 673h49l121 -830h-50z" />
    <glyph glyph-name="bracketright" unicode="]" horiz-adv-x="286" 
d="M-42 -137l7 32h102l159 750h-102l7 32h172l-173 -814h-172z" />
    <glyph glyph-name="asciicircum" unicode="^" 
d="M525 286h-37l-204 313l-209 -313h-99l276 414h7z" />
    <glyph glyph-name="underscore" unicode="_" 
d="M23 -88h454v-42h-454v42z" />
    <glyph glyph-name="grave" unicode="`" 
d="M352 533h-33l-88 93q-25 25 -25 41q0 11 8.5 18.5t20.5 7.5q21 0 42 -35z" />
    <glyph glyph-name="a" unicode="a" horiz-adv-x="479" 
d="M384 453h68q-24 -73 -50 -167l-43 -147q-21 -78 -21 -85q0 -15 14 -15q22 0 69 62l15 -11q-43 -60 -71.5 -84t-57.5 -24q-39 0 -39 38q0 17 16 81l13 50q-58 -92 -100.5 -131.5t-84.5 -39.5q-41 0 -65.5 31t-24.5 83q0 79 40 164t101.5 140t118.5 55q70 0 79 -79z
M285 428q-76 0 -143 -142q-43 -93 -43 -166q0 -32 15.5 -52t40.5 -20q46 0 108 87q38 53 61 111t23 98t-16.5 62t-45.5 22z" />
    <glyph glyph-name="b" unicode="b" horiz-adv-x="481" 
d="M209 556l-49 -231q52 71 91 99.5t84 28.5q53 0 85.5 -38t32.5 -101q0 -62 -28 -130t-77 -122q-73 -82 -171 -82q-64 0 -100 23.5t-36 65.5q0 25 17 110l61 284q30 143 30 156q0 9 -5.5 12t-19.5 3l-34 -2v21l156 54q-19 -74 -37 -151zM150 279q-1 -6 -3 -15.5t-3 -12.5
q-22 -111 -22 -149q0 -85 73 -85q68 0 122 91q52 91 52 185q0 47 -19.5 72.5t-54.5 25.5q-38 0 -70 -25t-75 -87z" />
    <glyph glyph-name="c" unicode="c" horiz-adv-x="407" 
d="M347 124l16 -10q-85 -134 -189 -134q-65 0 -105.5 45t-40.5 118q0 66 35.5 133.5t95.5 116.5q75 60 155 60q50 0 78 -22t28 -61q0 -61 -44 -61q-51 0 -51 26q0 8 10 38q6 16 6 29q0 28 -35 28q-69 0 -131.5 -87t-62.5 -183q0 -55 27.5 -88.5t72.5 -33.5q72 0 135 86z" />
    <glyph glyph-name="d" unicode="d" horiz-adv-x="497" 
d="M450 117l17 -12q-77 -123 -134 -123q-20 0 -32 13t-12 34q0 23 20 111q-41 -75 -74 -109q-51 -51 -104 -51q-48 0 -76.5 36.5t-28.5 97.5q0 79 37 158.5t95.5 130t116.5 50.5q35 0 54 -19t29 -63l19 92q31 137 31 156q0 9 -5.5 12t-22.5 3q-1 0 -35 -2v21l164 54
q-22 -75 -39 -151l-76 -359q-22 -102 -22 -121q0 -17 11 -17q29 0 67 58zM323 209l25 115q-6 99 -68 99q-60 0 -115 -90t-55 -190q0 -45 17.5 -70.5t47.5 -25.5q71 0 148 162z" />
    <glyph glyph-name="e" unicode="e" horiz-adv-x="420" 
d="M353 135l20 -10q-88 -145 -207 -145q-64 0 -102.5 41.5t-38.5 110.5t35.5 136t100.5 120q80 65 160 65q45 0 71.5 -23t26.5 -63q0 -43 -35 -82.5t-94 -62.5q-75 -30 -181 -34q-3 -21 -3 -33q0 -51 28 -82t74 -31q73 0 145 93zM112 206q118 21 170 63q60 51 60 109
q0 22 -10.5 35t-27.5 13q-51 0 -115 -77q-49 -57 -77 -143z" />
    <glyph glyph-name="f" unicode="f" horiz-adv-x="288" 
d="M314 420v-33h-93l-54 -253q-36 -169 -78.5 -248t-97.5 -79q-22 0 -36.5 13t-14.5 33t13 34t32 14q13 0 19.5 -5.5t14.5 -25.5q2 -8 8 -8q11 0 20 28t25 119l70 378h-88v33h95l16 69q31 136 97 185q39 30 92 30q34 0 54 -17.5t20 -47.5q0 -23 -10.5 -36.5t-29.5 -13.5
q-17 0 -27.5 9.5t-10.5 25.5q0 6 3 27v7q0 15 -17 15q-20 0 -40 -23q-18 -20 -24.5 -38.5t-21.5 -89.5l-22 -102h86z" />
    <glyph glyph-name="g" unicode="g" horiz-adv-x="423" 
d="M170 72l90 -25q64 -18 87 -36q30 -25 30 -72q0 -65 -62 -108.5t-156 -43.5q-81 0 -130 32.5t-49 85.5q0 83 113 120q-32 10 -44.5 20.5t-12.5 25.5q0 18 17 34.5t67 45.5q-64 40 -64 110q0 76 56.5 134t129.5 58q47 0 84 -33q39 42 73 42q19 0 31 -12t12 -30
q0 -17 -11 -28.5t-27 -11.5q-23 0 -32 27q-4 11 -12 11q-6 0 -23 -11q35 -36 35 -90q0 -71 -55 -130t-122 -59q-21 0 -54 11q-33 -27 -33 -40q0 -7 9.5 -11t52.5 -16zM247 422q-38 0 -66 -39q-48 -65 -48 -135q0 -31 17.5 -53t43.5 -22q40 0 68 50q40 70 40 130
q0 32 -14.5 50.5t-40.5 18.5zM124 14l-13 4q-28 -36 -37 -55t-9 -43q0 -44 36 -71.5t95 -27.5q55 0 93.5 27.5t38.5 66.5q0 24 -21.5 39.5t-74.5 29.5l-81 22q-15 4 -27 8z" />
    <glyph glyph-name="h" unicode="h" horiz-adv-x="522" 
d="M220 556l-66 -310q75 88 110 121q84 80 140 80q25 0 41.5 -17t16.5 -43q0 -25 -17 -86l-50 -168q-14 -50 -14 -62q0 -18 15 -18q27 0 74 63l17 -12q-44 -63 -76.5 -90t-63.5 -27q-22 0 -36 12.5t-14 31.5q0 21 13 63l57 194q12 41 12 65q0 25 -21 25q-64 0 -212 -173
l-44 -205h-72l98 463q32 134 32 156q0 9 -5.5 12t-20.5 3q-1 0 -29 -2v21l155 54q-23 -76 -40 -151z" />
    <glyph glyph-name="i" unicode="i" horiz-adv-x="261" 
d="M216 119l17 -11q-74 -121 -132 -121q-22 0 -34.5 13t-12.5 35q0 13 12 73l44 203q6 34 9 41q4 22 4 28q0 9 -6 12t-23 3h-30v18l153 50q-13 -50 -32 -135l-29 -139q-20 -92 -20 -111q0 -20 13 -20q25 0 67 61zM202 685q22 0 35 -14t13 -38q0 -27 -14 -44t-37 -17t-37 15
t-14 40t15.5 41.5t38.5 16.5z" />
    <glyph glyph-name="j" unicode="j" horiz-adv-x="247" 
d="M63 395v19l157 50l-14 -55q-2 -9 -4.5 -20t-5.5 -24.5t-8 -36.5l-66 -309q-46 -215 -133 -215q-22 0 -37.5 15t-15.5 37q0 19 12 32t29 13q12 0 19.5 -5.5t17.5 -21.5q4 -7 9 -7q12 0 16 51q8 96 29 200l41 194q7 26 9 41q5 18 5 28q0 9 -6 12t-23 3zM189 685
q22 0 34.5 -14t12.5 -37q0 -28 -14 -45t-37 -17t-36.5 15t-13.5 40t15.5 41.5t38.5 16.5z" />
    <glyph glyph-name="k" unicode="k" horiz-adv-x="489" 
d="M204 243l-58 -38l-44 -205h-72l98 462q28 129 28 154q0 11 -6 14.5t-22 3.5q-1 0 -29 -2v21l156 53q-10 -40 -35 -150l-66 -313l96 70q66 48 80 60t14 24q0 13 -22 14h-10v22h175v-22q-26 -2 -43 -9.5t-71 -44.5l-109 -73l24 -79q28 -89 46 -122t40 -33q15 0 30 15t40 54
l21 -15q-36 -66 -61.5 -91.5t-56.5 -25.5q-37 0 -63 36t-52 125z" />
    <glyph glyph-name="l" unicode="l" horiz-adv-x="252" 
d="M203 116l15 -12q-68 -117 -127 -117q-23 0 -37 14.5t-14 36.5q0 26 17 105l68 320q28 129 28 155q0 10 -5.5 13t-20.5 3q-1 0 -37 -2v21l162 54q-11 -39 -16 -63q-1 -4 -3.5 -15.5t-7 -32t-8.5 -40.5l-63 -295q-34 -161 -34 -179q0 -24 17 -24q25 0 66 58z" />
    <glyph glyph-name="m" unicode="m" horiz-adv-x="775" 
d="M119 0h-80l73 311q14 63 14 71q0 13 -29 13h-29v18l157 50q-11 -27 -37 -135l-16 -75q80 103 134.5 148.5t98.5 45.5q22 0 35.5 -14.5t13.5 -37.5q0 -21 -31 -142q86 106 141.5 150t102.5 44q22 0 36.5 -14t14.5 -35t-20 -92l-50 -174q-12 -47 -12 -57q0 -18 15 -18
q13 0 34 17.5t38 42.5l18 -11q-85 -119 -143 -119q-19 0 -31.5 13t-12.5 33q0 21 17 84l52 182q13 46 13 63q0 19 -18 19q-29 0 -84.5 -47t-120.5 -127l-44 -207h-73l59 254q19 85 19 106t-20 21q-57 0 -191 -174z" />
    <glyph glyph-name="n" unicode="n" horiz-adv-x="532" 
d="M118 0h-79l62 267q23 103 23 114q0 17 -35 17q-13 0 -21 -1v18l153 48q-23 -95 -36 -149l-14 -63q93 110 148 153t103 43q24 0 38 -13t14 -35q0 -24 -19 -85l-53 -182q-12 -43 -12 -55q0 -20 16 -20q26 0 76 63l14 -14q-83 -119 -141 -119q-19 0 -32.5 13.5t-13.5 32.5
q0 23 16 79l53 183q16 60 16 66q0 21 -21 21q-31 0 -90 -47t-120 -121z" />
    <glyph glyph-name="o" unicode="o" horiz-adv-x="490" 
d="M307 453q71 0 113.5 -45.5t42.5 -122.5q0 -60 -33 -129t-82 -113q-72 -63 -154 -63q-74 0 -119.5 48t-45.5 125q0 111 87.5 205.5t190.5 94.5zM296 423q-68 0 -125 -88t-57 -194q0 -55 27 -89.5t70 -34.5q53 0 96 56q29 39 50 104t21 119q0 60 -21.5 93.5t-60.5 33.5z
" />
    <glyph glyph-name="p" unicode="p" horiz-adv-x="487" 
d="M124 74l-40 -187q-7 -33 -7 -45q0 -13 11 -17t46 -6v-22h-168v21q17 2 23.5 6.5t10.5 16.5l5 22q10 46 27 115l70 333q10 48 10 69q0 10 -6 13t-24 3l-31 -1v18l162 50q-5 -15 -13 -47q-7 -23 -18 -67q82 98 162 98q53 0 84 -33t31 -91q0 -59 -23.5 -126t-62.5 -119
q-69 -91 -149 -91q-38 0 -62 20.5t-38 66.5zM175 312l-31 -142q-5 -28 -5 -52q0 -42 21 -65.5t59 -23.5q63 0 111 91q47 91 47 177q0 43 -20.5 68t-55.5 25q-55 0 -126 -78z" />
    <glyph glyph-name="q" unicode="q" horiz-adv-x="485" 
d="M387 392l60 48h16q-10 -35 -36 -152l-66 -313q-24 -110 -24 -132q0 -12 10.5 -16.5t47.5 -7.5v-22h-214v23q47 1 62 8q9 4 14 15.5t13 47.5l47 224q-44 -70 -81.5 -99t-83.5 -29q-57 0 -91.5 39t-34.5 103q0 113 85.5 215.5t179.5 102.5q33 0 54 -12t42 -43zM336 202
l26 124q2 12 2 18q0 36 -18 57t-48 21q-65 0 -125.5 -87t-60.5 -181q0 -46 22.5 -74t59.5 -28q50 0 95 59q13 18 28.5 47.5t18.5 43.5z" />
    <glyph glyph-name="r" unicode="r" horiz-adv-x="342" 
d="M115 0h-80l77 311q15 63 15 69q0 10 -7 13t-27 3q-12 0 -24 -1v18l160 50l-55 -186q10 16 49 77q47 72 62.5 89t35.5 17q36 0 36 -50q0 -74 -44 -74q-23 0 -26 17q-3 10 -9 10q-8 0 -16 -7t-29 -34q-41 -50 -70 -96z" />
    <glyph glyph-name="s" unicode="s" horiz-adv-x="355" 
d="M330 443l-11 -130h-22q-4 53 -25 79q-29 34 -73 34q-30 0 -48.5 -15.5t-18.5 -40.5q0 -31 49 -76l59 -55q61 -57 61 -120q0 -58 -40 -99t-97 -41q-26 0 -68 14q-21 7 -47 7q-17 0 -37 -6l21 169h19q5 -67 37 -106.5t82 -39.5q32 0 51.5 18t19.5 47q0 38 -50 85l-57 55
q-68 64 -68 121q0 48 35.5 79.5t89.5 31.5q26 0 67 -8q28 -5 46 -5q13 0 25 2z" />
    <glyph glyph-name="t" unicode="t" horiz-adv-x="275" 
d="M284 420v-33h-90l-39 -186q-18 -78 -18 -105q0 -24 16 -24q24 0 65 60l16 -13q-44 -74 -74.5 -103t-61.5 -29q-21 0 -33.5 14.5t-12.5 39.5q0 21 11 72l58 274h-72v27q62 19 92.5 52.5t60.5 115.5h34l-35 -162h83z" />
    <glyph glyph-name="u" unicode="u" horiz-adv-x="525" 
d="M415 460h80l-58 -196q-46 -156 -46 -178q0 -19 14 -19q27 0 68 60l17 -13q-34 -50 -56 -76q-41 -50 -81 -50q-19 0 -31 14.5t-12 36.5q0 17 40 163q-128 -215 -231 -215q-33 0 -53 17.5t-20 46.5q0 23 20 102l42 168q0 1 1.5 5.5t3 10.5t2.5 12q8 29 8 38q0 12 -23 12
q-1 0 -31 -2v22l148 44l-65 -260q-23 -91 -23 -110q0 -39 34 -39t81 46.5t118 149.5z" />
    <glyph glyph-name="v" unicode="v" horiz-adv-x="447" 
d="M34 397l117 50q41 -86 41 -223q0 -90 -23 -182q69 27 135 125q32 47 54.5 99.5t22.5 80.5q0 11 -5 15.5t-21 8.5q-20 6 -20 36q0 27 9.5 36.5t36.5 9.5q33 0 45.5 -10.5t12.5 -38.5q0 -69 -50 -162.5t-129 -170.5q-49 -47 -88 -67.5t-86 -23.5q31 96 31 225
q0 51 -5.5 103.5t-12.5 67.5q-6 10 -18 10q-2 0 -29 -4q-1 0 -3 -0.5t-5 -1t-5 -0.5z" />
    <glyph glyph-name="w" unicode="w" horiz-adv-x="695" 
d="M35 400l120 53q37 -89 37 -214q0 -106 -18 -185q47 23 105 111t83 177q-2 16 -2 18q-5 31 -21 31l-10 -1q-1 -1 -3 -1q-3 -1 -4 -1l-7 22l89 35q34 -89 34 -214q0 -85 -21 -179q72 25 145 143q63 100 63 152q0 11 -16 18q-19 8 -24 15t-5 23q0 22 7 38q5 12 34 12
q37 0 49 -9q16 -14 16 -41q0 -61 -49.5 -154.5t-118.5 -163.5q-47 -47 -88.5 -71t-95.5 -34q35 124 35 253q0 7 -2 51q-47 -126 -128.5 -213.5t-154.5 -90.5q20 66 27 114t7 123q0 79 -13 146q-4 22 -19 22q-11 0 -44 -8z" />
    <glyph glyph-name="x" unicode="x" horiz-adv-x="453" 
d="M55 399l121 61q37 -67 70 -198q64 104 103.5 147.5t68.5 43.5q30 0 30 -41q0 -67 -41 -67q-11 0 -17 3.5t-13 16.5q-2 4 -6 4q-10 0 -25 -16t-52 -67l-38 -52l31 -101q14 -46 25 -63.5t25 -17.5q16 0 28 14t31 53l21 -12q-31 -72 -54.5 -99.5t-55.5 -27.5
q-27 0 -43.5 18.5t-30.5 65.5l-35 111l-61 -95q-34 -54 -59 -77t-48 -23q-34 0 -34 46q0 64 39 64q23 0 31 -21q2 -7 7 -7q14 0 61 65l54 78l-23 75q-19 60 -35 94q-6 13 -19 13q-7 0 -39 -7l-11 -3z" />
    <glyph glyph-name="y" unicode="y" horiz-adv-x="455" 
d="M35 400l116 60q44 -63 83 -188t40 -204q43 73 76 156.5t33 121.5q0 11 -4.5 15t-18.5 7q-24 4 -24 35q0 30 9 40.5t34 10.5q34 0 49 -12t15 -40q0 -63 -61.5 -194.5t-144.5 -244.5q-79 -107 -125 -139q-25 -17 -52 -17q-22 0 -31 13t-9 47q0 28 7 37t30 9q18 0 25.5 -5
t11.5 -20q4 -14 14 -14q14 0 46.5 34t64.5 82q-13 131 -70 291q-25 68 -36 88.5t-23 20.5q-13 0 -48 -11z" />
    <glyph glyph-name="z" unicode="z" horiz-adv-x="403" 
d="M353 121l-40 -128q-90 7 -122 7h-53q-54 0 -131 -7q43 102 178 235q13 14 40 41l26 27q47 48 72 72q-35 -5 -68 -5h-82q-43 0 -59.5 -9t-31.5 -40h-20l40 126q34 -7 71 -7h105q56 0 123 7q-14 -36 -36 -65.5t-80 -87.5q-144 -142 -198 -223q45 6 100 6h59q39 0 58 11
t29 40h20z" />
    <glyph glyph-name="braceleft" unicode="{" horiz-adv-x="348" 
d="M269 568l-48 -223q-7 -32 -19.5 -46.5t-41.5 -25.5q33 -19 33 -51q0 -6 -2 -20l-48 -223q-6 -32 -6 -42q0 -21 10 -27.5t44 -6.5h50l-9 -40h-112q-58 0 -58 48q0 14 3 29l54 255q3 13 3 22q0 12 -6 19t-26 17q-14 10 -13 17l1 3l1 7q3 8 9 12t25 11q19 8 26.5 17t12.5 29
l55 258q7 37 24 53.5t49 16.5h125l-8 -40h-50q-42 0 -55.5 -11.5t-22.5 -57.5z" />
    <glyph glyph-name="bar" unicode="|" 
d="M224 667h53v-834h-53v834z" />
    <glyph glyph-name="braceright" unicode="}" horiz-adv-x="348" 
d="M101 -28l47 223q8 33 20 47t41 25q-33 19 -33 51q0 6 2 20l48 223q7 32 7 42q0 21 -10.5 27.5t-44.5 6.5h-50l9 40h112q31 0 45 -11.5t14 -36.5q0 -9 -4 -29l-54 -255q-3 -13 -3 -22q0 -12 6 -19t26 -17q14 -10 13 -17l-1 -3l-1 -7q-2 -8 -8 -12t-26 -11
q-19 -8 -26.5 -17t-12.5 -29l-54 -258q-8 -38 -25.5 -54t-48.5 -16h-125l9 40h50q41 0 54.5 11.5t23.5 57.5z" />
    <glyph glyph-name="asciitilde" unicode="~" horiz-adv-x="667" 
d="M530 734l14 -9q-24 -43 -62 -69.5t-74 -26.5q-20 0 -63 14q-85 29 -117 29q-26 0 -43 -11t-48 -47l-14 9q59 96 138 96q29 0 91 -22q54 -18 79 -18q54 0 99 55z" />
    <glyph glyph-name="uni00A0" unicode="&#xa0;" horiz-adv-x="250" 
 />
    <glyph glyph-name="exclamdown" unicode="&#xa1;" horiz-adv-x="305" 
d="M151 251h23l-61 -406q-9 -61 -22 -83t-40 -22q-21 0 -34 13.5t-13 35.5q0 17 21 81zM201 440q20 0 33.5 -13.5t13.5 -33.5q0 -24 -18 -42t-42 -18q-20 0 -33.5 13.5t-13.5 33.5q0 24 18 42t42 18z" />
    <glyph glyph-name="cent" unicode="&#xa2;" horiz-adv-x="540" 
d="M361 659h48l-19 -89q117 0 117 -84q0 -60 -44 -60q-51 0 -51 27q0 7 10 37q6 16 6 26q0 28 -36 28q-69 0 -130.5 -85t-61.5 -180q0 -56 28 -90t74 -34q70 0 135 86l16 -10q-72 -118 -163 -133l-19 -90h-49l20 90q-57 8 -91 52.5t-34 111.5q0 95 64.5 182t159.5 121z" />
    <glyph glyph-name="sterling" unicode="&#xa3;" horiz-adv-x="540" 
d="M175 314h-99v41h98v77q0 127 67 191q57 54 139 54q64 0 106 -32.5t42 -82.5q0 -30 -16 -50t-39 -20q-19 0 -32.5 13t-13.5 33q0 19 25 45q6 7 6 18q0 19 -21 32t-51 13q-72 0 -100 -72q-17 -44 -20 -142l-2 -77h138v-41h-139q-4 -90 -49 -188l59 -19q70 -24 111 -24
q84 0 112 105l28 -5q-19 -92 -43 -131q-39 -62 -114 -62q-32 0 -59 11.5t-127 66.5q-34 -40 -57.5 -55.5t-52.5 -15.5q-35 0 -57.5 21.5t-22.5 54.5q0 36 26 58t68 22q38 0 83 -13q9 48 9 114q0 13 -2 60zM141 86q-40 22 -70 22q-15 0 -24 -9t-9 -24q0 -14 10 -23t26 -9
q28 0 67 43z" />
    <glyph glyph-name="currency" unicode="&#xa4;" horiz-adv-x="663" 
d="M507 524l80 80l34 -33l-81 -81q28 -46 38.5 -77.5t10.5 -70.5q0 -40 -10.5 -70t-39.5 -76l81 -82l-34 -33l-80 80q-77 -52 -150 -52q-69 0 -147 50l-79 -79l-34 34l78 78q-29 44 -40 75.5t-11 69.5q0 68 49 155l-78 78l33 33l79 -78q70 51 151 51q39 0 71 -11t79 -41z
M356 518q-73 0 -124 -51.5t-51 -124.5q0 -72 51.5 -123.5t123.5 -51.5t123.5 51t51.5 122q0 75 -50.5 126.5t-124.5 51.5z" />
    <glyph glyph-name="yen" unicode="&#xa5;" horiz-adv-x="540" 
d="M361 333l-33 -43l-8 -40h128v-40h-136l-14 -65q-16 -87 -16 -97q0 -13 10 -18.5t36 -7.5l14 -1v-21h-227v21q49 1 65 10q10 5 13.5 14t13.5 58q2 10 6 28t4 19l13 60h-137v40h146l8 40l-12 43h-115v40h104l-37 130q-24 85 -35.5 101.5t-49.5 19.5q-2 0 -18 2v21h225v-21
q-42 -4 -47 -6q-14 -3 -14 -16q0 -4 14 -56l56 -213l152 198q52 69 52 79q0 12 -28 13q-7 0 -22 1v21h167v-21q-37 -3 -56.5 -18.5t-74.5 -84.5l-115 -150h81v-40h-113z" />
    <glyph glyph-name="brokenbar" unicode="&#xa6;" 
d="M224 667h53v-334h-53v334zM224 153h53v-320h-53v320z" />
    <glyph glyph-name="section" unicode="&#xa7;" horiz-adv-x="460" 
d="M289 472l66 -78q35 -42 49 -72t14 -61q0 -61 -54 -99q-34 -21 -90 -30q66 -76 66 -134q0 -60 -47 -100.5t-117 -40.5q-68 0 -110 35.5t-42 92.5q0 47 46 47t46 -35q0 -7 -5 -25q-6 -18 -6 -29q0 -24 24.5 -42.5t56.5 -18.5q39 0 66.5 25.5t27.5 60.5q0 22 -11.5 43.5
t-43.5 56.5l-75 84q-73 83 -73 146q0 67 50 107q29 24 90 35q-45 56 -45 101q0 56 46 94.5t112 38.5q57 0 93 -29t36 -75q0 -53 -42 -53q-43 0 -43 36q0 13 7 41q2 8 2 14q0 19 -16.5 31t-41.5 12q-36 0 -63 -23.5t-27 -55.5q0 -35 54 -100zM320 314l-90 108
q-52 -8 -75 -27.5t-23 -54.5q0 -28 15 -55.5t54 -70.5l62 -67q97 21 97 83q0 37 -40 84z" />
    <glyph glyph-name="dieresis" unicode="&#xa8;" 
d="M259 655q17 0 28.5 -13t11.5 -32q0 -23 -15.5 -40t-36.5 -17q-17 0 -28.5 13t-11.5 32q0 23 15.5 40t36.5 17zM415 655q17 0 28.5 -13t11.5 -32q0 -23 -15.5 -40t-36.5 -17q-17 0 -28.5 13t-11.5 32q0 23 15.5 40t36.5 17z" />
    <glyph glyph-name="copyright" unicode="&#xa9;" horiz-adv-x="778" 
d="M574 521l-27 -125h-18v15q0 48 -21 74t-61 26q-62 0 -110 -63t-48 -144q0 -55 29.5 -89.5t76.5 -34.5q69 0 116 70l18 -6q-59 -99 -158 -99q-68 0 -108.5 39.5t-40.5 106.5q0 96 68 170.5t156 74.5q28 0 68 -12q32 -9 40 -9q5 0 20 6zM418 677q141 0 242.5 -101.5
t101.5 -242.5q0 -142 -102 -242.5t-246 -100.5t-246 100.5t-102 242.5q0 144 102 244t250 100zM416 648q-131 0 -222 -91.5t-91 -223.5q0 -130 91 -222t219 -92t219 92t91 222q0 129 -90.5 222t-216.5 93z" />
    <glyph glyph-name="ordfeminine" unicode="&#xaa;" horiz-adv-x="360" 
d="M333 670h50q-18 -52 -33 -101l-26 -86q-13 -44 -13 -49t6 -5t18.5 11.5t22.5 26.5l15 -11q-45 -67 -84 -67q-28 0 -28 25q0 10 10 49l2 10q-34 -48 -57 -66.5t-49 -18.5q-27 0 -43 18.5t-16 50.5q0 73 54.5 143t110.5 70q39 0 49 -35zM274 649q-44 0 -85 -81
q-26 -52 -26 -94q0 -40 31 -40t73 61.5t42 107.5t-35 46z" />
    <glyph glyph-name="guillemotleft" unicode="&#xab;" horiz-adv-x="405" 
d="M331 47h-42q-40 113 -105 178q100 84 173 182h51q-76 -129 -145 -182q39 -74 68 -178zM178 47h-42q-42 115 -105 178q104 88 172 182h52q-78 -131 -145 -182q36 -67 68 -178z" />
    <glyph glyph-name="logicalnot" unicode="&#xac;" 
d="M373 0v227h-337v40h429v-267h-92z" />
    <glyph glyph-name="uni00AD" unicode="&#xad;" horiz-adv-x="222" 
d="M217 260v-67h-208v67h208z" />
    <glyph glyph-name="registered" unicode="&#xae;" horiz-adv-x="778" 
d="M356 331l-20 -94q-9 -40 -9 -56q0 -11 25 -12h11v-19h-139v19q27 1 31 10q7 12 19 68l42 196q10 50 10 55q0 11 -25 12l-11 1v19h166q108 0 108 -82q0 -46 -34.5 -77t-87.5 -32q14 -13 24 -33l41 -82q20 -39 29.5 -46.5t38.5 -8.5v-19h-97l-69 137q-17 33 -21.5 38.5
t-14.5 5.5h-17zM361 353h20q117 0 117 92q0 33 -19.5 48t-62.5 15q-14 0 -22 -1zM418 677q141 0 242.5 -101.5t101.5 -242.5q0 -142 -102 -242.5t-246 -100.5t-246 100.5t-102 242.5q0 144 102 244t250 100zM416 648q-131 0 -222 -91.5t-91 -223.5q0 -130 91 -222t219 -92
t219 92t91 222q0 129 -90.5 222t-216.5 93z" />
    <glyph glyph-name="macron" unicode="&#xaf;" 
d="M454 619l-11 -50h-249l12 50h248z" />
    <glyph glyph-name="degree" unicode="&#xb0;" horiz-adv-x="411" 
d="M273 672q58 0 98.5 -39.5t40.5 -95.5t-40.5 -96t-97.5 -40q-58 0 -98.5 40t-40.5 97q0 55 41 94.5t97 39.5zM274 631q-40 0 -68 -27.5t-28 -65.5q0 -40 28 -68t68 -28q39 0 67 28t28 67q0 38 -28 66t-67 28z" />
    <glyph glyph-name="plusminus" unicode="&#xb1;" horiz-adv-x="540" 
d="M77 359h188v175h58v-175h187v-54h-187v-176h-58v176h-188v54zM77 67h433v-54h-433v54z" />
    <glyph glyph-name="twosuperior" unicode="&#xb2;" horiz-adv-x="353" 
d="M136 549h-22q6 53 39.5 82.5t88.5 29.5q51 0 83.5 -28.5t32.5 -72.5q0 -38 -24.5 -70.5t-94.5 -87.5l-101 -79q41 3 60 3h80q18 0 22 1.5t12 9.5h21l-31 -71h-240v29l70 61q100 86 130.5 123t30.5 72q0 31 -20 49.5t-54 18.5q-70 0 -83 -70z" />
    <glyph glyph-name="threesuperior" unicode="&#xb3;" horiz-adv-x="353" 
d="M117 591l41 64h213l-145 -151q9 1 23 1q35 0 59.5 -29t24.5 -70q0 -58 -44 -101.5t-103 -43.5t-113 54l17 16q42 -38 81 -38q40 0 68.5 31t28.5 74q0 48 -36 68q-20 11 -60 14l116 122h-115q-25 0 -30 -11h-26z" />
    <glyph glyph-name="acute" unicode="&#xb4;" 
d="M301 534h-37l118 122q25 26 32.5 31.5t18.5 5.5t18.5 -8t7.5 -19q0 -19 -38 -46z" />
    <glyph glyph-name="mu" unicode="&#xb5;" horiz-adv-x="525" 
d="M473 127l17 -13q-39 -57 -56 -76q-41 -50 -81 -50q-19 0 -31 14.5t-12 36.5q0 18 30 126q2 8 4 15t3 10t1.5 6t1.5 6q-128 -215 -231 -215q-37 0 -59 34q-3 -17 -4 -25q-3 -16 -5 -37l-6 -48q-6 -53 -19 -76.5t-37 -23.5q-28 0 -28 32q0 14 23 74q70 173 82 236l77 307
h73l-64 -257q-23 -92 -23 -110q0 -39 34 -39t80.5 46t118.5 150l53 210h80l-58 -196q-46 -156 -46 -178q0 -19 14 -19q27 0 68 60z" />
    <glyph glyph-name="paragraph" unicode="&#xb6;" horiz-adv-x="562" 
d="M282 313h-11q-76 0 -116 35t-40 103q0 54 24 99.5t68 74.5q39 26 79.5 34t133.5 8h189l-5 -24q-55 0 -69 -14q-11 -11 -29 -98l-127 -596q-15 -71 -15 -85q0 -17 12 -21.5t54 -4.5l-5 -24h-130l177 835h-69l-178 -835h-126l5 24q55 0 69 13q11 13 29 98z" />
    <glyph glyph-name="periodcentered" unicode="&#xb7;" horiz-adv-x="240" 
d="M128 280q20 0 33.5 -13.5t13.5 -33.5q0 -24 -18 -42t-42 -18q-20 0 -33.5 13.5t-13.5 33.5q0 24 18 42t42 18z" />
    <glyph glyph-name="cedilla" unicode="&#xb8;" 
d="M208 0h32l-34 -57q11 2 23 2q29 0 47 -17t18 -44q0 -34 -28.5 -55t-75.5 -21q-42 0 -86 20l11 27q34 -15 64 -15q53 0 53 38q0 16 -11 25.5t-30 9.5q-7 0 -22 -3l-10 8z" />
    <glyph glyph-name="onesuperior" unicode="&#xb9;" horiz-adv-x="353" 
d="M160 585l153 85q-1 -11 -22 -100l-44 -207q-11 -60 -11 -62q0 -15 26 -15h14v-19h-153v19h13q25 0 33 12.5t20 68.5l38 179q7 38 7 41q0 5 -4 5q-9 0 -59 -26z" />
    <glyph glyph-name="ordmasculine" unicode="&#xba;" horiz-adv-x="360" 
d="M286 670q46 0 73 -27.5t27 -74.5q0 -35 -21 -76t-52 -67q-45 -37 -97 -37q-47 0 -76.5 29t-29.5 76q0 65 55.5 121t120.5 56zM279 646q-41 0 -75.5 -50t-34.5 -110q0 -31 15.5 -50.5t41.5 -19.5q32 0 57 31q18 22 31 60t13 67q0 72 -48 72z" />
    <glyph glyph-name="guillemotright" unicode="&#xbb;" horiz-adv-x="405" 
d="M77 407h42q39 -110 105 -178q-101 -85 -173 -182h-51q80 134 145 182q-39 71 -68 178zM230 407h42q39 -110 105 -178q-101 -86 -172 -182h-52q79 132 145 182q-40 77 -68 178z" />
    <glyph glyph-name="onequarter" unicode="&#xbc;" horiz-adv-x="839" 
d="M160 585l153 85q-1 -11 -22 -100l-44 -207q-11 -60 -11 -62q0 -15 26 -15h14v-19h-153v19h13q25 0 33 12.5t20 68.5l38 179q7 38 7 41q0 5 -4 5q-9 0 -59 -26zM647 680l26 -18l-433 -677l-26 17zM799 156l-9 -41h-69l-25 -115h-58l24 115h-154v44l231 238h40l-51 -241h71
zM671 156l36 169l-163 -169h127z" />
    <glyph glyph-name="onehalf" unicode="&#xbd;" horiz-adv-x="839" 
d="M160 585l153 85q-1 -11 -22 -100l-44 -207q-11 -60 -11 -62q0 -15 26 -15h14v-19h-153v19h13q25 0 33 12.5t20 68.5l38 179q7 38 7 41q0 5 -4 5q-9 0 -59 -26zM647 680l26 -18l-433 -677l-26 17zM567 282h-23q6 53 39.5 82.5t88.5 29.5q51 0 83.5 -28.5t32.5 -72.5
q0 -37 -25.5 -71t-93.5 -87l-101 -78q42 3 60 3h80q18 0 22.5 1t11.5 9h21l-31 -70h-240v29l71 60q79 69 126 119q34 37 34 76q0 31 -20 49.5t-54 18.5q-70 0 -82 -70z" />
    <glyph glyph-name="threequarters" unicode="&#xbe;" horiz-adv-x="839" 
d="M117 591l41 64h213l-145 -151q9 1 23 1q35 0 59.5 -29t24.5 -70q0 -58 -44 -101.5t-103 -43.5t-113 54l17 16q42 -38 81 -38q40 0 68.5 31t28.5 74q0 48 -36 68q-20 11 -60 14l116 122h-115q-25 0 -30 -11h-26zM647 680l26 -18l-433 -677l-26 17zM799 156l-9 -41h-69
l-25 -115h-58l24 115h-154v44l231 238h40l-51 -241h71zM671 156l36 169l-163 -169h127z" />
    <glyph glyph-name="questiondown" unicode="&#xbf;" horiz-adv-x="432" 
d="M219 249l25 -8q-30 -74 -45 -102.5t-42 -60.5l-39 -46q-50 -58 -50 -125q0 -50 32 -86.5t76 -36.5q28 0 43 20.5t15 58.5v11q-1 7 -1 18q0 56 49 56q42 0 42 -38q0 -62 -54.5 -109t-125.5 -47q-76 0 -122.5 40.5t-46.5 105.5q0 84 85 154l54 44q37 30 61.5 65t43.5 86z
M282 440q20 0 33.5 -13.5t13.5 -33.5q0 -24 -18 -42t-42 -18q-21 0 -34.5 13.5t-13.5 34.5q0 23 18.5 41t42.5 18z" />
    <glyph glyph-name="Agrave" unicode="&#xc0;" horiz-adv-x="617" 
d="M403 228h-230l-88 -143q-19 -32 -19 -43t10 -15t41 -5v-22h-155v22q29 3 42 16q9 8 32 44l57 87l328 523h17l66 -515q12 -88 16 -109t12 -32q9 -11 52 -14v-22h-220v22h12q29 1 37.5 6.5t8.5 25.5q0 16 -3 44zM399 261l-33 281l-172 -281h205zM488 742h-38l-113 80
q-26 18 -26 38q0 10 10 18.5t23 8.5q10 0 17.5 -6t27.5 -28z" />
    <glyph glyph-name="Aacute" unicode="&#xc1;" horiz-adv-x="617" 
d="M403 228h-230l-88 -143q-19 -32 -19 -43t10 -15t41 -5v-22h-155v22q29 3 42 16q9 8 32 44l57 87l328 523h17l66 -515q12 -88 16 -109t12 -32q9 -11 52 -14v-22h-220v22h12q29 1 37.5 6.5t8.5 25.5q0 16 -3 44zM399 261l-33 281l-172 -281h205zM430 742h-40l133 109
q28 23 37.5 28.5t21.5 5.5q11 0 19 -7t8 -17q0 -23 -37 -42z" />
    <glyph glyph-name="Acircumflex" unicode="&#xc2;" horiz-adv-x="617" 
d="M403 228h-230l-88 -143q-19 -32 -19 -43t10 -15t41 -5v-22h-155v22q29 3 42 16q9 8 32 44l57 87l328 523h17l66 -515q12 -88 16 -109t12 -32q9 -11 52 -14v-22h-220v22h12q29 1 37.5 6.5t8.5 25.5q0 16 -3 44zM399 261l-33 281l-172 -281h205zM575 742h-36l-77 87
l-125 -87h-39l147 143h44z" />
    <glyph glyph-name="Atilde" unicode="&#xc3;" horiz-adv-x="617" 
d="M403 228h-230l-88 -143q-19 -32 -19 -43t10 -15t41 -5v-22h-155v22q29 3 42 16q9 8 32 44l57 87l328 523h17l66 -515q12 -88 16 -109t12 -32q9 -11 52 -14v-22h-220v22h12q29 1 37.5 6.5t8.5 25.5q0 16 -3 44zM399 261l-33 281l-172 -281h205zM577 850h23
q-10 -41 -32 -63.5t-52 -22.5q-20 0 -52 12l-40 16q-29 11 -41 11q-16 0 -26 -8t-24 -31h-25q10 40 33 63t54 23q21 0 47 -11l42 -17q28 -10 41 -10q30 0 52 38z" />
    <glyph glyph-name="Adieresis" unicode="&#xc4;" horiz-adv-x="617" 
d="M403 228h-230l-88 -143q-19 -32 -19 -43t10 -15t41 -5v-22h-155v22q29 3 42 16q9 8 32 44l57 87l328 523h17l66 -515q12 -88 16 -109t12 -32q9 -11 52 -14v-22h-220v22h12q29 1 37.5 6.5t8.5 25.5q0 16 -3 44zM399 261l-33 281l-172 -281h205zM366 854q17 0 28.5 -13
t11.5 -32q0 -23 -15.5 -40t-36.5 -17q-17 0 -28.5 13t-11.5 32q0 23 15.5 40t36.5 17zM536 854q17 0 28.5 -13t11.5 -32q0 -23 -15.5 -40t-36.5 -17q-17 0 -28.5 13t-11.5 32q0 23 15.5 40t36.5 17z" />
    <glyph glyph-name="Aring" unicode="&#xc5;" horiz-adv-x="617" 
d="M403 228h-230l-88 -143q-19 -32 -19 -43t10 -15t41 -5v-22h-155v22q29 3 42 16q9 8 32 44l57 87l328 523h17l66 -515q12 -88 16 -109t12 -32q9 -11 52 -14v-22h-220v22h12q29 1 37.5 6.5t8.5 25.5q0 16 -3 44zM399 261l-33 281l-172 -281h205zM439 895q37 0 62.5 -26
t25.5 -63q0 -36 -26 -61.5t-62 -25.5q-37 0 -62.5 25.5t-25.5 62.5t25.5 62.5t62.5 25.5zM439 857q-21 0 -35.5 -15t-14.5 -35q0 -21 14.5 -35.5t35.5 -14.5q20 0 35 15t15 35q0 21 -14.5 35.5t-35.5 14.5z" />
    <glyph glyph-name="AE" unicode="&#xc6;" horiz-adv-x="883" 
d="M403 228h-204l-91 -120q-44 -61 -44 -69q0 -10 10.5 -13.5t42.5 -4.5v-21h-154v21q29 9 46 25.5t69 85.5l296 395q40 52 50.5 69t10.5 28q0 12 -12 16t-58 6v21h515l-20 -153h-21q0 79 -23.5 99.5t-113.5 20.5h-113l-58 -271h91q72 0 91.5 11.5t33.5 63.5h22l-42 -195
h-21q3 33 3 49q0 27 -13 32.5t-76 5.5h-96l-63 -297h108q114 0 162 27t77 107h24l-41 -167h-486v21q27 2 36.5 6t15.5 16q11 23 33 124zM410 261l75 354l-262 -354h187z" />
    <glyph glyph-name="Ccedilla" unicode="&#xc7;" horiz-adv-x="621" 
d="M652 647l-44 -208h-21q1 11 1 27q0 85 -38 131.5t-108 46.5q-110 0 -196 -116t-86 -266q0 -97 52.5 -159.5t133.5 -62.5q123 0 204 124l21 -6q-39 -66 -79 -101q-78 -67 -174 -67h-13l-28 -47q10 2 22 2q29 0 47 -17t18 -44q0 -34 -28.5 -55t-75.5 -21q-41 0 -86 20
l11 27q34 -15 64 -15q53 0 53 38q0 16 -11 25.5t-30 9.5q-5 0 -22 -3l-9 8l43 73q-107 17 -162 81t-55 171q0 96 41 186.5t112 152.5q109 95 229 95q46 0 117 -21q51 -16 69 -16q10 0 28 7z" />
    <glyph glyph-name="Egrave" unicode="&#xc8;" horiz-adv-x="602" 
d="M598 667l-20 -153h-21q0 79 -23.5 99.5t-113.5 20.5h-113l-58 -271h91q72 0 92 11.5t33 63.5h22l-42 -195h-21q4 35 4 48q0 28 -13.5 33.5t-76.5 5.5h-96l-63 -297h108q114 0 163.5 27.5t75.5 106.5h24l-41 -167h-486v21q41 2 51.5 20.5t33.5 125.5l75 350q18 89 18 101
q0 14 -10 20t-37 7q-8 0 -15 1v21h459zM470 742h-38l-113 80q-26 20 -26 38q0 10 10 18.5t23 8.5q16 0 45 -34z" />
    <glyph glyph-name="Eacute" unicode="&#xc9;" horiz-adv-x="602" 
d="M598 667l-20 -153h-21q0 79 -23.5 99.5t-113.5 20.5h-113l-58 -271h91q72 0 92 11.5t33 63.5h22l-42 -195h-21q4 35 4 48q0 28 -13.5 33.5t-76.5 5.5h-96l-63 -297h108q114 0 163.5 27.5t75.5 106.5h24l-41 -167h-486v21q41 2 51.5 20.5t33.5 125.5l75 350q18 89 18 101
q0 14 -10 20t-37 7q-8 0 -15 1v21h459zM393 742h-41l133 109q29 23 38 28.5t21 5.5q11 0 19 -7t8 -17q0 -22 -36 -42z" />
    <glyph glyph-name="Ecircumflex" unicode="&#xca;" horiz-adv-x="602" 
d="M598 667l-20 -153h-21q0 79 -23.5 99.5t-113.5 20.5h-113l-58 -271h91q72 0 92 11.5t33 63.5h22l-42 -195h-21q4 35 4 48q0 28 -13.5 33.5t-76.5 5.5h-96l-63 -297h108q114 0 163.5 27.5t75.5 106.5h24l-41 -167h-486v21q41 2 51.5 20.5t33.5 125.5l75 350q18 89 18 101
q0 14 -10 20t-37 7q-8 0 -15 1v21h459zM551 742h-36l-77 87l-126 -87h-38l147 143h44z" />
    <glyph glyph-name="Edieresis" unicode="&#xcb;" horiz-adv-x="602" 
d="M598 667l-20 -153h-21q0 79 -23.5 99.5t-113.5 20.5h-113l-58 -271h91q72 0 92 11.5t33 63.5h22l-42 -195h-21q4 35 4 48q0 28 -13.5 33.5t-76.5 5.5h-96l-63 -297h108q114 0 163.5 27.5t75.5 106.5h24l-41 -167h-486v21q41 2 51.5 20.5t33.5 125.5l75 350q18 89 18 101
q0 14 -10 20t-37 7q-8 0 -15 1v21h459zM346 854q17 0 28.5 -13t11.5 -32q0 -23 -15.5 -40t-36.5 -17q-17 0 -28.5 13t-11.5 32q0 23 15.5 40t36.5 17zM516 854q17 0 28.5 -12.5t11.5 -31.5q0 -23 -15.5 -40.5t-36.5 -17.5q-17 0 -28.5 13t-11.5 32q0 23 15.5 40t36.5 17z
" />
    <glyph glyph-name="Igrave" unicode="&#xcc;" horiz-adv-x="339" 
d="M138 645v22h229v-22q-26 -2 -36.5 -6t-16.5 -15q-10 -21 -35 -124l-74 -351q-17 -74 -17 -100q0 -15 11.5 -20t50.5 -7v-22h-230v22q42 1 53.5 20t35.5 125l74 351q17 76 17 99q0 14 -10 19.5t-37 7.5zM332 742h-38l-113 80q-26 18 -26 38q0 10 10 18.5t23 8.5
q15 0 45 -34z" />
    <glyph glyph-name="Iacute" unicode="&#xcd;" horiz-adv-x="339" 
d="M138 645v22h229v-22q-26 -2 -36.5 -6t-16.5 -15q-10 -21 -35 -124l-74 -351q-17 -74 -17 -100q0 -15 11.5 -20t50.5 -7v-22h-230v22q42 1 53.5 20t35.5 125l74 351q17 76 17 99q0 14 -10 19.5t-37 7.5zM265 742h-41l134 109q28 23 37 28.5t21 5.5q11 0 19 -7t8 -17
q0 -22 -36 -42z" />
    <glyph glyph-name="Icircumflex" unicode="&#xce;" horiz-adv-x="339" 
d="M138 645v22h229v-22q-26 -2 -36.5 -6t-16.5 -15q-10 -20 -35 -124l-74 -351q-17 -74 -17 -100q0 -15 11.5 -20t50.5 -7v-22h-230v22q42 1 53.5 20t35.5 125l74 351q17 76 17 99q0 14 -10 19.5t-37 7.5zM416 742h-36l-77 87l-125 -87h-38l146 143h45z" />
    <glyph glyph-name="Idieresis" unicode="&#xcf;" horiz-adv-x="339" 
d="M138 645v22h229v-22q-26 -2 -36.5 -6t-16.5 -15q-10 -21 -35 -124l-74 -351q-17 -74 -17 -100q0 -15 11.5 -20t50.5 -7v-22h-230v22q42 1 53.5 20t35.5 125l74 351q17 76 17 99q0 14 -10 19.5t-37 7.5zM223 854q17 0 28.5 -13t11.5 -32q0 -23 -15.5 -40t-36.5 -17
q-17 0 -28.5 13t-11.5 32q0 23 15.5 40t36.5 17zM375 854q17 0 28.5 -12.5t11.5 -31.5q0 -23 -15.5 -40.5t-36.5 -17.5q-17 0 -28.5 13t-11.5 32q0 23 15.5 40t36.5 17z" />
    <glyph glyph-name="Eth" unicode="&#xd0;" horiz-adv-x="726" 
d="M142 324h-66v37h74l33 156q17 81 17 100q0 16 -11 21t-51 7v22h280q138 0 201 -40q46 -29 71 -82.5t25 -122.5q0 -82 -31 -160t-86 -136q-122 -126 -337 -126h-232v22q24 1 33.5 5.5t14.5 15.5q8 17 32 124zM242 324l-31 -142q-20 -95 -20 -123q0 -19 15.5 -25.5
t57.5 -6.5q150 0 240 101q49 55 76.5 131t27.5 154q0 111 -58.5 169t-169.5 58q-28 0 -72 -4l-58 -275h162v-37h-170z" />
    <glyph glyph-name="Ntilde" unicode="&#xd1;" horiz-adv-x="713" 
d="M549 -17h-23l-292 581l-88 -415q-17 -78 -17 -101q0 -14 11.5 -19t50.5 -7v-22h-161v22q23 2 33 6t15 15q10 23 31 124l94 440q-20 26 -27.5 31.5t-26.5 6.5v22h138l257 -517l78 368q17 72 17 99q0 16 -12 21.5t-50 6.5v22h164v-22q-38 -1 -49 -21q-9 -19 -33 -124z
M609 850h23q-10 -41 -32 -63.5t-52 -22.5q-20 0 -52 12l-40 16q-28 11 -41 11q-16 0 -26 -8t-24 -31h-25q10 40 33 63t54 23q21 0 47 -11l42 -17q28 -10 41 -10q29 0 52 38z" />
    <glyph glyph-name="Ograve" unicode="&#xd2;" horiz-adv-x="737" 
d="M458 677q122 0 194.5 -73.5t72.5 -198.5q0 -89 -42 -179.5t-111 -148.5q-104 -87 -238 -87q-124 0 -200 70.5t-76 186.5q0 112 55 211.5t147.5 159t197.5 59.5zM456 644q-114 0 -204 -122t-90 -276q0 -96 51.5 -154.5t135.5 -58.5q110 0 189 115q38 56 61 133.5t23 148.5
q0 91 -36 146q-47 68 -130 68zM538 742h-38l-113 80q-26 18 -26 37q0 11 10 19.5t23 8.5q16 0 45 -34z" />
    <glyph glyph-name="Oacute" unicode="&#xd3;" horiz-adv-x="737" 
d="M458 677q122 0 194.5 -73.5t72.5 -198.5q0 -89 -42 -179.5t-111 -148.5q-104 -87 -238 -87q-124 0 -200 70.5t-76 186.5q0 112 55 211.5t147.5 159t197.5 59.5zM456 644q-114 0 -204 -122t-90 -276q0 -96 51.5 -154.5t135.5 -58.5q110 0 189 115q38 56 61 133.5t23 148.5
q0 91 -36 146q-47 68 -130 68zM457 742h-40l133 109q29 24 38 29t21 5q11 0 19 -7t8 -17q0 -22 -37 -42z" />
    <glyph glyph-name="Ocircumflex" unicode="&#xd4;" horiz-adv-x="737" 
d="M458 677q122 0 194.5 -73.5t72.5 -198.5q0 -89 -42 -179.5t-111 -148.5q-104 -87 -238 -87q-124 0 -200 70.5t-76 186.5q0 112 55 211.5t147.5 159t197.5 59.5zM456 644q-114 0 -204 -122t-90 -276q0 -96 51.5 -154.5t135.5 -58.5q110 0 189 115q38 56 61 133.5t23 148.5
q0 91 -36 146q-47 68 -130 68zM615 742h-36l-77 87l-125 -87h-38l147 143h44z" />
    <glyph glyph-name="Otilde" unicode="&#xd5;" horiz-adv-x="737" 
d="M458 677q122 0 194.5 -73.5t72.5 -198.5q0 -89 -42 -179.5t-111 -148.5q-104 -87 -238 -87q-124 0 -200 70.5t-76 186.5q0 112 55 211.5t147.5 159t197.5 59.5zM456 644q-114 0 -204 -122t-90 -276q0 -96 51.5 -154.5t135.5 -58.5q110 0 189 115q38 56 61 133.5t23 148.5
q0 91 -36 146q-47 68 -130 68zM621 850h23q-10 -41 -32 -63.5t-53 -22.5q-20 0 -51 12l-40 16q-30 11 -41 11q-28 0 -51 -39h-24q10 41 33 63.5t54 22.5q19 0 47 -11l41 -17q28 -10 42 -10q29 0 52 38z" />
    <glyph glyph-name="Odieresis" unicode="&#xd6;" horiz-adv-x="737" 
d="M458 677q122 0 194.5 -73.5t72.5 -198.5q0 -89 -42 -179.5t-111 -148.5q-104 -87 -238 -87q-124 0 -200 70.5t-76 186.5q0 112 55 211.5t147.5 159t197.5 59.5zM456 644q-114 0 -204 -122t-90 -276q0 -96 51.5 -154.5t135.5 -58.5q110 0 189 115q38 56 61 133.5t23 148.5
q0 91 -36 146q-47 68 -130 68zM411 854q17 0 28.5 -13t11.5 -32q0 -23 -15.5 -40t-36.5 -17q-17 0 -28.5 13t-11.5 32q0 23 15.5 40t36.5 17zM581 854q17 0 28.5 -13t11.5 -32q0 -23 -15.5 -40t-36.5 -17q-17 0 -28.5 13t-11.5 32q0 23 15.5 40t36.5 17z" />
    <glyph glyph-name="multiply" unicode="&#xd7;" horiz-adv-x="540" 
d="M101 177l155 154l-155 155l38 38l155 -154l155 154l38 -38l-155 -155l155 -154l-38 -39l-155 155l-155 -155z" />
    <glyph glyph-name="Oslash" unicode="&#xd8;" horiz-adv-x="737" 
d="M151 47l-62 -65l-31 27l62 66q-62 69 -62 172q0 113 55 212.5t148 158.5t198 59q99 0 174 -57l60 63l31 -27l-61 -65q62 -69 62 -180q0 -94 -41 -184t-112 -150q-104 -87 -238 -87q-108 0 -183 57zM606 534l-398 -435q53 -66 141 -66q109 0 188 115q39 57 62 134.5
t23 152.5q0 52 -16 99zM183 136l403 438q-42 70 -131 70q-74 0 -142.5 -56.5t-109.5 -149.5t-41 -194q0 -50 21 -108z" />
    <glyph glyph-name="Ugrave" unicode="&#xd9;" horiz-adv-x="698" 
d="M130 667h252v-22q-63 -1 -76 -16q-7 -3 -32 -117l-49 -231q-16 -74 -16 -113q0 -58 41.5 -92t112.5 -34q83 0 131 53q21 23 35 60t32 121l51 242q15 69 15 100q0 13 -10 18.5t-37 7.5q-2 1 -15 1v22h162v-22q-23 -2 -33 -6t-15 -15q-7 -18 -31 -124l-51 -239
q-20 -95 -38.5 -138.5t-51.5 -73.5q-67 -59 -175 -59q-103 0 -162.5 48t-59.5 130q0 38 13 102l53 248q16 77 16 99q0 16 -11 21t-51 7v22zM527 742h-39l-112 80q-26 18 -26 38q0 10 10 18.5t23 8.5q10 0 17.5 -6t27.5 -28z" />
    <glyph glyph-name="Uacute" unicode="&#xda;" horiz-adv-x="698" 
d="M130 667h252v-22q-63 -1 -76 -16q-7 -3 -32 -117l-49 -231q-16 -74 -16 -113q0 -58 41.5 -92t112.5 -34q83 0 131 53q21 23 35 60t32 121l51 242q15 69 15 100q0 13 -10 18.5t-37 7.5q-2 1 -15 1v22h162v-22q-23 -2 -33 -6t-15 -15q-7 -18 -31 -124l-51 -239
q-20 -95 -38.5 -138.5t-51.5 -73.5q-67 -59 -175 -59q-103 0 -162.5 48t-59.5 130q0 38 13 102l53 248q16 77 16 99q0 16 -11 21t-51 7v22zM444 742h-41l134 109q27 23 37 28.5t22 5.5q11 0 19 -7t8 -17q0 -22 -37 -42z" />
    <glyph glyph-name="Ucircumflex" unicode="&#xdb;" horiz-adv-x="698" 
d="M130 667h252v-22q-63 -1 -76 -16q-7 -3 -32 -117l-49 -231q-16 -74 -16 -113q0 -58 41.5 -92t112.5 -34q83 0 131 53q21 23 35 60t32 121l51 242q15 69 15 100q0 13 -10 18.5t-37 7.5q-2 1 -15 1v22h162v-22q-23 -2 -33 -6t-15 -15q-7 -18 -31 -124l-51 -239
q-20 -95 -38.5 -138.5t-51.5 -73.5q-67 -59 -175 -59q-103 0 -162.5 48t-59.5 130q0 38 13 102l53 248q16 77 16 99q0 16 -11 21t-51 7v22zM602 742h-36l-77 87l-125 -87h-39l147 143h45z" />
    <glyph glyph-name="Udieresis" unicode="&#xdc;" horiz-adv-x="698" 
d="M130 667h252v-22q-64 -1 -77 -16q-6 -4 -31 -117l-49 -231q-16 -75 -16 -113q0 -58 41.5 -92t112.5 -34q83 0 131 53q21 23 35 60t32 121l51 242q15 69 15 100q0 13 -10 18.5t-37 7.5q-2 1 -15 1v22h162v-22q-23 -2 -33 -6t-15 -15q-7 -18 -31 -124l-51 -239
q-20 -95 -38.5 -138.5t-50.5 -73.5q-68 -59 -175 -59q-101 0 -162 47t-61 126q0 40 13 107l53 248q16 74 16 99q0 16 -11 21t-51 7v22zM401 854q17 0 28.5 -13t11.5 -32q0 -23 -15.5 -40t-36.5 -17q-17 0 -28.5 13t-11.5 32q0 23 15.5 40t36.5 17zM571 854q17 0 28.5 -13
t11.5 -32q0 -23 -15.5 -40t-36.5 -17q-17 0 -28.5 13t-11.5 32q0 23 15.5 40t36.5 17z" />
    <glyph glyph-name="Yacute" unicode="&#xdd;" horiz-adv-x="578" 
d="M356 299l-31 -150q-17 -90 -17 -100q0 -13 10 -18.5t37 -7.5l15 -1v-22h-246v22q63 1 76 16q8 10 31 117l30 144l-85 222q-2 6 -13.5 34t-17.5 43q-11 28 -21 35t-41 10q-1 0 -3.5 0.5t-7 1t-7.5 0.5v22h241v-22q-44 -4 -49 -5q-14 -5 -14 -18q0 -9 17 -56l84 -227
l150 191q54 68 63 80.5t9 19.5q0 13 -29 14q-8 0 -23 1v22h173v-22q-38 -3 -58 -18.5t-78 -87.5zM391 742h-41l134 109q28 24 37 29t21 5q11 0 19 -7t8 -17q0 -21 -36 -42z" />
    <glyph glyph-name="Thorn" unicode="&#xde;" horiz-adv-x="559" 
d="M216 170l-4 -21q-17 -76 -17 -100q0 -15 11.5 -20t50.5 -7v-22h-230v22q42 1 54 20.5t35 124.5l74 350q17 77 17 100q0 14 -10 19.5t-37 7.5l-15 1v22h229v-22q-41 -1 -51.5 -13.5t-26.5 -84.5h61q112 0 154 -35q46 -38 46 -110q0 -61 -36 -117t-93 -83
q-37 -18 -81 -24.5t-131 -7.5zM290 518l-69 -323q114 3 158 36q32 24 53.5 76.5t21.5 107.5q0 105 -124 105q-22 0 -40 -2z" />
    <glyph glyph-name="germandbls" unicode="&#xdf;" horiz-adv-x="490" 
d="M238 372l8 32q57 10 105 62q57 65 57 134q0 35 -19.5 58t-50.5 23t-52 -23q-17 -19 -28 -48.5t-31 -108.5l-68 -271q-68 -276 -118 -358q-39 -65 -82 -65q-22 0 -36 14.5t-14 36.5q0 20 11.5 33t29.5 13q23 0 35 -25q3 -10 11 -10q10 0 19 35t53 244q1 3 1 5t1 4.5t1 4.5
l55 257q33 160 89 224q60 71 147 71q58 0 91.5 -29.5t33.5 -79.5q0 -61 -49 -114t-137 -87q58 -3 88 -21q58 -35 58 -126q0 -98 -69.5 -184t-149.5 -86q-48 0 -69 23q-10 10 -10 36q0 55 38 55q44 0 44 -28q0 -13 -4 -31v-6q0 -19 17 -19q23 0 48 20t43 52q32 58 32 133
q0 128 -129 150z" />
    <glyph glyph-name="agrave" unicode="&#xe0;" horiz-adv-x="479" 
d="M384 453h68q-24 -73 -50 -167l-43 -147q-21 -78 -21 -85q0 -15 14 -15q22 0 69 62l15 -11q-43 -60 -71.5 -84t-57.5 -24q-39 0 -39 38q0 17 16 81l13 50q-58 -92 -100.5 -131.5t-84.5 -39.5q-41 0 -65.5 31t-24.5 83q0 79 40 164t101.5 140t118.5 55q70 0 79 -79z
M285 428q-76 0 -143 -142q-43 -93 -43 -166q0 -32 15.5 -52t40.5 -20q46 0 108 87q38 53 61 111t23 98t-16.5 62t-45.5 22zM377 533h-32l-89 93q-25 25 -25 41q0 11 8.5 18.5t20.5 7.5q13 0 21.5 -7.5t20.5 -27.5z" />
    <glyph glyph-name="aacute" unicode="&#xe1;" horiz-adv-x="479" 
d="M384 453h68q-24 -73 -50 -167l-43 -147q-21 -78 -21 -85q0 -15 14 -15q22 0 69 62l15 -11q-43 -60 -71.5 -84t-57.5 -24q-39 0 -39 38q0 17 16 81l13 50q-58 -92 -100.5 -131.5t-84.5 -39.5q-41 0 -65.5 31t-24.5 83q0 79 40 164t101.5 140t118.5 55q70 0 79 -79z
M285 428q-76 0 -143 -142q-43 -93 -43 -166q0 -32 15.5 -52t40.5 -20q46 0 108 87q38 53 61 111t23 98t-16.5 62t-45.5 22zM306 534h-37l118 122q25 26 32.5 31.5t18.5 5.5t18.5 -8t7.5 -19q0 -19 -38 -46z" />
    <glyph glyph-name="acircumflex" unicode="&#xe2;" horiz-adv-x="479" 
d="M384 453h68q-24 -73 -50 -167l-43 -147q-21 -78 -21 -85q0 -15 14 -15q22 0 69 62l15 -11q-43 -60 -71.5 -84t-57.5 -24q-39 0 -39 38q0 17 16 81l13 50q-58 -92 -100.5 -131.5t-84.5 -39.5q-41 0 -65.5 31t-24.5 83q0 79 40 164t101.5 140t118.5 55q70 0 79 -79z
M285 428q-76 0 -143 -142q-43 -93 -43 -166q0 -32 15.5 -52t40.5 -20q46 0 108 87q38 53 61 111t23 98t-16.5 62t-45.5 22zM448 535h-32l-62 96l-115 -96h-34l137 157h38z" />
    <glyph glyph-name="atilde" unicode="&#xe3;" horiz-adv-x="479" 
d="M384 453h68q-24 -73 -50 -167l-43 -147q-21 -78 -21 -85q0 -15 14 -15q22 0 69 62l15 -11q-43 -60 -71.5 -84t-57.5 -24q-39 0 -39 38q0 17 16 81l13 50q-58 -92 -100.5 -131.5t-84.5 -39.5q-41 0 -65.5 31t-24.5 83q0 79 40 164t101.5 140t118.5 55q70 0 79 -79z
M285 428q-76 0 -143 -142q-43 -93 -43 -166q0 -32 15.5 -52t40.5 -20q46 0 108 87q38 53 61 111t23 98t-16.5 62t-45.5 22zM452 642h23q-24 -86 -83 -86q-17 0 -53 15l-30 13q-26 11 -40 11q-18 0 -41 -39h-25q14 41 20 52q9 14 26.5 24t33.5 10q17 0 45 -11l31 -13
q30 -14 40 -14q16 0 25 5.5t21 22.5q1 2 7 10z" />
    <glyph glyph-name="adieresis" unicode="&#xe4;" horiz-adv-x="479" 
d="M384 453h68q-24 -73 -50 -167l-43 -147q-21 -78 -21 -85q0 -15 14 -15q22 0 69 62l15 -11q-43 -60 -71.5 -84t-57.5 -24q-39 0 -39 38q0 17 16 81l13 50q-58 -92 -100.5 -131.5t-84.5 -39.5q-41 0 -65.5 31t-24.5 83q0 79 40 164t101.5 140t118.5 55q70 0 79 -79z
M285 428q-76 0 -143 -142q-43 -93 -43 -166q0 -32 15.5 -52t40.5 -20q46 0 108 87q38 53 61 111t23 98t-16.5 62t-45.5 22zM269 655q17 0 28.5 -13t11.5 -32q0 -23 -15.5 -40t-36.5 -17q-17 0 -28.5 13t-11.5 32q0 23 15.5 40t36.5 17zM425 655q17 0 28.5 -13t11.5 -32
q0 -23 -15.5 -40t-36.5 -17q-17 0 -28.5 13t-11.5 32q0 23 15.5 40t36.5 17z" />
    <glyph glyph-name="aring" unicode="&#xe5;" horiz-adv-x="479" 
d="M384 453h68q-24 -73 -50 -167l-43 -147q-21 -78 -21 -85q0 -15 14 -15q22 0 69 62l15 -11q-43 -60 -71.5 -84t-57.5 -24q-39 0 -39 38q0 17 16 81l13 50q-58 -92 -100.5 -131.5t-84.5 -39.5q-41 0 -65.5 31t-24.5 83q0 79 40 164t101.5 140t118.5 55q70 0 79 -79z
M285 428q-76 0 -143 -142q-43 -93 -43 -166q0 -32 15.5 -52t40.5 -20q46 0 108 87q38 53 61 111t23 98t-16.5 62t-45.5 22zM340 702q37 0 62.5 -26t25.5 -63q0 -36 -26 -61.5t-62 -25.5q-37 0 -62.5 25.5t-25.5 62.5t25.5 62.5t62.5 25.5zM340 664q-21 0 -35.5 -15
t-14.5 -35q0 -21 15 -35.5t35 -14.5t35 15t15 35q0 21 -14.5 35.5t-35.5 14.5z" />
    <glyph glyph-name="ae" unicode="&#xe6;" horiz-adv-x="673" 
d="M612 120l17 -10q-97 -130 -208 -130q-52 0 -83.5 30t-39.5 86q-100 -116 -186 -116q-45 0 -72.5 25.5t-27.5 68.5q0 80 80 126.5t228 51.5l17 51q13 42 13 63q0 25 -19.5 39.5t-53.5 14.5q-50 0 -71 -23q-9 -10 -16 -51q-10 -48 -55 -48q-17 0 -27.5 10t-10.5 26
q0 47 56 83t128 36q104 0 135 -80q90 80 161 80q39 0 63.5 -23.5t24.5 -60.5q0 -41 -31.5 -78.5t-87.5 -63.5q-76 -34 -174 -37q-8 -31 -8 -54q0 -42 29 -70.5t72 -28.5q68 0 147 83zM314 229q-99 -13 -160 -49.5t-61 -83.5q0 -24 16 -40t40 -16q32 0 71.5 25.5t74.5 68.5
q0 45 19 95zM376 210q101 17 162 61t61 100q0 21 -11 34t-29 13q-53 0 -117 -79q-36 -45 -66 -129z" />
    <glyph glyph-name="ccedilla" unicode="&#xe7;" horiz-adv-x="407" 
d="M164 -20l-21 -37q15 3 22 3q29 0 47 -17t18 -45q0 -34 -28.5 -55t-75.5 -21q-43 0 -86 21l11 26q34 -15 64 -15q53 0 53 38q0 16 -11 25.5t-30 9.5q-7 0 -22 -3l-9 8l39 67q-49 17 -72 46q-35 44 -35 111q0 115 90 213t196 98q50 0 78 -22t28 -61q0 -61 -44 -61
q-51 0 -51 26q0 8 10 38q6 16 6 29q0 28 -35 28q-69 0 -131.5 -87t-62.5 -183q0 -54 27.5 -87.5t72.5 -33.5q71 0 135 85l16 -10q-45 -70 -90 -102t-100 -32h-9z" />
    <glyph glyph-name="egrave" unicode="&#xe8;" horiz-adv-x="420" 
d="M353 135l20 -10q-88 -145 -207 -145q-64 0 -102.5 41.5t-38.5 110.5t35.5 136t100.5 120q80 65 160 65q45 0 71.5 -23t26.5 -63q0 -43 -35 -82.5t-94 -62.5q-75 -30 -181 -34q-3 -21 -3 -33q0 -51 28 -82t74 -31q73 0 145 93zM112 206q118 21 170 63q60 51 60 109
q0 22 -10.5 35t-27.5 13q-51 0 -115 -77q-49 -57 -77 -143zM361 533h-32l-89 93q-24 25 -24 41q0 11 8.5 18.5t20.5 7.5t20.5 -7t20.5 -28z" />
    <glyph glyph-name="eacute" unicode="&#xe9;" horiz-adv-x="420" 
d="M353 135l20 -10q-88 -145 -207 -145q-64 0 -102.5 41.5t-38.5 110.5t35.5 136t100.5 120q80 65 160 65q45 0 71.5 -23t26.5 -63q0 -43 -35 -82.5t-94 -62.5q-75 -30 -181 -34q-3 -21 -3 -33q0 -51 28 -82t74 -31q73 0 145 93zM112 206q118 21 170 63q60 51 60 109
q0 22 -10.5 35t-27.5 13q-51 0 -115 -77q-49 -57 -77 -143zM294 534h-37l118 122q26 27 33 32t18 5t18.5 -8t7.5 -19q0 -19 -38 -46z" />
    <glyph glyph-name="ecircumflex" unicode="&#xea;" horiz-adv-x="420" 
d="M353 135l20 -10q-88 -145 -207 -145q-64 0 -102.5 41.5t-38.5 110.5t35.5 136t100.5 120q80 65 160 65q45 0 71.5 -23t26.5 -63q0 -43 -35 -82.5t-94 -62.5q-75 -30 -181 -34q-3 -21 -3 -33q0 -51 28 -82t74 -31q73 0 145 93zM112 206q118 21 170 63q60 51 60 109
q0 22 -10.5 35t-27.5 13q-51 0 -115 -77q-49 -57 -77 -143zM429 535h-32l-62 96l-115 -96h-34l137 157h38z" />
    <glyph glyph-name="edieresis" unicode="&#xeb;" horiz-adv-x="420" 
d="M353 135l20 -10q-88 -145 -207 -145q-64 0 -102.5 41.5t-38.5 110.5t35.5 136t100.5 120q80 65 160 65q45 0 71.5 -23t26.5 -63q0 -43 -35 -82.5t-94 -62.5q-75 -30 -181 -34q-3 -21 -3 -33q0 -51 28 -82t74 -31q73 0 145 93zM112 206q118 21 170 63q60 51 60 109
q0 22 -10.5 35t-27.5 13q-51 0 -115 -77q-49 -57 -77 -143zM249 655q17 0 28.5 -13t11.5 -32q0 -23 -15.5 -40t-36.5 -17q-17 0 -28.5 13t-11.5 32q0 23 15.5 40t36.5 17zM406 655q17 0 28.5 -13t11.5 -32q0 -23 -15.5 -40t-36.5 -17q-17 0 -28.5 13t-11.5 32q0 23 15.5 40
t36.5 17z" />
    <glyph glyph-name="igrave" unicode="&#xec;" horiz-adv-x="261" 
d="M216 119l16 -11q-73 -121 -131 -121q-22 0 -34.5 13t-12.5 35q0 14 12 73l43 203q2 8 4 17.5t3.5 15t2.5 8.5q4 22 4 28q0 15 -28 15h-31v18l153 50q-13 -46 -32 -135l-29 -139q-20 -94 -20 -111q0 -20 13 -20q24 0 67 61zM229 533h-33l-82 93q-13 15 -15 21q-6 18 -6 21
q0 10 8.5 17.5t20.5 7.5q14 0 19.5 -5.5t18.5 -29.5z" />
    <glyph glyph-name="iacute" unicode="&#xed;" horiz-adv-x="261" 
d="M216 119l16 -11q-73 -121 -131 -121q-22 0 -34.5 13t-12.5 35q0 18 12 73l43 203q2 8 4 17.5t3.5 15t2.5 8.5q4 22 4 28q0 9 -6 12t-23 3h-30v18l153 50q-16 -57 -32 -135l-29 -139q-20 -94 -20 -111q0 -20 13 -20q24 0 67 61zM174 534h-36l104 122q20 25 28 31t20 6
q11 0 18.5 -8t7.5 -19q0 -18 -35 -46z" />
    <glyph glyph-name="icircumflex" unicode="&#xee;" horiz-adv-x="261" 
d="M216 119l17 -11q-74 -121 -132 -121q-22 0 -34.5 13t-12.5 35q0 17 12 73l43 203q2 8 4.5 18.5t4.5 16.5l1 6q4 22 4 28q0 9 -6 12t-23 3h-30v18l153 50q-16 -57 -32 -135l-29 -139q-20 -94 -20 -111q0 -20 13 -20q24 0 67 61zM303 535h-32l-62 96l-115 -96h-34l137 157
h38z" />
    <glyph glyph-name="idieresis" unicode="&#xef;" horiz-adv-x="261" 
d="M216 119l17 -11q-74 -121 -132 -121q-22 0 -34.5 13t-12.5 35q0 17 12 73l43 203q2 8 4.5 18.5t4.5 16.5l1 6q4 22 4 28q0 9 -6 12t-23 3h-30v18l153 50q-16 -57 -32 -135l-29 -139q-20 -94 -20 -111q0 -20 13 -20q24 0 67 61zM135 655q17 0 28.5 -13t11.5 -32
q0 -23 -15.5 -40t-36.5 -17q-17 0 -28.5 13t-11.5 32q0 23 15.5 40t36.5 17zM279 655q17 0 28.5 -13t11.5 -32q0 -23 -15.5 -40t-36.5 -17q-17 0 -28.5 13t-11.5 32q0 23 15.5 40t36.5 17z" />
    <glyph glyph-name="eth" unicode="&#xf0;" horiz-adv-x="490" 
d="M311 592l-78 -39l-21 29l80 42q-32 38 -53 57l37 27q4 -4 8.5 -8t7 -6t3.5 -3l31 -32l12 -13l77 40l23 -28l-78 -41q49 -66 77 -146.5t28 -155.5q0 -134 -81.5 -234.5t-189.5 -100.5q-74 0 -119.5 48t-45.5 125q0 107 86 203.5t182 96.5q50 0 80 -38q-3 38 -22 89t-44 88
zM296 423q-68 0 -125 -88t-57 -194q0 -55 27 -89.5t70 -34.5q53 0 96 56q29 39 50 104t21 119q0 60 -21.5 93.5t-60.5 33.5z" />
    <glyph glyph-name="ntilde" unicode="&#xf1;" horiz-adv-x="532" 
d="M118 0h-79l62 267q23 103 23 114q0 17 -35 17q-13 0 -21 -1v18l153 48q-1 -6 -2.5 -12t-3 -10.5t-1.5 -5.5q-4 -18 -14 -54q-6 -25 -15 -67l-14 -63q86 102 130 138q70 58 121 58q24 0 38 -13t14 -35q0 -21 -19 -85l-53 -182q-12 -46 -12 -55q0 -20 17 -20q25 0 75 63
l14 -14q-83 -119 -141 -119q-19 0 -32.5 13.5t-13.5 32.5q0 23 16 79l53 183q16 60 16 66q0 21 -21 21q-31 0 -90 -47t-119 -121zM448 642h22q-24 -86 -83 -86q-16 0 -52 15l-31 13q-27 11 -40 11q-17 0 -41 -39h-24q12 40 19 52q9 14 26.5 24t33.5 10q17 0 45 -11l31 -13
q30 -14 40 -14q16 0 25 5.5t21 22.5q2 4 8 10z" />
    <glyph glyph-name="ograve" unicode="&#xf2;" horiz-adv-x="490" 
d="M307 453q71 0 113.5 -45.5t42.5 -122.5q0 -60 -33 -129t-82 -113q-72 -63 -154 -63q-74 0 -119.5 48t-45.5 125q0 111 87.5 205.5t190.5 94.5zM296 423q-68 0 -125 -87.5t-57 -192.5q0 -56 27 -91t71 -35q52 0 95 56q29 39 50 104t21 119q0 60 -21.5 93.5t-60.5 33.5z
M360 533h-33l-88 93q-25 25 -25 41q0 11 8.5 18.5t20.5 7.5q21 0 42 -35z" />
    <glyph glyph-name="oacute" unicode="&#xf3;" horiz-adv-x="490" 
d="M307 453q71 0 113.5 -45.5t42.5 -122.5q0 -60 -33 -129t-82 -113q-72 -63 -154 -63q-74 0 -119.5 48t-45.5 125q0 111 87.5 205.5t190.5 94.5zM296 423q-68 0 -125 -87.5t-57 -192.5q0 -56 27 -91t71 -35q52 0 95 56q29 39 50 104t21 119q0 60 -21.5 93.5t-60.5 33.5z
M295 534h-36l118 122q25 26 32.5 31.5t18.5 5.5t18.5 -8t7.5 -19q0 -18 -38 -46z" />
    <glyph glyph-name="ocircumflex" unicode="&#xf4;" horiz-adv-x="490" 
d="M307 453q71 0 113.5 -45.5t42.5 -122.5q0 -60 -33 -129t-82 -113q-72 -63 -154 -63q-74 0 -119.5 48t-45.5 125q0 111 87.5 205.5t190.5 94.5zM296 423q-68 0 -125 -87.5t-57 -192.5q0 -56 27 -91t71 -35q52 0 95 56q29 39 50 104t21 119q0 60 -21.5 93.5t-60.5 33.5z
M434 535h-32l-62 96l-115 -96h-34l137 157h39z" />
    <glyph glyph-name="otilde" unicode="&#xf5;" horiz-adv-x="490" 
d="M307 453q71 0 113.5 -45.5t42.5 -122.5q0 -60 -33 -129t-82 -113q-72 -63 -154 -63q-74 0 -119.5 48t-45.5 125q0 111 87.5 205.5t190.5 94.5zM296 423q-68 0 -125 -87.5t-57 -192.5q0 -56 27 -91t71 -35q52 0 95 56q29 39 50 104t21 119q0 60 -21.5 93.5t-60.5 33.5z
M444 642h23q-24 -86 -84 -86q-16 0 -52 15l-30 13q-28 11 -40 11q-10 0 -19 -8t-23 -31h-24q13 40 20 52q9 14 26 24t34 10q16 0 44 -11l31 -13q31 -14 41 -14q16 0 24.5 5.5t20.5 22.5q0 1 1.5 2.5l3.5 3.5t3 4z" />
    <glyph glyph-name="odieresis" unicode="&#xf6;" horiz-adv-x="490" 
d="M307 453q71 0 113.5 -45.5t42.5 -122.5q0 -60 -33 -129t-82 -113q-72 -63 -154 -63q-74 0 -119.5 48t-45.5 125q0 111 87.5 205.5t190.5 94.5zM296 423q-68 0 -125 -87.5t-57 -192.5q0 -56 27 -91t71 -35q52 0 95 56q29 39 50 104t21 119q0 60 -21.5 93.5t-60.5 33.5z
M254 655q17 0 28.5 -13t11.5 -32q0 -23 -15.5 -40t-36.5 -17q-17 0 -28.5 13t-11.5 32q0 23 15.5 40t36.5 17zM410 655q17 0 28.5 -13t11.5 -32q0 -23 -15.5 -40t-35.5 -17q-17 0 -28.5 13t-11.5 32q0 23 15.5 40t35.5 17z" />
    <glyph glyph-name="divide" unicode="&#xf7;" horiz-adv-x="540" 
d="M294 559q18 0 30.5 -13t12.5 -30t-13 -30t-30 -13q-18 0 -30.5 12.5t-12.5 30.5t12.5 30.5t30.5 12.5zM294 189q18 0 30.5 -12.5t12.5 -30.5t-12.5 -30.5t-30.5 -12.5q-17 0 -30 13t-13 30q0 18 12.5 30.5t30.5 12.5zM77 359h433v-54h-433v54z" />
    <glyph glyph-name="oslash" unicode="&#xf8;" horiz-adv-x="490" 
d="M71 30l-50 -48l-27 27l54 55q-19 45 -19 89q0 112 87.5 206t191.5 94q55 0 98 -33l56 55l26 -26l-55 -56q30 -46 30 -102q0 -64 -32.5 -133.5t-82.5 -114.5q-72 -63 -155 -63q-66 0 -122 50zM374 343l-248 -265q9 -27 32.5 -44t52.5 -17q53 0 96 56q31 42 51 107t20 125
q0 14 -4 38zM115 121l245 262q-19 40 -64 40q-72 0 -129 -94q-23 -39 -38 -89.5t-15 -90.5q0 -16 1 -28z" />
    <glyph glyph-name="ugrave" unicode="&#xf9;" horiz-adv-x="525" 
d="M415 460h80l-58 -196q-46 -154 -46 -178q0 -19 14 -19q27 0 68 60l17 -13q-39 -57 -56 -76q-41 -50 -81 -50q-19 0 -31 14.5t-12 36.5q0 17 12 60l28 103q-128 -215 -231 -215q-33 0 -53 17.5t-20 46.5q0 21 20 102l42 168q0 1 1.5 5.5t3 10.5t2.5 12q8 28 8 38
q0 12 -23 12q-1 0 -31 -2v22l148 44l-65 -260q-23 -91 -23 -110q0 -39 34 -39t81 46.5t118 149.5zM373 533h-32l-88 93q-25 26 -25 41q0 11 8.5 18.5t20.5 7.5q21 0 42 -35z" />
    <glyph glyph-name="uacute" unicode="&#xfa;" horiz-adv-x="525" 
d="M415 460h80l-58 -196q-46 -154 -46 -178q0 -19 14 -19q27 0 68 60l17 -13q-39 -57 -56 -76q-41 -50 -81 -50q-19 0 -31 14.5t-12 36.5q0 17 12 60l28 103q-128 -215 -231 -215q-33 0 -53 17.5t-20 46.5q0 21 20 102l42 168q0 1 1.5 5.5t3 10.5t2.5 12q8 28 8 38
q0 12 -23 12q-1 0 -31 -2v22l148 44l-65 -260q-23 -91 -23 -110q0 -39 34 -39t81 46.5t118 149.5zM312 534h-36l118 122q26 27 33 32t18 5t18.5 -8t7.5 -19q0 -18 -38 -46z" />
    <glyph glyph-name="ucircumflex" unicode="&#xfb;" horiz-adv-x="525" 
d="M415 460h80l-58 -196q-46 -154 -46 -178q0 -19 14 -19q27 0 68 60l17 -13q-39 -57 -56 -76q-41 -50 -81 -50q-19 0 -31 14.5t-12 36.5q0 17 12 60l28 103q-128 -215 -231 -215q-33 0 -53 17.5t-20 46.5q0 21 20 102l42 168q0 1 1.5 5.5t3 10.5t2.5 12q8 28 8 38
q0 12 -23 12q-1 0 -31 -2v22l148 44l-65 -260q-23 -91 -23 -110q0 -39 34 -39t81 46.5t118 149.5zM448 535h-32l-62 96l-115 -96h-34l137 157h38z" />
    <glyph glyph-name="udieresis" unicode="&#xfc;" horiz-adv-x="525" 
d="M415 460h80l-58 -196q-46 -154 -46 -178q0 -19 14 -19q27 0 68 60l17 -13q-39 -57 -56 -76q-41 -50 -81 -50q-19 0 -31 14.5t-12 36.5q0 17 12 60l28 103q-128 -215 -231 -215q-33 0 -53 17.5t-20 46.5q0 21 20 102l42 168q0 1 1.5 5.5t3 10.5t2.5 12q8 28 8 38
q0 12 -23 12q-1 0 -31 -2v22l148 44l-65 -260q-23 -91 -23 -110q0 -39 34 -39t81 46.5t118 149.5zM268 655q17 0 28.5 -13t11.5 -32q0 -23 -15.5 -40t-36.5 -17q-17 0 -28.5 13t-11.5 32q0 23 15.5 40t36.5 17zM425 655q17 0 28.5 -13t11.5 -32q0 -23 -15.5 -40t-36.5 -17
q-17 0 -28.5 13t-11.5 32q0 23 15.5 40t36.5 17z" />
    <glyph glyph-name="yacute" unicode="&#xfd;" horiz-adv-x="455" 
d="M35 400l116 60q44 -62 83 -187.5t40 -204.5q43 73 76 156.5t33 121.5q0 11 -4.5 15t-18.5 7q-24 4 -24 35q0 30 9 40.5t34 10.5q34 0 49 -12t15 -40q0 -63 -61.5 -194.5t-144.5 -244.5q-79 -107 -125 -139q-25 -17 -52 -17q-22 0 -31 13t-9 47q0 28 7 37t30 9
q18 0 25.5 -5t11.5 -20q4 -14 14 -14q14 0 46.5 34t64.5 82q-13 133 -70 291q-25 68 -36 88.5t-23 20.5q-13 0 -48 -11zM275 534h-37l118 122q25 26 32.5 31.5t18.5 5.5t18.5 -8t7.5 -19q0 -19 -38 -46z" />
    <glyph glyph-name="thorn" unicode="&#xfe;" horiz-adv-x="479" 
d="M116 74l-40 -187q-8 -39 -8 -45q0 -13 11.5 -17t46.5 -6v-22h-168v21q16 2 22 6.5t11 16.5q1 2 14 59q3 12 9 38q3 14 9 40l123 577q9 47 9 68q0 10 -6 13t-24 3q-19 0 -30 -1v19l161 50q-23 -83 -30 -115l-52 -243q44 53 81.5 75.5t80.5 22.5q53 0 84 -33t31 -91
q0 -59 -23.5 -126t-63.5 -119q-69 -91 -148 -91q-38 0 -62.5 20.5t-37.5 66.5zM166 312l-30 -142q-5 -25 -5 -52q0 -42 21 -65.5t59 -23.5q63 0 111 91q47 91 47 177q0 43 -20.5 68t-55.5 25q-29 0 -58 -17.5t-69 -60.5z" />
    <glyph glyph-name="ydieresis" unicode="&#xff;" horiz-adv-x="455" 
d="M35 400l116 60q44 -62 83 -187.5t40 -204.5q43 73 76 156.5t33 121.5q0 11 -4.5 15t-18.5 7q-24 4 -24 35q0 30 9 40.5t34 10.5q34 0 49 -12t15 -40q0 -63 -61.5 -194.5t-144.5 -244.5q-79 -107 -125 -139q-25 -17 -52 -17q-22 0 -31 13t-9 47q0 28 7 37t30 9
q18 0 25.5 -5t11.5 -20q4 -14 14 -14q14 0 46.5 34t64.5 82q-13 133 -70 291q-25 68 -36 88.5t-23 20.5q-13 0 -48 -11zM223 655q17 0 28.5 -13t11.5 -32q0 -23 -15.5 -40t-36.5 -17q-17 0 -28.5 13t-11.5 32q0 23 15.5 40t36.5 17zM379 655q17 0 28.5 -13t11.5 -32
q0 -23 -15.5 -40t-36.5 -17q-17 0 -28.5 13t-11.5 32q0 23 15.5 40t36.5 17z" />
    <glyph glyph-name="Amacron" unicode="&#x100;" horiz-adv-x="617" 
d="M403 228h-230l-88 -143q-19 -32 -19 -43t10 -15t41 -5v-22h-155v22q29 3 42 16q9 8 32 44l57 87l328 523h17l66 -515q12 -88 16 -109t12 -32q9 -11 52 -14v-22h-220v22h12q29 1 37.5 6.5t8.5 25.5q0 16 -3 44zM399 261l-33 281l-172 -281h205zM589 818l-12 -50h-272
l12 50h272z" />
    <glyph glyph-name="amacron" unicode="&#x101;" horiz-adv-x="479" 
d="M384 453h68q-24 -73 -50 -167l-43 -147q-21 -78 -21 -85q0 -15 14 -15q22 0 69 62l15 -11q-43 -60 -71.5 -84t-57.5 -24q-39 0 -39 38q0 17 16 81l13 50q-58 -92 -100.5 -131.5t-84.5 -39.5q-41 0 -65.5 31t-24.5 83q0 79 40 164t101.5 140t118.5 55q70 0 79 -79z
M285 428q-76 0 -143 -142q-43 -93 -43 -166q0 -32 15.5 -52t40.5 -20q46 0 108 87q38 53 61 111t23 98t-16.5 62t-45.5 22zM468 619l-11 -50h-249l12 50h248z" />
    <glyph glyph-name="Abreve" unicode="&#x102;" horiz-adv-x="617" 
d="M403 228h-230l-88 -143q-19 -32 -19 -43t10 -15t41 -5v-22h-155v22q29 3 42 16q9 8 32 44l57 87l328 523h17l66 -515q12 -88 16 -109t12 -32q9 -11 52 -14v-22h-220v22h12q29 1 37.5 6.5t8.5 25.5q0 16 -3 44zM399 261l-33 281l-172 -281h205zM572 878h24
q-10 -34 -47 -72q-51 -56 -116 -56q-97 0 -97 128h23q14 -73 95 -73q32 0 58.5 16.5t59.5 56.5z" />
    <glyph glyph-name="abreve" unicode="&#x103;" horiz-adv-x="479" 
d="M384 453h68q-24 -73 -50 -167l-43 -147q-21 -78 -21 -85q0 -15 14 -15q22 0 69 62l15 -11q-43 -60 -71.5 -84t-57.5 -24q-39 0 -39 38q0 17 16 81l13 50q-58 -92 -100.5 -131.5t-84.5 -39.5q-41 0 -65.5 31t-24.5 83q0 79 40 164t101.5 140t118.5 55q70 0 79 -79z
M285 428q-76 0 -143 -142q-43 -93 -43 -166q0 -32 15.5 -52t40.5 -20q46 0 108 87q38 53 61 111t23 98t-16.5 62t-45.5 22zM454 675h24q-11 -37 -48 -75q-51 -55 -109 -55q-50 0 -75 45q-16 31 -15 85h23q5 -36 27.5 -56t57.5 -20q31 0 61.5 20.5t53.5 55.5z" />
    <glyph glyph-name="Aogonek" unicode="&#x104;" horiz-adv-x="617" 
d="M584 0h-20q-78 -54 -78 -91q0 -14 12 -23t32 -9t43 6l-16 -39q-34 -11 -58 -11q-34 0 -54.5 16.5t-20.5 43.5q0 53 88 107h-148v22h12q29 1 37.5 6.5t8.5 25.5q0 16 -3 44l-16 130h-230l-88 -143q-19 -32 -19 -44q0 -11 10 -14.5t41 -4.5v-22h-155v22q29 3 42 16
q9 8 32 44l57 87l328 523h17l66 -515q12 -88 16 -109t12 -32q9 -13 52 -14v-22zM399 261l-33 281l-172 -281h205z" />
    <glyph glyph-name="aogonek" unicode="&#x105;" horiz-adv-x="479" 
d="M390 -119l-15 -37q-30 -11 -55 -11q-35 0 -56 16.5t-21 43.5q0 25 12 42t52 46q-22 2 -30.5 10.5t-8.5 28.5q0 18 16 81l13 50q-58 -92 -100.5 -131.5t-84.5 -39.5q-41 0 -65.5 31t-24.5 83q0 79 40 164t101.5 140t118.5 55q70 0 79 -79l23 79h68q-24 -73 -50 -167
l-43 -147q-21 -78 -21 -85q0 -15 14 -15q22 0 69 62l15 -11q-29 -41 -77 -94q-56 -59 -56 -91q0 -30 44 -30q20 0 43 6zM285 428q-76 0 -143 -142q-43 -93 -43 -166q0 -32 15.5 -52t40.5 -20q46 0 108 87q38 53 61 111t23 98t-16.5 62t-45.5 22z" />
    <glyph glyph-name="Cacute" unicode="&#x106;" horiz-adv-x="621" 
d="M652 647l-44 -208h-21q1 10 1 25q0 86 -38 133t-108 47q-110 0 -196 -116t-86 -266q0 -97 52 -159.5t134 -62.5q122 0 204 124l21 -6q-51 -87 -114.5 -127.5t-149.5 -40.5q-115 0 -183 68.5t-68 184.5q0 96 41 186.5t112 152.5q109 95 229 95q44 0 117 -21q51 -16 69 -16
q10 0 28 7zM449 742h-41l134 109q28 24 37 29t21 5q11 0 19 -7t8 -17q0 -21 -36 -42z" />
    <glyph glyph-name="cacute" unicode="&#x107;" horiz-adv-x="407" 
d="M347 124l16 -10q-85 -134 -189 -134q-65 0 -105.5 45t-40.5 118q0 66 35.5 133.5t95.5 116.5q75 60 155 60q50 0 78 -22t28 -61q0 -61 -44 -61q-51 0 -51 26q0 8 10 38q6 16 6 29q0 28 -35 28q-69 0 -131.5 -87t-62.5 -183q0 -55 27.5 -88.5t72.5 -33.5q72 0 135 86z
M307 534h-36l117 122q25 26 33 31.5t19 5.5t18.5 -8t7.5 -19q0 -19 -39 -46z" />
    <glyph glyph-name="Ccircumflex" unicode="&#x108;" horiz-adv-x="621" 
d="M652 647l-44 -208h-21q1 10 1 25q0 86 -38 133t-108 47q-110 0 -196 -116t-86 -266q0 -97 52 -159.5t134 -62.5q122 0 204 124l21 -6q-51 -87 -114.5 -127.5t-149.5 -40.5q-115 0 -183 68.5t-68 184.5q0 96 41 186.5t112 152.5q109 95 229 95q44 0 117 -21q51 -16 69 -16
q10 0 28 7zM604 742h-37l-76 87l-126 -87h-38l147 143h44z" />
    <glyph glyph-name="Cdotaccent" unicode="&#x10a;" horiz-adv-x="621" 
d="M652 647l-44 -208h-21q1 10 1 25q0 86 -38 133t-108 47q-110 0 -196 -116t-86 -266q0 -97 52 -159.5t134 -62.5q122 0 204 124l21 -6q-51 -87 -114.5 -127.5t-149.5 -40.5q-115 0 -183 68.5t-68 184.5q0 96 41 186.5t112 152.5q109 95 229 95q44 0 117 -21q51 -16 69 -16
q10 0 28 7zM484 854q17 0 28.5 -13t11.5 -32q0 -23 -15.5 -40t-36.5 -17q-17 0 -28.5 13t-11.5 32q0 23 15.5 40t36.5 17z" />
    <glyph glyph-name="cdotaccent" unicode="&#x10b;" horiz-adv-x="407" 
d="M347 124l16 -10q-85 -134 -189 -134q-65 0 -105.5 45t-40.5 118q0 66 35.5 133.5t95.5 116.5q75 60 155 60q50 0 78 -22t28 -61q0 -61 -44 -61q-51 0 -51 26q0 8 10 38q6 16 6 29q0 28 -35 28q-69 0 -131.5 -87t-62.5 -183q0 -55 27.5 -88.5t72.5 -33.5q72 0 135 86z
M340 655q17 0 28.5 -13t11.5 -32q0 -23 -15.5 -40t-36.5 -17q-17 0 -28.5 13t-11.5 32q0 23 15.5 40t36.5 17z" />
    <glyph glyph-name="Ccaron" unicode="&#x10c;" horiz-adv-x="621" 
d="M652 647l-44 -208h-21q1 10 1 25q0 86 -38 133t-108 47q-110 0 -196 -116t-86 -266q0 -97 52 -159.5t134 -62.5q122 0 204 124l21 -6q-51 -87 -114.5 -127.5t-149.5 -40.5q-115 0 -183 68.5t-68 184.5q0 96 41 186.5t112 152.5q109 95 229 95q44 0 117 -21q51 -16 69 -16
q10 0 28 7zM357 885h36l77 -87l126 87h38l-147 -143h-44z" />
    <glyph glyph-name="ccaron" unicode="&#x10d;" horiz-adv-x="407" 
d="M347 124l16 -10q-85 -134 -189 -134q-65 0 -105.5 45t-40.5 118q0 66 35.5 133.5t95.5 116.5q75 60 155 60q50 0 78 -22t28 -61q0 -61 -44 -61q-51 0 -51 26q0 8 10 38q6 16 6 29q0 28 -35 28q-69 0 -131.5 -87t-62.5 -183q0 -55 27.5 -88.5t72.5 -33.5q72 0 135 86z
M233 692h32l62 -96l115 96h34l-137 -157h-38z" />
    <glyph glyph-name="Dcaron" unicode="&#x10e;" horiz-adv-x="726" 
d="M29 0v22q24 1 33.5 5.5t14.5 15.5q8 18 32 124l74 350q17 79 17 100q0 16 -11 21t-51 7v22h279q139 0 202 -40q46 -29 71 -82.5t25 -122.5q0 -82 -31 -159.5t-87 -135.5q-120 -127 -336 -127h-232zM308 636l-97 -454q-20 -98 -20 -123q0 -18 15.5 -25t57.5 -7
q150 0 240 102q49 56 76.5 131t27.5 154q0 110 -58.5 168t-169.5 58q-28 0 -72 -4zM330 885h36l77 -87l125 87h38l-147 -143h-44z" />
    <glyph glyph-name="dcaron" unicode="&#x10f;" horiz-adv-x="591" 
d="M450 117l17 -12q-77 -123 -134 -123q-20 0 -32 13t-12 34q0 23 20 111q-41 -75 -74 -109q-51 -51 -104 -51q-48 0 -76.5 36.5t-28.5 97.5q0 79 37 158.5t95.5 130t116.5 50.5q35 0 54 -19t29 -63l19 92q31 137 31 156q0 9 -5.5 12t-22.5 3q-1 0 -35 -2v21l164 54
q-22 -75 -39 -151l-76 -359q-22 -102 -22 -121q0 -17 11 -17q29 0 67 58zM323 209l25 115q-6 99 -68 99q-60 0 -115 -90t-55 -190q0 -45 17.5 -70.5t47.5 -25.5q71 0 148 162zM547 530l-9 18q76 29 83 97q-18 -22 -37 -22q-30 0 -30 30q0 22 17 38t40 16q41 0 41 -50
q0 -43 -27.5 -76.5t-77.5 -50.5z" />
    <glyph glyph-name="Dcroat" unicode="&#x110;" horiz-adv-x="726" 
d="M142 324h-66v37h74l33 156q17 81 17 100q0 16 -11 21t-51 7v22h280q138 0 201 -40q46 -29 71 -82.5t25 -122.5q0 -82 -31 -160t-86 -136q-122 -126 -337 -126h-232v22q24 1 33.5 5.5t14.5 15.5q8 17 32 124zM242 324l-31 -142q-20 -95 -20 -123q0 -19 15.5 -25.5
t57.5 -6.5q150 0 240 101q49 55 76.5 131t27.5 154q0 111 -58.5 169t-169.5 58q-28 0 -72 -4l-58 -275h162v-37h-170z" />
    <glyph glyph-name="dcroat" unicode="&#x111;" horiz-adv-x="497" 
d="M538 563v-37h-74l-70 -329q-22 -103 -22 -121q0 -17 11 -17q28 0 67 58l17 -12q-76 -123 -134 -123q-20 0 -32 13t-12 34q0 28 20 111q-42 -76 -75 -109q-50 -51 -103 -51q-48 0 -76.5 36.5t-28.5 97.5q0 122 79.5 230.5t168.5 108.5q35 0 54.5 -19t29.5 -63l33 155h-133
v37h141q9 43 9 56q0 8 -6 11t-22 3q-18 0 -35 -1v21l164 53q-26 -90 -37 -143h66zM323 209l25 115q-6 99 -68 99q-61 0 -115.5 -90t-54.5 -190q0 -45 17.5 -70.5t47.5 -25.5q71 0 148 162z" />
    <glyph glyph-name="Emacron" unicode="&#x112;" horiz-adv-x="602" 
d="M598 667l-20 -153h-21q0 79 -23.5 99.5t-113.5 20.5h-113l-58 -271h91q72 0 92 11.5t33 63.5h22l-42 -195h-21q4 35 4 48q0 28 -13.5 33.5t-76.5 5.5h-96l-63 -297h108q114 0 163.5 27.5t75.5 106.5h24l-41 -167h-486v21q41 2 51.5 20.5t33.5 125.5l75 350q18 89 18 101
q0 14 -10 20t-37 7q-8 0 -15 1v21h459zM566 818l-12 -50h-272l12 50h272z" />
    <glyph glyph-name="emacron" unicode="&#x113;" horiz-adv-x="420" 
d="M353 135l20 -10q-88 -145 -207 -145q-64 0 -102.5 41.5t-38.5 110.5t35.5 136t100.5 120q80 65 160 65q45 0 71.5 -23t26.5 -63q0 -43 -35 -82.5t-94 -62.5q-75 -30 -181 -34q-3 -21 -3 -33q0 -51 28 -82t74 -31q73 0 145 93zM112 206q118 21 170 63q60 51 60 109
q0 22 -10.5 35t-27.5 13q-51 0 -115 -77q-49 -57 -77 -143zM447 619l-11 -50h-249l12 50h248z" />
    <glyph glyph-name="Ebreve" unicode="&#x114;" horiz-adv-x="602" 
d="M598 667l-20 -153h-21q0 79 -23.5 99.5t-113.5 20.5h-113l-58 -271h91q72 0 92 11.5t33 63.5h22l-42 -195h-21q4 35 4 48q0 28 -13.5 33.5t-76.5 5.5h-96l-63 -297h108q114 0 163.5 27.5t75.5 106.5h24l-41 -167h-486v21q41 2 51.5 20.5t33.5 125.5l75 350q18 89 18 101
q0 14 -10 20t-37 7q-8 0 -15 1v21h459zM547 878h24q-12 -34 -47 -72q-53 -56 -116 -56q-98 0 -98 128h24q14 -73 94 -73q33 0 59.5 16.5t59.5 56.5z" />
    <glyph glyph-name="ebreve" unicode="&#x115;" horiz-adv-x="420" 
d="M353 135l20 -10q-88 -145 -207 -145q-64 0 -102.5 41.5t-38.5 110.5t35.5 136t100.5 120q80 65 160 65q45 0 71.5 -23t26.5 -63q0 -43 -35 -82.5t-94 -62.5q-75 -30 -181 -34q-3 -21 -3 -33q0 -51 28 -82t74 -31q73 0 145 93zM112 206q118 21 170 63q60 51 60 109
q0 22 -10.5 35t-27.5 13q-51 0 -115 -77q-49 -57 -77 -143zM438 675h24q-16 -52 -63 -91t-94 -39q-51 0 -74 45q-16 31 -16 85h23q5 -36 27.5 -56t57.5 -20q31 0 62 20.5t53 55.5z" />
    <glyph glyph-name="Edotaccent" unicode="&#x116;" horiz-adv-x="602" 
d="M598 667l-20 -153h-21q0 79 -23.5 99.5t-113.5 20.5h-113l-58 -271h91q72 0 92 11.5t33 63.5h22l-42 -195h-21q4 35 4 48q0 28 -13.5 33.5t-76.5 5.5h-96l-63 -297h108q114 0 163.5 27.5t75.5 106.5h24l-41 -167h-486v21q41 2 51.5 20.5t33.5 125.5l75 350q18 89 18 101
q0 14 -10 20t-37 7q-8 0 -15 1v21h459zM430 854q17 0 28.5 -13t11.5 -32q0 -23 -15.5 -40t-36.5 -17q-17 0 -28.5 13t-11.5 32q0 23 15.5 40t36.5 17z" />
    <glyph glyph-name="edotaccent" unicode="&#x117;" horiz-adv-x="420" 
d="M353 135l20 -10q-88 -145 -207 -145q-64 0 -102.5 41.5t-38.5 110.5t35.5 136t100.5 120q80 65 160 65q45 0 71.5 -23t26.5 -63q0 -43 -35 -82.5t-94 -62.5q-75 -30 -181 -34q-3 -21 -3 -33q0 -51 28 -82t74 -31q73 0 145 93zM112 206q118 21 170 63q60 51 60 109
q0 22 -10.5 35t-27.5 13q-51 0 -115 -77q-49 -57 -77 -143zM328 655q17 0 28.5 -13t11.5 -32q0 -23 -15.5 -40t-36.5 -17q-17 0 -28.5 13t-11.5 32q0 23 15.5 40t36.5 17z" />
    <glyph glyph-name="Eogonek" unicode="&#x118;" horiz-adv-x="602" 
d="M509 0h-20q-78 -54 -78 -91q0 -14 12 -23t31 -9q21 0 43 6l-15 -39q-34 -11 -58 -11q-34 0 -54.5 16.5t-20.5 43.5q0 52 88 107h-414v21q26 2 36 6.5t16 15.5q10 21 33 124l75 350q18 89 18 101q0 14 -10 20t-37 7l-15 1v21h459l-20 -153h-21q0 79 -23.5 99.5
t-113.5 20.5h-113l-58 -271h91q72 0 92 11.5t33 63.5h22l-42 -195h-21q4 35 4 49q0 27 -13.5 32.5t-76.5 5.5h-96l-63 -297h108q113 0 162.5 27.5t76.5 106.5h24z" />
    <glyph glyph-name="eogonek" unicode="&#x119;" horiz-adv-x="420" 
d="M289 -119l-15 -37q-32 -11 -56 -11q-35 0 -56 16.5t-21 43.5q0 25 14.5 45t52.5 47q-22 -5 -39 -5q-66 0 -105 40.5t-39 110.5t35.5 137.5t100.5 119.5q80 65 160 65q45 0 71.5 -23t26.5 -63q0 -43 -35 -82.5t-94 -62.5q-75 -30 -181 -34q-3 -21 -3 -33q0 -51 28 -82
t74 -31q73 0 145 93l20 -10q-21 -35 -38.5 -55t-68.5 -68q-65 -62 -65 -97q0 -30 44 -30q21 0 44 6zM112 206q118 21 170 63q60 51 60 109q0 22 -10.5 35t-27.5 13q-51 0 -115 -77q-49 -57 -77 -143z" />
    <glyph glyph-name="Ecaron" unicode="&#x11a;" horiz-adv-x="602" 
d="M598 667l-20 -153h-21q0 79 -23.5 99.5t-113.5 20.5h-113l-58 -271h91q72 0 92 11.5t33 63.5h22l-42 -195h-21q4 35 4 48q0 28 -13.5 33.5t-76.5 5.5h-96l-63 -297h108q114 0 163.5 27.5t75.5 106.5h24l-41 -167h-486v21q41 2 51.5 20.5t33.5 125.5l75 350q18 89 18 101
q0 14 -10 20t-37 7q-8 0 -15 1v21h459zM304 885h36l77 -87l126 87h38l-147 -143h-44z" />
    <glyph glyph-name="ecaron" unicode="&#x11b;" horiz-adv-x="420" 
d="M353 135l20 -10q-88 -145 -207 -145q-64 0 -102.5 41.5t-38.5 110.5t35.5 136t100.5 120q80 65 160 65q45 0 71.5 -23t26.5 -63q0 -43 -35 -82.5t-94 -62.5q-75 -30 -181 -34q-3 -21 -3 -33q0 -51 28 -82t74 -31q73 0 145 93zM112 206q118 21 170 63q60 51 60 109
q0 22 -10.5 35t-27.5 13q-51 0 -115 -77q-49 -57 -77 -143zM219 692h32l63 -96l115 96h33l-136 -157h-39z" />
    <glyph glyph-name="Gcircumflex" unicode="&#x11c;" horiz-adv-x="737" 
d="M709 654l-41 -192h-20q-11 183 -171 183q-81 0 -154 -53t-117 -141t-44 -187q0 -98 59 -163.5t148 -65.5q32 0 66 9.5t52 22.5q16 12 27 62l23 110q8 38 8 46q0 14 -11.5 18.5t-51.5 8.5v22h244v-22q-52 -3 -68 -10q-10 -4 -15 -16t-13 -50l-37 -173q-73 -40 -129 -56.5
t-124 -16.5q-130 0 -207 73t-77 198q0 110 57 206t154 153t207 57q54 0 147 -23q27 -6 48 -6q9 0 40 6zM631 742h-36l-77 87l-125 -87h-38l146 143h45z" />
    <glyph glyph-name="gcircumflex" unicode="&#x11d;" horiz-adv-x="423" 
d="M170 72l90 -25q64 -18 87 -36q30 -25 30 -72q0 -65 -62 -108.5t-156 -43.5q-81 0 -130 32.5t-49 85.5q0 83 113 120q-32 10 -44.5 20.5t-12.5 25.5q0 18 17 34.5t67 45.5q-35 22 -49.5 47t-14.5 62q0 76 56 134.5t130 58.5q47 0 84 -33q39 42 73 42q19 0 31 -12t12 -30
q0 -17 -11 -28.5t-27 -11.5q-23 0 -32 27q-4 11 -12 11q-6 0 -23 -11q35 -36 35 -90q0 -71 -55 -130t-122 -59q-21 0 -54 11q-33 -27 -33 -40q0 -7 9.5 -11t52.5 -16zM247 422q-38 0 -66 -39q-48 -63 -48 -135q0 -31 17.5 -53t43.5 -22q38 0 68 50q40 71 40 130
q0 32 -14.5 50.5t-40.5 18.5zM124 14l-13 4q-28 -36 -37 -55t-9 -43q0 -44 36 -71.5t95 -27.5q55 0 93.5 27.5t38.5 66.5q0 24 -21.5 39.5t-74.5 29.5l-81 22q-15 4 -27 8zM390 535h-32l-62 96l-115 -96h-34l137 157h39z" />
    <glyph glyph-name="Gbreve" unicode="&#x11e;" horiz-adv-x="737" 
d="M709 654l-41 -192h-20q-11 183 -171 183q-81 0 -154 -53t-117 -141t-44 -187q0 -98 59 -163.5t148 -65.5q32 0 66 9.5t52 22.5q16 12 27 62l23 110q8 38 8 46q0 14 -11.5 18.5t-51.5 8.5v22h244v-22q-52 -3 -68 -10q-10 -4 -15 -16t-13 -50l-37 -173q-73 -40 -129 -56.5
t-124 -16.5q-130 0 -207 73t-77 198q0 110 57 206t154 153t207 57q54 0 147 -23q27 -6 48 -6q9 0 40 6zM631 878h24q-12 -35 -48 -72q-51 -56 -116 -56q-46 0 -71.5 31.5t-25.5 88.5v8h24q12 -73 94 -73q32 0 58.5 16.5t60.5 56.5z" />
    <glyph glyph-name="gbreve" unicode="&#x11f;" horiz-adv-x="423" 
d="M170 72l90 -25q64 -18 87 -36q30 -25 30 -72q0 -65 -62 -108.5t-156 -43.5q-81 0 -130 32.5t-49 85.5q0 83 113 120q-32 10 -44.5 20.5t-12.5 25.5q0 18 17 34.5t67 45.5q-35 22 -49.5 47t-14.5 62q0 76 56 134.5t130 58.5q47 0 84 -33q39 42 73 42q19 0 31 -12t12 -30
q0 -17 -11 -28.5t-27 -11.5q-23 0 -32 27q-4 11 -12 11q-6 0 -23 -11q35 -36 35 -90q0 -71 -55 -130t-122 -59q-21 0 -54 11q-33 -27 -33 -40q0 -7 9.5 -11t52.5 -16zM247 422q-38 0 -66 -39q-48 -63 -48 -135q0 -31 17.5 -53t43.5 -22q38 0 68 50q40 71 40 130
q0 32 -14.5 50.5t-40.5 18.5zM124 14l-13 4q-28 -36 -37 -55t-9 -43q0 -44 36 -71.5t95 -27.5q55 0 93.5 27.5t38.5 66.5q0 24 -21.5 39.5t-74.5 29.5l-81 22q-15 4 -27 8zM403 675h24q-16 -52 -63 -91t-94 -39q-51 0 -74 45q-16 31 -16 85h23q5 -36 27.5 -56t57.5 -20
q31 0 62 20.5t53 55.5z" />
    <glyph glyph-name="Gdotaccent" unicode="&#x120;" horiz-adv-x="737" 
d="M709 654l-41 -192h-20q-11 183 -171 183q-81 0 -154 -53t-117 -141t-44 -187q0 -98 59 -163.5t148 -65.5q32 0 66 9.5t52 22.5q16 12 27 62l23 110q8 38 8 46q0 14 -11.5 18.5t-51.5 8.5v22h244v-22q-52 -3 -68 -10q-10 -4 -15 -16t-13 -50l-37 -173q-73 -40 -129 -56.5
t-124 -16.5q-130 0 -207 73t-77 198q0 110 57 206t154 153t207 57q54 0 147 -23q27 -6 48 -6q9 0 40 6zM510 854q17 0 28.5 -13t11.5 -32q0 -23 -15.5 -40t-36.5 -17q-17 0 -28.5 13t-11.5 32q0 23 15.5 40t36.5 17z" />
    <glyph glyph-name="gdotaccent" unicode="&#x121;" horiz-adv-x="423" 
d="M170 72l90 -25q64 -18 87 -36q30 -25 30 -72q0 -65 -62 -108.5t-156 -43.5q-81 0 -130 32.5t-49 85.5q0 83 113 120q-32 10 -44.5 20.5t-12.5 25.5q0 18 17 34.5t67 45.5q-35 22 -49.5 47t-14.5 62q0 76 56 134.5t130 58.5q47 0 84 -33q39 42 73 42q19 0 31 -12t12 -30
q0 -17 -11 -28.5t-27 -11.5q-23 0 -32 27q-4 11 -12 11q-6 0 -23 -11q35 -36 35 -90q0 -71 -55 -130t-122 -59q-21 0 -54 11q-33 -27 -33 -40q0 -7 9.5 -11t52.5 -16zM247 422q-38 0 -66 -39q-48 -63 -48 -135q0 -31 17.5 -53t43.5 -22q38 0 68 50q40 71 40 130
q0 32 -14.5 50.5t-40.5 18.5zM124 14l-13 4q-28 -36 -37 -55t-9 -43q0 -44 36 -71.5t95 -27.5q55 0 93.5 27.5t38.5 66.5q0 24 -21.5 39.5t-74.5 29.5l-81 22q-15 4 -27 8zM287 655q17 0 28.5 -13t11.5 -32q0 -23 -15.5 -40t-36.5 -17q-17 0 -28.5 13t-11.5 32q0 23 15.5 40
t36.5 17z" />
    <glyph glyph-name="Gcommaaccent" unicode="&#x122;" horiz-adv-x="737" 
d="M709 654l-41 -192h-20q-11 183 -171 183q-81 0 -154 -53t-117 -141t-44 -187q0 -98 59 -163.5t148 -65.5q32 0 66 9.5t52 22.5q16 12 27 62l23 110q8 38 8 46q0 14 -11.5 18.5t-51.5 8.5v22h244v-22q-52 -3 -68 -10q-10 -4 -15 -16t-13 -50l-37 -173q-73 -40 -129 -56.5
t-124 -16.5q-130 0 -207 73t-77 198q0 110 57 206t154 153t207 57q54 0 147 -23q27 -6 48 -6q9 0 40 6zM256 -230l-10 18q41 15 60.5 38t22.5 59q-17 -22 -36 -22q-30 0 -30 30q0 22 17 38t40 16q41 0 41 -50q0 -43 -27.5 -76.5t-77.5 -50.5z" />
    <glyph glyph-name="gcommaaccent" unicode="&#x123;" horiz-adv-x="423" 
d="M170 72l90 -25q64 -18 87 -36q30 -25 30 -72q0 -65 -62 -108.5t-156 -43.5q-81 0 -130 32.5t-49 85.5q0 83 113 120q-32 10 -44.5 20.5t-12.5 25.5q0 18 17 34.5t67 45.5q-35 22 -49.5 47t-14.5 62q0 76 56 134.5t130 58.5q47 0 84 -33q39 42 73 42q19 0 31 -12t12 -30
q0 -17 -11 -28.5t-27 -11.5q-23 0 -32 27q-4 11 -12 11q-6 0 -23 -11q35 -36 35 -90q0 -71 -55 -130t-122 -59q-21 0 -54 11q-33 -27 -33 -40q0 -7 9.5 -11t52.5 -16zM247 422q-38 0 -66 -39q-48 -63 -48 -135q0 -31 17.5 -53t43.5 -22q38 0 68 50q40 71 40 130
q0 32 -14.5 50.5t-40.5 18.5zM124 14l-13 4q-28 -36 -37 -55t-9 -43q0 -44 36 -71.5t95 -27.5q55 0 93.5 27.5t38.5 66.5q0 24 -21.5 39.5t-74.5 29.5l-81 22q-15 4 -27 8zM335 707l9 -19q-76 -29 -83 -97q17 23 37 23q30 0 30 -30q0 -22 -17 -38t-40 -16q-41 0 -41 50
q0 43 27.5 76.5t77.5 50.5z" />
    <glyph glyph-name="Hcircumflex" unicode="&#x124;" horiz-adv-x="735" 
d="M539 327h-297l-37 -177q-17 -80 -17 -100q0 -16 11 -21t51 -7v-22h-220v22q24 2 33.5 6t15.5 17q8 21 30 123l74 350q17 74 17 99q0 16 -12 21.5t-50 6.5v22h250v-22q-63 -1 -76 -16q-7 -7 -30 -117l-33 -152h297l33 158q17 75 17 99q0 16 -11 21t-51 7v22h220v-22
q-39 -1 -48 -21t-31 -124l-74 -350q-18 -83 -18 -101q0 -15 11.5 -20t51.5 -7v-22h-250v22q64 3 76 16q8 10 30 117zM615 742h-37l-77 87l-125 -87h-38l147 143h44z" />
    <glyph glyph-name="Hbar" unicode="&#x126;" horiz-adv-x="735" 
d="M178 490h-67v37h74q15 65 15 91q0 15 -12 20.5t-50 6.5v22h250v-22q-63 -1 -76 -16q-8 -8 -25 -90l-2 -12h296l3 11q12 56 12 79q0 16 -11 21t-51 7v22h220v-22q-20 -1 -29 -3t-17.5 -16t-13 -33.5t-13.5 -65.5h66v-37h-74l-72 -340q-18 -83 -18 -101q0 -15 11.5 -20
t51.5 -7v-22h-250v22q64 3 76 16q8 10 30 117l37 172h-297l-37 -177q-17 -80 -17 -100q0 -16 11 -21t51 -7v-22h-220v22q24 2 33.5 6t15.5 17q8 21 30 123zM277 490l-28 -130h297l28 130h-297z" />
    <glyph glyph-name="hbar" unicode="&#x127;" horiz-adv-x="522" 
d="M142 526h-66v37h74l2 12q8 33 8 46t-26 13q-3 0 -6.5 -0.5t-10 -1t-12.5 -0.5v21l156 53q-20 -69 -36 -130l-3 -13h153v-37h-161l-60 -280q73 85 110 120q86 80 140 80q25 0 41.5 -17t16.5 -43q0 -27 -17 -85l-50 -168q-14 -49 -14 -62q0 -18 15 -18q27 0 74 63l17 -12
q-44 -63 -76.5 -90t-63.5 -27q-22 0 -36 12.5t-14 31.5q0 20 13 63l57 193q12 41 12 66t-21 25q-64 0 -212 -173l-44 -205h-72z" />
    <glyph glyph-name="Imacron" unicode="&#x12a;" horiz-adv-x="339" 
d="M138 645v22h229v-22q-26 -2 -36.5 -6t-16.5 -15q-10 -21 -35 -124l-74 -351q-17 -74 -17 -100q0 -15 11.5 -20t50.5 -7v-22h-230v22q42 1 53.5 20t35.5 125l74 351q17 76 17 99q0 14 -10 19.5t-37 7.5zM415 818l-11 -50h-239l12 50h238z" />
    <glyph glyph-name="imacron" unicode="&#x12b;" horiz-adv-x="261" 
d="M216 119l17 -11q-74 -121 -132 -121q-22 0 -34.5 13t-12.5 35q0 18 12 73l44 203q6 34 9 41q4 22 4 28q0 15 -28 15h-31v18l153 50q-13 -50 -32 -135l-29 -139q-20 -93 -20 -111q0 -20 13 -20q26 0 67 61zM302 619l-12 -50h-208l11 50h209z" />
    <glyph glyph-name="ibreve" unicode="&#x12d;" horiz-adv-x="261" 
d="M216 119l17 -11q-74 -121 -132 -121q-22 0 -34.5 13t-12.5 35q0 19 12 73l44 203q6 33 9 41q4 22 4 28q0 15 -28 15h-31v18l153 50q-13 -50 -32 -135l-29 -139q-20 -93 -20 -111q0 -20 13 -20q25 0 67 61zM305 672h25q-13 -47 -60 -86t-90 -39q-57 0 -78 65q-6 19 -6 60
h23q5 -32 26.5 -52.5t49.5 -20.5q65 0 110 73z" />
    <glyph glyph-name="Iogonek" unicode="&#x12e;" horiz-adv-x="339" 
d="M250 0h-20q-78 -56 -78 -91q0 -14 12 -23t32 -9t43 6l-16 -39q-34 -11 -58 -11q-34 0 -54.5 16.5t-20.5 43.5q0 50 88 107h-158v22q42 1 53.5 20t35.5 125l74 351q17 74 17 99q0 14 -10 19.5t-37 7.5l-15 1v22h229v-22q-26 -2 -36.5 -6t-16.5 -15q-12 -19 -35 -124
l-74 -351q-17 -76 -17 -100q0 -15 11.5 -20t50.5 -7v-22z" />
    <glyph glyph-name="iogonek" unicode="&#x12f;" horiz-adv-x="261" 
d="M179 -119l-15 -37q-32 -11 -56 -11q-35 0 -56 16.5t-21 43.5q0 25 13.5 44t54.5 50q-45 2 -45 48q0 14 12 73l44 203q6 34 9 41q4 22 4 28q0 9 -6 12t-23 3h-30v18l153 50q-13 -50 -32 -135l-29 -139q-20 -92 -20 -111q0 -20 13 -20q25 0 67 61l17 -11q-16 -26 -20 -31
q-7 -11 -33 -39q-16 -21 -27 -31q-4 -5 -12.5 -14.5t-9.5 -10.5q-40 -43 -40 -77q0 -30 44 -30q21 0 44 6zM202 685q22 0 35 -14t13 -38q0 -27 -14 -44t-37 -17t-37 15t-14 40t15.5 41.5t38.5 16.5z" />
    <glyph glyph-name="Idotaccent" unicode="&#x130;" horiz-adv-x="339" 
d="M138 645v22h229v-22q-26 -2 -36.5 -6t-16.5 -15q-10 -21 -35 -124l-74 -351q-17 -74 -17 -100q0 -15 11.5 -20t50.5 -7v-22h-230v22q42 1 53.5 20t35.5 125l74 351q17 76 17 99q0 14 -10 19.5t-37 7.5zM296 854q17 0 28.5 -13t11.5 -32q0 -23 -15.5 -40t-36.5 -17
q-17 0 -28.5 13t-11.5 32q0 23 15.5 40t36.5 17z" />
    <glyph glyph-name="dotlessi" unicode="&#x131;" horiz-adv-x="261" 
d="M216 119l17 -11q-74 -121 -132 -121q-22 0 -34.5 13t-12.5 35q0 17 12 73l43 203q2 8 4.5 18.5t4.5 16.5l1 6q4 22 4 28q0 9 -6 12t-23 3h-30v18l153 50q-21 -82 -32 -135l-29 -139q-20 -93 -20 -111q0 -20 13 -20q25 0 67 61z" />
    <glyph glyph-name="IJ" unicode="&#x132;" horiz-adv-x="655" 
d="M138 645v22h229v-22q-26 -2 -36.5 -6t-16.5 -15q-12 -19 -35 -124l-74 -351q-17 -76 -17 -100q0 -15 11.5 -20t50.5 -7v-22h-230v22q42 1 53.5 20t35.5 125l74 351q17 74 17 99q0 14 -10 19.5t-37 7.5zM315 -166v23q38 10 59 48t40 132l102 481q17 80 17 100
q0 15 -11.5 20t-50.5 7v22h228v-22q-42 -2 -53.5 -20.5t-33.5 -124.5l-64 -299q-27 -138 -54 -208.5t-67 -106t-112 -52.5z" />
    <glyph glyph-name="ij" unicode="&#x133;" horiz-adv-x="502" 
d="M216 119l17 -11q-74 -121 -132 -121q-22 0 -34.5 13t-12.5 35q0 13 12 73l44 203q6 34 9 41q4 22 4 28q0 9 -6 12t-23 3h-30v18l153 50q-13 -50 -32 -135l-29 -139q-20 -92 -20 -111q0 -20 13 -20q25 0 67 61zM202 685q22 0 35 -14t13 -38q0 -27 -14 -44t-37 -17t-37 15
t-14 40t15.5 41.5t38.5 16.5zM318 395v19l157 50q-5 -19 -14 -55q-11 -50 -18 -81l-66 -309q-46 -215 -133 -215q-22 0 -37.5 15t-15.5 37q0 19 12 32t29 13q12 0 19.5 -5.5t17.5 -21.5q4 -7 9 -7q12 0 16 51q8 100 29 200l41 194q7 30 9 41q5 18 5 28q0 9 -6 12t-23 3z
M443 685q22 0 34.5 -14t12.5 -37q0 -28 -14 -45t-37 -17t-36.5 15t-13.5 40t15.5 41.5t38.5 16.5z" />
    <glyph glyph-name="Kcommaaccent" unicode="&#x136;" horiz-adv-x="681" 
d="M137 667h250v-22q-63 -1 -76 -16q-7 -9 -15 -50q-7 -30 -15 -67l-77 -363q-17 -90 -17 -100q0 -15 11.5 -20t50.5 -7v-22h-220v22q24 2 33.5 6t15.5 17q8 18 30 122l74 351q17 76 17 99q0 14 -10 19.5t-37 7.5l-15 1v22zM334 383l181 -260q47 -69 67.5 -84t64.5 -17v-22
h-259v22q64 4 64 23q0 10 -30 57l-170 251l243 209q45 37 55.5 48t10.5 19q0 10 -9.5 13t-38.5 3v22h183v-22q-31 -4 -55.5 -19t-92.5 -70zM225 -230l-10 18q76 29 83 97q-17 -22 -37 -22q-30 0 -30 30q0 22 17 38t40 16q42 0 42 -50q0 -43 -27.5 -76.5t-77.5 -50.5z" />
    <glyph glyph-name="kcommaaccent" unicode="&#x137;" horiz-adv-x="489" 
d="M204 243l-59 -38l-43 -205h-72l98 462q28 130 28 154q0 11 -6 14.5t-22 3.5q-1 0 -29 -2v21l156 53q-8 -28 -35 -150l-66 -313l96 70q66 48 80 60t14 24q0 13 -22 14h-10v22h175v-22q-26 -2 -43 -9.5t-71 -44.5l-109 -73l24 -79q27 -88 45.5 -121.5t40.5 -33.5
q15 0 30 15t40 54l21 -15q-37 -67 -62 -92t-56 -25q-37 0 -62.5 35.5t-52.5 125.5zM113 -230l-10 18q76 29 83 97q-16 -22 -37 -22q-30 0 -30 30q0 22 17 38t40 16q41 0 41 -50q0 -43 -27.5 -76.5t-76.5 -50.5z" />
    <glyph glyph-name="kgreenlandic" unicode="&#x138;" horiz-adv-x="489" 
d="M204 243l-59 -38l-43 -205h-72l46 219q28 130 28 153q0 11 -6 14.5t-22 3.5q-14 0 -29 -2v21l156 54q-13 -49 -35 -150l-15 -70l97 70q65 46 79.5 59t14.5 25q0 13 -22 14h-10v22h175v-22q-26 -2 -43 -9.5t-71 -44.5l-109 -73l24 -79q27 -88 45.5 -121.5t40.5 -33.5
q15 0 30 15t40 54l21 -15q-36 -66 -61.5 -91.5t-56.5 -25.5q-37 0 -63 36t-52 125z" />
    <glyph glyph-name="Lacute" unicode="&#x139;" horiz-adv-x="575" 
d="M528 182h26l-80 -182h-474v22q64 3 76 16q6 8 15 50q8 32 15 67l73 341q21 99 21 122q0 15 -12 20t-50 7v22h250v-22q-63 -1 -76 -16q-8 -8 -31 -117l-101 -475h89q102 0 156 30.5t103 114.5zM266 742h-40l133 109q27 23 37 28.5t22 5.5q11 0 19 -7t8 -17q0 -23 -37 -42z
" />
    <glyph glyph-name="lacute" unicode="&#x13a;" horiz-adv-x="252" 
d="M203 116l15 -12q-68 -117 -127 -117q-23 0 -37 14.5t-14 36.5q0 26 17 105l68 320q28 129 28 155q0 10 -5.5 13t-20.5 3q-1 0 -37 -2v21l162 54q-11 -39 -16 -63q-1 -4 -3.5 -15.5t-7 -32t-8.5 -40.5l-63 -295q-34 -161 -34 -179q0 -24 17 -24q25 0 66 58zM198 749h-37
l133 109q29 23 38 28.5t21 5.5t19.5 -7t7.5 -18q0 -19 -38 -41z" />
    <glyph glyph-name="Lcommaaccent" unicode="&#x13b;" horiz-adv-x="575" 
d="M528 182h26l-80 -182h-474v22q64 3 76 16q6 8 15 50q8 32 15 67l73 341q21 99 21 122q0 15 -12 20t-50 7v22h250v-22q-63 -1 -76 -16q-8 -8 -31 -117l-101 -475h89q102 0 156 30.5t103 114.5zM183 -230l-10 18q76 29 83 97q-16 -22 -37 -22q-30 0 -30 30q0 22 17 38
t40 16q41 0 41 -50q0 -43 -27.5 -76.5t-76.5 -50.5z" />
    <glyph glyph-name="lcommaaccent" unicode="&#x13c;" horiz-adv-x="252" 
d="M202 116l15 -12q-68 -117 -127 -117q-22 0 -36.5 14t-14.5 36q0 27 17 106l68 320q28 128 28 155q0 16 -26 16q-1 0 -37 -2v21l162 54q-10 -34 -16 -63l-5 -24q-3 -12 -7.5 -33.5t-6.5 -30.5l-63 -295q-34 -164 -34 -179q0 -24 17 -24q25 0 66 58zM5 -230l-10 18
q76 29 83 97q-16 -22 -37 -22q-30 0 -30 30q0 22 17 38t40 16q42 0 42 -50q0 -43 -27.5 -76.5t-77.5 -50.5z" />
    <glyph glyph-name="Lcaron" unicode="&#x13d;" horiz-adv-x="575" 
d="M528 182h26l-80 -182h-474v22q64 3 76 16q6 8 15 50q8 32 15 67l73 341q21 99 21 122q0 15 -12 20t-50 7v22h250v-22q-63 -1 -76 -16q-8 -8 -31 -117l-101 -475h89q102 0 156 30.5t103 114.5zM461 497l-9 18q40 15 59.5 38t22.5 59q-16 -22 -36 -22q-30 0 -30 30
q0 22 17 38t40 16q41 0 41 -50q0 -43 -27.5 -76.5t-77.5 -50.5z" />
    <glyph glyph-name="lcaron" unicode="&#x13e;" horiz-adv-x="335" 
d="M203 116l15 -12q-68 -117 -127 -117q-23 0 -37 14.5t-14 36.5q0 26 17 105l68 320q28 129 28 155q0 10 -5.5 13t-20.5 3q-1 0 -37 -2v21l162 54q-11 -39 -16 -63q-1 -4 -3.5 -15.5t-7 -32t-8.5 -40.5l-63 -295q-34 -161 -34 -179q0 -24 17 -24q25 0 66 58zM291 530l-9 18
q76 29 83 97q-18 -22 -37 -22q-30 0 -30 30q0 22 17 38t40 16q41 0 41 -50q0 -43 -27.5 -76.5t-77.5 -50.5z" />
    <glyph glyph-name="Ldot" unicode="&#x13f;" horiz-adv-x="575" 
d="M528 182h26l-80 -182h-474v22q64 3 76 16q6 8 15 50q8 32 15 67l73 341q21 99 21 122q0 15 -12 20t-50 7v22h250v-22q-63 -1 -76 -16q-8 -8 -31 -117l-101 -475h89q102 0 156 30.5t103 114.5zM487 412q23 0 37.5 -15t14.5 -37q0 -26 -20 -45.5t-46 -19.5
q-23 0 -37.5 14.5t-14.5 37.5q0 26 20 45.5t46 19.5z" />
    <glyph glyph-name="ldot" unicode="&#x140;" horiz-adv-x="394" 
d="M203 116l15 -12q-68 -117 -127 -117q-23 0 -37 14.5t-14 36.5q0 26 17 105l68 320q28 129 28 155q0 10 -5.5 13t-20.5 3q-1 0 -37 -2v21l162 54q-11 -39 -16 -63q-1 -4 -3.5 -15.5t-7 -32t-8.5 -40.5l-63 -295q-34 -161 -34 -179q0 -24 17 -24q25 0 66 58zM335 380
q20 0 33.5 -13.5t13.5 -33.5q0 -24 -18.5 -42t-42.5 -18q-20 0 -33.5 13.5t-13.5 33.5q0 24 18.5 42t42.5 18z" />
    <glyph glyph-name="Lslash" unicode="&#x141;" horiz-adv-x="575" 
d="M138 667h250v-22q-63 -1 -76 -16q-8 -8 -31 -117l-30 -144l199 128l-11 -50l-199 -128l-60 -281h89q102 0 156 30.5t103 114.5h26l-80 -182h-474v22q64 3 76 16q6 8 15 50q8 32 15 67l25 118l-79 -51l11 50l79 51l37 173q21 101 21 122q0 15 -12 20t-50 7v22z" />
    <glyph glyph-name="lslash" unicode="&#x142;" horiz-adv-x="251" 
d="M95 323l-78 -50l11 50l78 50l19 90q29 135 29 155q0 10 -5.5 13t-20.5 3q-1 0 -37 -2v21l163 54q-16 -62 -36 -151l-32 -153l83 55l-10 -50l-84 -55l-19 -92q-35 -164 -35 -179q0 -24 17 -24q27 0 66 58l15 -12q-69 -117 -128 -117q-23 0 -37.5 14t-14.5 36q0 23 18 106z
" />
    <glyph glyph-name="Nacute" unicode="&#x143;" horiz-adv-x="713" 
d="M549 -17h-23l-292 581l-88 -415q-17 -78 -17 -101q0 -14 11.5 -19t50.5 -7v-22h-161v22q23 2 33 6t15 15q10 23 31 124l94 440q-20 26 -27.5 31.5t-26.5 6.5v22h138l257 -517l78 368q17 72 17 99q0 16 -12 21.5t-50 6.5v22h164v-22q-38 -1 -49 -21q-9 -19 -33 -124z
M446 742h-41l133 109q29 23 38 28.5t21 5.5q11 0 19 -7t8 -17q0 -22 -36 -42z" />
    <glyph glyph-name="nacute" unicode="&#x144;" horiz-adv-x="532" 
d="M118 0h-79l62 267q23 103 23 114q0 17 -35 17q-13 0 -21 -1v18l153 48q-1 -6 -2.5 -12t-3 -10.5t-1.5 -5.5q-4 -18 -14 -54q-6 -25 -15 -67l-14 -63q86 102 130 138q70 58 121 58q24 0 38 -13t14 -35q0 -21 -19 -85l-53 -182q-12 -46 -12 -55q0 -20 17 -20q25 0 75 63
l14 -14q-83 -119 -141 -119q-19 0 -32.5 13.5t-13.5 32.5q0 23 16 79l53 183q16 60 16 66q0 21 -21 21q-31 0 -90 -47t-119 -121zM303 534h-37l118 122q25 26 32.5 31.5t18.5 5.5t18.5 -8t7.5 -19q0 -19 -38 -46z" />
    <glyph glyph-name="Ncommaaccent" unicode="&#x145;" horiz-adv-x="713" 
d="M549 -17h-23l-292 581l-88 -415q-17 -78 -17 -101q0 -14 11.5 -19t50.5 -7v-22h-161v22q23 2 33 6t15 15q10 23 31 124l94 440q-20 26 -27.5 31.5t-26.5 6.5v22h138l257 -517l78 368q17 72 17 99q0 16 -12 21.5t-50 6.5v22h164v-22q-38 -1 -49 -21q-9 -19 -33 -124z
M225 -230l-9 18q76 29 83 97q-18 -22 -37 -22q-30 0 -30 30q0 22 17 38t40 16q41 0 41 -50q0 -43 -27.5 -76.5t-77.5 -50.5z" />
    <glyph glyph-name="ncommaaccent" unicode="&#x146;" horiz-adv-x="532" 
d="M118 0h-79l62 267q23 103 23 114q0 17 -35 17q-13 0 -21 -1v18l153 48q-1 -6 -2.5 -12t-3 -10.5t-1.5 -5.5q-4 -18 -14 -54q-6 -25 -15 -67l-14 -63q86 102 130 138q70 58 121 58q24 0 38 -13t14 -35q0 -21 -19 -85l-53 -182q-12 -46 -12 -55q0 -20 17 -20q25 0 75 63
l14 -14q-83 -119 -141 -119q-19 0 -32.5 13.5t-13.5 32.5q0 23 16 79l53 183q16 60 16 66q0 21 -21 21q-31 0 -90 -47t-119 -121zM134 -230l-10 18q76 28 83 97q-17 -22 -36 -22q-30 0 -30 30q0 22 17 38t40 16q41 0 41 -50q0 -43 -27.5 -76.5t-77.5 -50.5z" />
    <glyph glyph-name="Ncaron" unicode="&#x147;" horiz-adv-x="713" 
d="M549 -17h-23l-292 581l-88 -415q-17 -78 -17 -101q0 -14 11.5 -19t50.5 -7v-22h-161v22q23 2 33 6t15 15q10 23 31 124l94 440q-20 26 -27.5 31.5t-26.5 6.5v22h138l257 -517l78 368q17 72 17 99q0 16 -12 21.5t-50 6.5v22h164v-22q-38 -1 -49 -21q-9 -19 -33 -124z
M357 885h36l77 -87l126 87h38l-147 -143h-44z" />
    <glyph glyph-name="ncaron" unicode="&#x148;" horiz-adv-x="532" 
d="M118 0h-79l62 267q23 103 23 114q0 17 -35 17q-13 0 -21 -1v18l153 48q-1 -6 -2.5 -12t-3 -10.5t-1.5 -5.5q-4 -18 -14 -54q-6 -25 -15 -67l-14 -63q86 102 130 138q70 58 121 58q24 0 38 -13t14 -35q0 -21 -19 -85l-53 -182q-12 -46 -12 -55q0 -20 17 -20q25 0 75 63
l14 -14q-83 -119 -141 -119q-19 0 -32.5 13.5t-13.5 32.5q0 23 16 79l53 183q16 60 16 66q0 21 -21 21q-31 0 -90 -47t-119 -121zM232 692h32l62 -96l116 96h33l-137 -157h-38z" />
    <glyph glyph-name="napostrophe" unicode="&#x149;" horiz-adv-x="720" 
d="M92 442l-8 15q52 22 79 51t43 81q-19 -20 -35 -20t-26 12t-10 31q0 25 17 43.5t40 18.5q25 0 39 -18t14 -49q0 -54 -41.5 -98.5t-111.5 -66.5zM307 0h-79l61 267q24 102 24 115q0 16 -35 16q-13 0 -21 -1v18l153 48q-10 -42 -22.5 -91t-14.5 -58l-13 -63q91 108 147 152
t104 44q24 0 38 -13t14 -35q0 -20 -19 -85l-53 -182q-12 -42 -12 -55q0 -20 16 -20q27 0 75 63l15 -14q-83 -119 -141 -119q-20 0 -33 13.5t-13 32.5q0 23 16 79l53 183q16 60 16 66q0 21 -21 21q-31 0 -90 -47t-120 -121z" />
    <glyph glyph-name="Eng" unicode="&#x14a;" horiz-adv-x="696" 
d="M143 634l181 56q-13 -48 -29 -116q75 60 125.5 82.5t109.5 22.5q70 0 106.5 -29t36.5 -84q0 -48 -23 -160l-81 -382q-61 -283 -176 -283q-29 0 -49 19.5t-20 48.5q0 25 15.5 42.5t37.5 17.5q16 0 26 -7.5t23 -27.5q6 -9 12 -9q15 0 21 67q9 127 38 264l50 235
q20 90 23 109.5t3 46.5q0 35 -19.5 55t-54.5 20q-47 0 -97.5 -26.5t-120.5 -89.5l-76 -357q-17 -76 -17 -100q0 -15 11.5 -20t50.5 -7v-22h-230v22q42 1 53.5 20t35.5 125l76 359q10 40 10 60q0 16 -9.5 20.5t-41.5 4.5z" />
    <glyph glyph-name="eng" unicode="&#x14b;" horiz-adv-x="518" 
d="M118 0h-79l62 267q23 103 23 114q0 17 -35 17q-13 0 -21 -1v18l153 48q-23 -95 -36 -149l-14 -63q88 103 130 138q70 58 121 58q24 0 38 -12.5t14 -34.5q0 -11 -6 -39q-13 -47 -14 -54l-61 -289q-46 -214 -133 -214q-22 0 -37.5 15t-15.5 36q0 19 11.5 32t28.5 13
q21 0 38 -26q4 -7 8 -7q13 0 17 51q6 92 28 200l38 177q12 53 12 68q0 18 -17 18q-31 0 -89.5 -47t-118.5 -120z" />
    <glyph glyph-name="Omacron" unicode="&#x14c;" horiz-adv-x="737" 
d="M458 677q122 0 194.5 -73.5t72.5 -198.5q0 -89 -42 -179.5t-111 -148.5q-104 -87 -238 -87q-124 0 -200 70.5t-76 186.5q0 112 55 211.5t147.5 159t197.5 59.5zM456 644q-114 0 -204 -122t-90 -276q0 -96 51.5 -154.5t135.5 -58.5q110 0 189 115q38 56 61 133.5t23 148.5
q0 91 -36 146q-47 68 -130 68zM633 818l-11 -50h-272l11 50h272z" />
    <glyph glyph-name="omacron" unicode="&#x14d;" horiz-adv-x="490" 
d="M307 453q71 0 113.5 -45.5t42.5 -122.5q0 -60 -33 -129t-82 -113q-72 -63 -154 -63q-74 0 -119.5 48t-45.5 125q0 111 87.5 205.5t190.5 94.5zM296 423q-68 0 -125 -87.5t-57 -192.5q0 -56 27 -91t71 -35q52 0 95 56q29 39 50 104t21 119q0 60 -21.5 93.5t-60.5 33.5z
M453 619l-12 -50h-249l12 50h249z" />
    <glyph glyph-name="Ohungarumlaut" unicode="&#x150;" horiz-adv-x="737" 
d="M458 677q122 0 194.5 -73.5t72.5 -198.5q0 -89 -42 -179.5t-111 -148.5q-104 -87 -238 -87q-124 0 -200 70.5t-76 186.5q0 112 55 211.5t147.5 159t197.5 59.5zM456 644q-114 0 -204 -122t-90 -276q0 -96 51.5 -154.5t135.5 -58.5q110 0 189 115q38 56 61 133.5t23 148.5
q0 91 -36 146q-47 68 -130 68zM405 742h-39l120 111q25 24 31 28t16 4q31 0 31 -23q0 -20 -32 -40zM573 742h-39l120 111q26 24 31.5 28t15.5 4q31 0 31 -24q0 -19 -32 -39z" />
    <glyph glyph-name="ohungarumlaut" unicode="&#x151;" horiz-adv-x="490" 
d="M307 453q71 0 113.5 -45.5t42.5 -122.5q0 -60 -33 -129t-82 -113q-72 -63 -154 -63q-74 0 -119.5 48t-45.5 125q0 111 87.5 205.5t190.5 94.5zM296 423q-68 0 -125 -88t-57 -194q0 -55 27 -89.5t70 -34.5q53 0 96 56q29 39 50 104t21 119q0 60 -21.5 93.5t-60.5 33.5z
M257 534h-30l95 121q19 26 26 32t18 6q12 0 19.5 -6.5t7.5 -17.5q0 -14 -31 -43zM391 534h-31l95 121q19 26 26.5 32t18.5 6t18.5 -7t7.5 -17q0 -16 -31 -43z" />
    <glyph glyph-name="OE" unicode="&#x152;" horiz-adv-x="950" 
d="M947 667l-19 -153h-21q0 79 -23.5 99.5t-114.5 20.5h-113l-57 -271h90q73 0 92 11.5t34 63.5h21l-41 -195h-22q4 33 4 49q0 27 -13 32.5t-77 5.5h-95l-63 -297h108q113 0 161.5 27.5t76.5 106.5h25l-42 -167h-372q-64 0 -129 -7q-29 -3 -51 -3q-115 0 -185 79
q-61 69 -61 186q0 89 37 172.5t104 147.5q107 102 262 102q20 0 80 -6q32 -4 118 -4h286zM465 204l60 280q21 100 21 121q0 42 -84 42q-124 0 -212.5 -111.5t-88.5 -267.5q0 -106 52 -172t135 -66q60 0 79 27q8 12 38 147z" />
    <glyph glyph-name="oe" unicode="&#x153;" horiz-adv-x="706" 
d="M651 127l13 -11q-55 -75 -100 -105.5t-99 -30.5q-62 0 -96 39q-18 21 -26 64q-32 -55 -70 -79t-93 -24q-68 0 -110 40.5t-42 107.5q0 121 86 223t187 102q67 0 95 -52q14 -29 15 -78q97 130 198 130q43 0 68 -21t25 -56q0 -41 -27.5 -77.5t-76.5 -61.5q-67 -36 -196 -43
q-5 -24 -5 -42q0 -52 27.5 -82t74.5 -30q74 0 152 87zM290 423q-58 0 -114 -89q-68 -108 -68 -221q0 -45 21 -71.5t57 -26.5q60 0 112 85q26 44 43.5 109t17.5 116q0 98 -69 98zM406 214q115 23 161 58q64 46 64 111q0 43 -38 43q-46 0 -100.5 -61.5t-86.5 -150.5z" />
    <glyph glyph-name="Racute" unicode="&#x154;" horiz-adv-x="643" 
d="M241 323l-37 -174q-17 -83 -17 -101q0 -14 12 -19t51 -7v-22h-229v22q43 2 53 21q14 25 35 124l74 350q19 90 19 101q0 13 -10 18.5t-37 7.5l-15 1v22h279q94 0 137.5 -33.5t43.5 -106.5q0 -55 -29 -99.5t-82 -69.5q-44 -21 -116 -21q21 -12 31 -24t25 -44l70 -147
q34 -69 51 -83.5t65 -16.5v-22h-157l-116 242q-28 59 -36.5 70t-28.5 11h-36zM309 638l-61 -287q16 -1 40 -1q103 0 156.5 44.5t53.5 129.5q0 60 -35 88t-110 28q-26 0 -44 -2zM377 742h-41l133 109q29 23 38 28.5t21 5.5q11 0 19 -7t8 -17q0 -23 -37 -42z" />
    <glyph glyph-name="racute" unicode="&#x155;" horiz-adv-x="342" 
d="M115 0h-80l77 311q15 63 15 69q0 10 -7 13t-27 3q-12 0 -24 -1v18l160 50l-55 -186q23 34 75 117q24 38 39.5 52t32.5 14q36 0 36 -50q0 -74 -44 -74q-23 0 -26 17q-3 10 -9 10q-8 0 -16 -7t-29 -34q-41 -50 -70 -96zM235 534h-37l118 122q25 26 32.5 31.5t18.5 5.5
t18.5 -8t7.5 -19q0 -19 -38 -46z" />
    <glyph glyph-name="Rcommaaccent" unicode="&#x156;" horiz-adv-x="643" 
d="M241 323l-37 -174q-17 -83 -17 -101q0 -14 12 -19t51 -7v-22h-229v22q43 2 53 21q14 25 35 124l74 350q19 90 19 101q0 13 -10 18.5t-37 7.5l-15 1v22h279q94 0 137.5 -33.5t43.5 -106.5q0 -55 -29 -99.5t-82 -69.5q-44 -21 -116 -21q21 -12 31 -24t25 -44l70 -147
q34 -69 51 -83.5t65 -16.5v-22h-157l-116 242q-28 59 -36.5 70t-28.5 11h-36zM309 638l-61 -287q16 -1 40 -1q103 0 156.5 44.5t53.5 129.5q0 60 -35 88t-110 28q-26 0 -44 -2zM228 -230l-9 18q76 29 83 97q-18 -22 -37 -22q-30 0 -30 30q0 22 17 38t40 16q41 0 41 -50
q0 -43 -27.5 -76.5t-77.5 -50.5z" />
    <glyph glyph-name="rcommaaccent" unicode="&#x157;" horiz-adv-x="342" 
d="M116 0h-80l77 311q15 63 15 70q0 9 -7 12t-27 3q-12 0 -24 -1v18l160 50l-55 -186q10 16 49 77q47 72 62.5 89t35.5 17q36 0 36 -50q0 -74 -44 -74q-23 0 -26 17q-2 10 -9 10q-8 0 -16 -7t-29 -34q-41 -50 -70 -96zM3 -230l-10 18q76 29 83 97q-17 -22 -37 -22
q-30 0 -30 30q0 22 17 38t40 16q42 0 42 -50q0 -43 -27.5 -76.5t-77.5 -50.5z" />
    <glyph glyph-name="Rcaron" unicode="&#x158;" horiz-adv-x="643" 
d="M241 323l-37 -174q-17 -83 -17 -101q0 -14 12 -19t51 -7v-22h-229v22q43 2 53 21q14 25 35 124l74 350q19 90 19 101q0 13 -10 18.5t-37 7.5l-15 1v22h279q94 0 137.5 -33.5t43.5 -106.5q0 -55 -29 -99.5t-82 -69.5q-44 -21 -116 -21q21 -12 31 -24t25 -44l70 -147
q34 -69 51 -83.5t65 -16.5v-22h-157l-116 242q-28 59 -36.5 70t-28.5 11h-36zM309 638l-61 -287q16 -1 40 -1q103 0 156.5 44.5t53.5 129.5q0 60 -35 88t-110 28q-26 0 -44 -2zM285 885h36l77 -87l126 87h38l-147 -143h-44z" />
    <glyph glyph-name="rcaron" unicode="&#x159;" horiz-adv-x="342" 
d="M115 0h-80l77 311q15 63 15 69q0 10 -7 13t-27 3q-12 0 -24 -1v18l160 50l-55 -186q23 34 75 117q24 38 39.5 52t32.5 14q36 0 36 -50q0 -74 -44 -74q-23 0 -26 17q-3 10 -9 10q-8 0 -16 -7t-29 -34q-41 -50 -70 -96zM161 692h32l62 -96l115 96h34l-137 -157h-39z" />
    <glyph glyph-name="Sacute" unicode="&#x15a;" horiz-adv-x="502" 
d="M501 658l-35 -165h-22q-19 150 -139 150q-49 0 -81.5 -29.5t-32.5 -73.5q0 -55 91 -128l77 -61q49 -40 70.5 -77.5t21.5 -84.5q0 -85 -60.5 -142t-150.5 -57q-41 0 -94 15q-48 15 -69 15q-27 0 -58 -20l44 236h23q0 -85 36 -136q45 -67 122 -67q56 0 94 35.5t38 87.5
q0 29 -17 54.5t-58 60.5l-81 68q-66 55 -87 87.5t-21 81.5q0 73 54 121t136 48q44 0 92 -16q44 -13 58 -13q20 0 49 10zM326 742h-40l133 109q29 23 38 28.5t21 5.5q11 0 19 -7t8 -17q0 -23 -37 -42z" />
    <glyph glyph-name="sacute" unicode="&#x15b;" horiz-adv-x="355" 
d="M330 443l-11 -130h-22q-4 53 -25 79q-29 34 -73 34q-30 0 -48.5 -15.5t-18.5 -40.5q0 -31 49 -76l59 -55q61 -58 61 -120q0 -58 -40 -99t-97 -41q-26 0 -68 14q-21 7 -47 7q-17 0 -37 -6l21 169h19q5 -67 37 -106.5t82 -39.5q32 0 51.5 18t19.5 47q0 38 -50 85l-57 55
q-68 64 -68 121q0 48 35.5 79.5t89.5 31.5q26 0 67 -8q28 -5 46 -5q12 0 25 2zM218 534h-36l117 122q25 26 33 31.5t19 5.5t18.5 -8t7.5 -19q0 -19 -39 -46z" />
    <glyph glyph-name="Scircumflex" unicode="&#x15c;" horiz-adv-x="502" 
d="M501 658l-35 -165h-22q-19 150 -139 150q-49 0 -81.5 -29.5t-32.5 -73.5q0 -55 91 -128l77 -61q49 -40 70.5 -77.5t21.5 -84.5q0 -85 -60.5 -142t-150.5 -57q-41 0 -94 15q-48 15 -69 15q-27 0 -58 -20l44 236h23q0 -85 36 -136q45 -67 122 -67q56 0 94 35.5t38 87.5
q0 29 -17 54.5t-58 60.5l-81 68q-66 55 -87 87.5t-21 81.5q0 73 54 121t136 48q44 0 92 -16q44 -13 58 -13q20 0 49 10zM486 742h-36l-77 87l-125 -87h-39l147 143h44z" />
    <glyph glyph-name="scircumflex" unicode="&#x15d;" horiz-adv-x="355" 
d="M330 443l-11 -130h-22q-4 53 -25 79q-29 34 -73 34q-30 0 -48.5 -15.5t-18.5 -40.5q0 -31 49 -76l59 -55q61 -58 61 -120q0 -58 -40 -99t-97 -41q-26 0 -68 14q-21 7 -47 7q-17 0 -37 -6l21 169h19q5 -67 37 -106.5t82 -39.5q32 0 51.5 18t19.5 47q0 38 -50 85l-57 55
q-68 64 -68 121q0 48 35.5 79.5t89.5 31.5q26 0 67 -8q28 -5 46 -5q12 0 25 2zM353 535h-31l-63 96l-115 -96h-33l136 157h39z" />
    <glyph glyph-name="Scedilla" unicode="&#x15e;" horiz-adv-x="502" 
d="M213 -9l-28 -48q10 2 22 2q29 0 47 -17t18 -45q0 -34 -28.5 -54.5t-75.5 -20.5q-42 0 -86 20l11 27q34 -15 64 -15q53 0 53 38q0 16 -11 25.5t-30 9.5q-7 0 -22 -3l-9 8l45 77q-77 25 -106 25q-27 0 -58 -20l44 236h23q0 -85 36 -136q45 -67 122 -67q56 0 94 35.5
t38 87.5q0 29 -17 54.5t-58 60.5l-81 68q-66 55 -87 87.5t-21 81.5q0 73 54 121t136 48q44 0 92 -16q44 -13 58 -13q20 0 49 10l-35 -165h-22q-19 150 -139 150q-49 0 -81.5 -29.5t-32.5 -73.5q0 -29 20.5 -58t70.5 -70l77 -61q50 -41 71 -78t21 -84q0 -85 -60 -142
t-149 -57q-18 0 -29 1z" />
    <glyph glyph-name="scedilla" unicode="&#x15f;" horiz-adv-x="355" 
d="M130 -16l-23 -41q16 3 23 3q29 0 47 -17t18 -45q0 -34 -28.5 -55t-75.5 -21q-43 0 -86 21l11 26q33 -15 64 -15q25 0 39 10.5t14 28.5q0 16 -11 25.5t-30 9.5q-7 0 -22 -3l-10 7l42 74q-25 9 -55 9q-14 0 -36 -6l21 169h20q5 -67 36.5 -106.5t81.5 -39.5q32 0 51.5 18
t19.5 47q0 37 -49 85l-58 55q-68 64 -68 120q0 48 35.5 79.5t89.5 31.5q26 0 68 -8q28 -5 45 -5q13 0 25 2l-11 -130h-22q-4 53 -25 79q-29 34 -73 34q-30 0 -48.5 -15.5t-18.5 -40.5q0 -31 49 -76l60 -55q60 -55 60 -119q0 -59 -40.5 -100t-98.5 -41q-13 0 -31 5z" />
    <glyph glyph-name="Scaron" unicode="&#x160;" horiz-adv-x="502" 
d="M501 658l-35 -165h-22q-19 150 -139 150q-49 0 -81.5 -29.5t-32.5 -73.5q0 -55 91 -128l77 -61q49 -40 70.5 -77.5t21.5 -84.5q0 -85 -60.5 -142t-150.5 -57q-41 0 -94 15q-48 15 -69 15q-27 0 -58 -20l44 236h23q0 -85 36 -136q45 -67 122 -67q56 0 94 35.5t38 87.5
q0 29 -17 54.5t-58 60.5l-81 68q-66 55 -87 87.5t-21 81.5q0 73 54 121t136 48q44 0 92 -16q44 -13 58 -13q20 0 49 10zM238 885h36l77 -87l126 87h38l-147 -143h-44z" />
    <glyph glyph-name="scaron" unicode="&#x161;" horiz-adv-x="355" 
d="M330 443l-11 -130h-22q-4 53 -25 79q-29 34 -73 34q-30 0 -48.5 -15.5t-18.5 -40.5q0 -31 49 -76l59 -55q61 -58 61 -120q0 -58 -40 -99t-97 -41q-26 0 -68 14q-21 7 -47 7q-17 0 -37 -6l21 169h19q5 -67 37 -106.5t82 -39.5q32 0 51.5 18t19.5 47q0 38 -50 85l-57 55
q-68 64 -68 121q0 48 35.5 79.5t89.5 31.5q26 0 67 -8q28 -5 46 -5q12 0 25 2zM144 692h32l62 -96l115 96h34l-137 -157h-38z" />
    <glyph glyph-name="Tcommaaccent" unicode="&#x162;" horiz-adv-x="569" 
d="M423 634l-103 -485q-17 -79 -17 -100q0 -13 10.5 -18.5t37.5 -7.5l15 -1v-22h-250v22q63 1 76 16q6 6 9.5 21.5t20.5 95.5l102 479q-115 0 -154.5 -23t-76.5 -113h-21l37 174q90 -5 167 -5h204q68 0 168 5l-33 -174h-22l1 24q0 74 -30 95q-15 10 -39.5 13t-101.5 4z
M162 -230l-9 18q76 29 83 97q-18 -22 -37 -22q-30 0 -30 30q0 22 17 38t40 16q41 0 41 -50q0 -43 -27.5 -76.5t-77.5 -50.5z" />
    <glyph glyph-name="tcommaaccent" unicode="&#x163;" horiz-adv-x="275" 
d="M283 420v-33h-90l-39 -186q-18 -89 -18 -105q0 -24 16 -24q23 0 66 60l15 -13q-44 -74 -74 -103t-61 -29q-46 0 -46 54q0 18 11 72l58 274h-72v27q62 19 92 52.5t60 115.5h34l-34 -162h82zM17 -230l-10 18q76 29 83 97q-16 -22 -37 -22q-30 0 -30 30q0 22 17 38t40 16
q42 0 42 -50q0 -43 -27.5 -76.5t-77.5 -50.5z" />
    <glyph glyph-name="Tcaron" unicode="&#x164;" horiz-adv-x="569" 
d="M423 634l-103 -485q-17 -79 -17 -100q0 -13 10.5 -18.5t37.5 -7.5l15 -1v-22h-250v22q63 1 76 16q6 6 9.5 21.5t20.5 95.5l102 479q-115 0 -154.5 -23t-76.5 -113h-21l37 174q90 -5 167 -5h204q68 0 168 5l-33 -174h-22l1 24q0 74 -30 95q-15 10 -39.5 13t-101.5 4z
M284 885h36l77 -87l126 87h38l-147 -143h-44z" />
    <glyph glyph-name="tcaron" unicode="&#x165;" horiz-adv-x="330" 
d="M284 420v-33h-90l-39 -186q-18 -78 -18 -105q0 -24 16 -24q24 0 65 60l16 -13q-44 -74 -74.5 -103t-61.5 -29q-21 0 -33.5 14.5t-12.5 39.5q0 21 11 72l58 274h-72v27q62 19 92.5 52.5t60.5 115.5h34l-35 -162h83zM286 474l-10 18q76 28 83 97q-17 -22 -36 -22
q-30 0 -30 30q0 22 17 38t40 16q41 0 41 -50q0 -43 -27.5 -76.5t-77.5 -50.5z" />
    <glyph glyph-name="Tbar" unicode="&#x166;" horiz-adv-x="569" 
d="M371 387h112v-37h-120l-43 -201q-17 -81 -17 -100q0 -13 10.5 -18.5t37.5 -7.5l15 -1v-22h-250v22q63 1 76 16q8 9 30 117l42 195h-112v37h120l52 247q-114 0 -154 -23.5t-77 -112.5h-21l37 174q91 -5 167 -5h204q68 0 168 5l-33 -174h-22v24q0 73 -29 95q-15 10 -40 13
t-101 4z" />
    <glyph glyph-name="tbar" unicode="&#x167;" horiz-adv-x="275" 
d="M174 297h82v-37h-90l-12 -59q-18 -83 -18 -105q0 -24 16 -24q24 0 65 60l16 -13q-44 -74 -74.5 -103t-61.5 -29q-21 0 -33.5 14.5t-12.5 39.5q0 21 11 72l31 147h-65v37h73l19 90h-72v27q62 20 92.5 53t59.5 115h35l-35 -162h83v-33h-90z" />
    <glyph glyph-name="utilde" unicode="&#x169;" horiz-adv-x="525" 
d="M415 460h80l-58 -196q-46 -154 -46 -178q0 -19 14 -19q27 0 68 60l17 -13q-39 -57 -56 -76q-41 -50 -81 -50q-19 0 -31 14.5t-12 36.5q0 17 12 60l28 103q-128 -215 -231 -215q-33 0 -53 17.5t-20 46.5q0 21 20 102l42 168q0 1 1.5 5.5t3 10.5t2.5 12q8 28 8 38
q0 12 -23 12q-1 0 -31 -2v22l148 44l-65 -260q-23 -91 -23 -110q0 -39 34 -39t81 46.5t118 149.5zM457 642h23q-24 -86 -84 -86q-16 0 -52 15l-30 13q-27 11 -40 11q-19 0 -42 -39h-24q12 38 20 52q9 14 26 24t34 10q16 0 44 -11l31 -13q31 -14 41 -14q16 0 24.5 5.5
t21.5 22.5q1 2 7 10z" />
    <glyph glyph-name="Umacron" unicode="&#x16a;" horiz-adv-x="698" 
d="M130 667h252v-22q-63 -1 -76 -16q-7 -3 -32 -117l-49 -231q-16 -74 -16 -113q0 -58 41.5 -92t112.5 -34q83 0 131 53q21 23 35 60t32 121l51 242q15 69 15 100q0 13 -10 18.5t-37 7.5q-2 1 -15 1v22h162v-22q-23 -2 -33 -6t-15 -15q-7 -18 -31 -124l-51 -239
q-20 -95 -38.5 -138.5t-51.5 -73.5q-67 -59 -175 -59q-103 0 -162.5 48t-59.5 130q0 38 13 102l53 248q16 77 16 99q0 16 -11 21t-51 7v22zM620 818l-12 -50h-271l11 50h272z" />
    <glyph glyph-name="umacron" unicode="&#x16b;" horiz-adv-x="525" 
d="M415 460h80l-58 -196q-46 -154 -46 -178q0 -19 14 -19q27 0 68 60l17 -13q-39 -57 -56 -76q-41 -50 -81 -50q-19 0 -31 14.5t-12 36.5q0 17 12 60l28 103q-128 -215 -231 -215q-33 0 -53 17.5t-20 46.5q0 21 20 102l42 168q0 1 1.5 5.5t3 10.5t2.5 12q8 28 8 38
q0 12 -23 12q-1 0 -31 -2v22l148 44l-65 -260q-23 -91 -23 -110q0 -39 34 -39t81 46.5t118 149.5zM467 619l-11 -50h-249l12 50h248z" />
    <glyph glyph-name="ubreve" unicode="&#x16d;" horiz-adv-x="525" 
d="M415 460h80l-58 -196q-46 -154 -46 -178q0 -19 14 -19q27 0 68 60l17 -13q-39 -57 -56 -76q-41 -50 -81 -50q-19 0 -31 14.5t-12 36.5q0 17 12 60l28 103q-128 -215 -231 -215q-33 0 -53 17.5t-20 46.5q0 21 20 102l42 168q0 1 1.5 5.5t3 10.5t2.5 12q8 28 8 38
q0 12 -23 12q-1 0 -31 -2v22l148 44l-65 -260q-23 -91 -23 -110q0 -39 34 -39t81 46.5t118 149.5zM460 675h24q-15 -51 -62.5 -90.5t-94.5 -39.5q-51 0 -74 45q-16 31 -16 85h23q5 -36 27.5 -56t57.5 -20q31 0 62 20.5t53 55.5z" />
    <glyph glyph-name="Uring" unicode="&#x16e;" horiz-adv-x="698" 
d="M130 667h252v-22q-63 -1 -76 -16q-7 -3 -32 -117l-49 -231q-16 -74 -16 -113q0 -58 41.5 -92t112.5 -34q83 0 131 53q21 23 35 60t32 121l51 242q15 69 15 100q0 13 -10 18.5t-37 7.5q-2 1 -15 1v22h162v-22q-23 -2 -33 -6t-15 -15q-7 -18 -31 -124l-51 -239
q-20 -95 -38.5 -138.5t-51.5 -73.5q-67 -59 -175 -59q-103 0 -162.5 48t-59.5 130q0 38 13 102l53 248q16 77 16 99q0 16 -11 21t-51 7v22zM479 895q37 0 62.5 -26t25.5 -63q0 -36 -26 -61.5t-62 -25.5q-37 0 -62.5 25.5t-25.5 62.5t25.5 62.5t62.5 25.5zM479 857
q-21 0 -35.5 -15t-14.5 -35q0 -21 14.5 -35.5t35.5 -14.5q20 0 35 15t15 35q0 21 -14.5 35.5t-35.5 14.5z" />
    <glyph glyph-name="uring" unicode="&#x16f;" horiz-adv-x="525" 
d="M415 460h80l-58 -196q-46 -154 -46 -178q0 -19 14 -19q27 0 68 60l17 -13q-39 -57 -56 -76q-41 -50 -81 -50q-19 0 -31 14.5t-12 36.5q0 17 12 60l28 103q-128 -215 -231 -215q-33 0 -53 17.5t-20 46.5q0 21 20 102l42 168q0 1 1.5 5.5t3 10.5t2.5 12q8 28 8 38
q0 12 -23 12q-1 0 -31 -2v22l148 44l-65 -260q-23 -91 -23 -110q0 -39 34 -39t81 46.5t118 149.5zM343 702q37 0 62.5 -26t25.5 -63q0 -36 -26 -61.5t-62 -25.5q-37 0 -62.5 25.5t-25.5 62.5q0 36 25.5 62t62.5 26zM343 664q-20 0 -35 -15t-15 -35q0 -21 15 -35.5t35 -14.5
t35 15t15 35q0 21 -14.5 35.5t-35.5 14.5z" />
    <glyph glyph-name="Uhungarumlaut" unicode="&#x170;" horiz-adv-x="698" 
d="M130 667h252v-22q-63 -1 -76 -16q-7 -3 -32 -117l-49 -231q-16 -74 -16 -113q0 -58 41.5 -92t112.5 -34q83 0 131 53q21 23 35 60t32 121l51 242q15 69 15 100q0 13 -10 18.5t-37 7.5q-2 1 -15 1v22h162v-22q-23 -2 -33 -6t-15 -15q-7 -18 -31 -124l-51 -239
q-20 -95 -38.5 -138.5t-51.5 -73.5q-67 -59 -175 -59q-103 0 -162.5 48t-59.5 130q0 38 13 102l53 248q16 77 16 99q0 16 -11 21t-51 7v22zM394 742h-39l120 111q26 24 31.5 28t15.5 4q31 0 31 -24q0 -19 -32 -39zM562 742h-39l120 111q25 24 31 28t16 4q31 0 31 -24
q0 -19 -32 -39z" />
    <glyph glyph-name="uhungarumlaut" unicode="&#x171;" horiz-adv-x="525" 
d="M415 460h80l-58 -196q-46 -156 -46 -178q0 -19 14 -19q27 0 68 60l17 -13q-34 -50 -56 -76q-41 -50 -81 -50q-19 0 -31 14.5t-12 36.5q0 17 40 163q-128 -215 -231 -215q-33 0 -53 17.5t-20 46.5q0 23 20 102l42 168q0 1 1.5 5.5t3 10.5t2.5 12q8 29 8 38q0 12 -23 12
q-1 0 -31 -2v22l148 44l-65 -260q-23 -91 -23 -110q0 -39 34 -39t81 46.5t118 149.5zM271 534h-30l95 121q19 26 26 32t18 6q12 0 19.5 -6.5t7.5 -17.5q0 -14 -31 -43zM405 534h-31l95 121q19 26 26.5 32t18.5 6t18.5 -7t7.5 -17q0 -16 -31 -43z" />
    <glyph glyph-name="Uogonek" unicode="&#x172;" horiz-adv-x="698" 
d="M472 -117l-15 -39q-34 -11 -58 -11q-33 0 -54 16.5t-21 43.5q0 28 17.5 49t68.5 57q-42 -9 -76 -9q-104 0 -164 47.5t-60 130.5q0 38 13 102l53 248q16 77 16 99q0 16 -11 21t-51 7v22h252v-22q-63 -1 -76 -16q-7 -3 -32 -117l-49 -231q-16 -74 -16 -113q0 -58 41.5 -92
t112.5 -34q83 0 131 53q21 23 35 60t32 121l51 242q15 69 15 100q0 13 -10 18.5t-37 7.5q-2 1 -15 1v22h162v-22q-23 -2 -33 -6t-15 -15q-7 -18 -31 -124l-51 -239q-23 -108 -45 -152.5t-76 -89.5q-90 -74 -90 -110q0 -32 43 -32q21 0 43 6z" />
    <glyph glyph-name="uogonek" unicode="&#x173;" horiz-adv-x="525" 
d="M431 -119l-15 -37q-32 -11 -56 -11q-35 0 -56 16.5t-21 43.5t17.5 48.5t58.5 46.5h-4q-19 -1 -32 13.5t-13 37.5q0 17 40 163q-128 -215 -231 -215q-33 0 -53 17.5t-20 46.5q0 23 20 102l42 168q0 1 1.5 5.5t3 10.5t2.5 12q8 29 8 38q0 12 -23 12q-1 0 -31 -2v22l148 44
l-65 -260q-23 -91 -23 -110q0 -39 34 -39t81 46.5t118 149.5l53 210h80l-58 -196q-46 -156 -46 -178q0 -19 14 -19q27 0 68 60l17 -13q-46 -68 -108 -137q-39 -46 -39 -72q0 -30 44 -30q21 0 44 6z" />
    <glyph glyph-name="Wcircumflex" unicode="&#x174;" horiz-adv-x="860" 
d="M569 -20h-12l-64 491l-266 -491h-10l-70 520q-9 60 -13 85q-4 37 -12 45.5t-41 13.5l-19 1v22h237v-22q-47 -2 -58.5 -7t-11.5 -24q0 -7 7 -67l50 -389l200 374l-9 63q-4 31 -13.5 39t-38.5 10l-17 1v22h233v-22q-47 -3 -58 -8t-11 -24q0 -9 6 -66l48 -389l214 395
q28 56 28 73q0 10 -11.5 14t-45.5 5v22h149v-22q-20 -5 -35 -26.5t-83 -143.5zM680 742h-36l-77 87l-125 -87h-39l147 143h45z" />
    <glyph glyph-name="Ycircumflex" unicode="&#x176;" horiz-adv-x="578" 
d="M356 299l-31 -150q-17 -90 -17 -100q0 -13 10 -18.5t37 -7.5l15 -1v-22h-246v22q63 1 76 16q8 10 31 117l30 144l-85 222q-2 6 -13.5 34t-17.5 43q-11 28 -21 35t-41 10q-1 0 -3.5 0.5t-7 1t-7.5 0.5v22h241v-22q-44 -4 -49 -5q-14 -5 -14 -18q0 -9 17 -56l84 -227
l150 191q54 68 63 80.5t9 19.5q0 13 -29 14q-8 0 -23 1v22h173v-22q-38 -3 -58 -18.5t-78 -87.5zM542 742h-36l-77 87l-125 -87h-38l147 143h44z" />
    <glyph glyph-name="ycircumflex" unicode="&#x177;" horiz-adv-x="455" 
d="M35 400l116 60q44 -62 83 -187.5t40 -204.5q43 73 76 156.5t33 121.5q0 11 -4.5 15t-18.5 7q-24 4 -24 35q0 30 9 40.5t34 10.5q34 0 49 -12t15 -40q0 -63 -61.5 -194.5t-144.5 -244.5q-79 -107 -125 -139q-25 -17 -52 -17q-22 0 -31 13t-9 47q0 28 7 37t30 9
q18 0 25.5 -5t11.5 -20q4 -14 14 -14q14 0 46.5 34t64.5 82q-13 133 -70 291q-25 68 -36 88.5t-23 20.5q-13 0 -48 -11zM414 535h-32l-63 96l-115 -96h-33l136 157h39z" />
    <glyph glyph-name="Ydieresis" unicode="&#x178;" horiz-adv-x="578" 
d="M356 299l-31 -150q-17 -90 -17 -100q0 -13 10 -18.5t37 -7.5l15 -1v-22h-246v22q63 1 76 16q8 10 31 117l30 144l-85 222q-2 6 -13.5 34t-17.5 43q-11 28 -21 35t-41 10q-1 0 -3.5 0.5t-7 1t-7.5 0.5v22h241v-22q-44 -4 -49 -5q-14 -5 -14 -18q0 -9 17 -56l84 -227
l150 191q54 68 63 80.5t9 19.5q0 13 -29 14q-8 0 -23 1v22h173v-22q-38 -3 -58 -18.5t-78 -87.5zM337 854q17 0 28.5 -13t11.5 -32q0 -23 -15.5 -40t-36.5 -17q-17 0 -28.5 13t-11.5 32q0 23 15.5 40t36.5 17zM507 854q17 0 28.5 -13t11.5 -32q0 -23 -15.5 -40t-36.5 -17
q-17 0 -28.5 13t-11.5 32q0 23 15.5 40t36.5 17z" />
    <glyph glyph-name="Zacute" unicode="&#x179;" horiz-adv-x="620" 
d="M636 667l-484 -625h165q112 0 154 23.5t79 106.5h23l-43 -172h-528l486 625h-141q-92 0 -133 -21.5t-75 -88.5h-22l49 152h470zM388 742h-40l133 109q29 23 38 28.5t21 5.5q11 0 19 -7t8 -17q0 -23 -37 -42z" />
    <glyph glyph-name="zacute" unicode="&#x17a;" horiz-adv-x="403" 
d="M353 121l-40 -128q-90 7 -122 7h-53q-54 0 -131 -7q42 102 177 235q26 25 67 68q48 49 72 72q-35 -5 -68 -5h-82q-43 0 -59.5 -9t-31.5 -40h-20l40 126q34 -7 71 -7h105q56 0 123 7q-14 -37 -36 -65.5t-80 -87.5q-142 -141 -198 -223q45 6 100 6h59q40 0 58 10.5t29 40.5
h20zM248 534h-36l118 122q25 26 32.5 31.5t18.5 5.5t18.5 -8t7.5 -19q0 -18 -38 -46z" />
    <glyph glyph-name="Zdotaccent" unicode="&#x17b;" horiz-adv-x="620" 
d="M636 667l-484 -625h165q112 0 154 23.5t79 106.5h23l-43 -172h-528l486 625h-141q-92 0 -133 -21.5t-75 -88.5h-22l49 152h470zM425 854q17 0 28.5 -13t11.5 -32q0 -23 -15.5 -40t-36.5 -17q-17 0 -28.5 13t-11.5 32q0 23 15.5 40t36.5 17z" />
    <glyph glyph-name="zdotaccent" unicode="&#x17c;" horiz-adv-x="403" 
d="M353 121l-40 -128q-90 7 -122 7h-53q-54 0 -131 -7q42 102 177 235q26 25 67 68q48 49 72 72q-35 -5 -68 -5h-82q-43 0 -59.5 -9t-31.5 -40h-20l40 126q34 -7 71 -7h105q56 0 123 7q-14 -37 -36 -65.5t-80 -87.5q-142 -141 -198 -223q45 6 100 6h59q40 0 58 10.5t29 40.5
h20zM280 655q17 0 28.5 -13t11.5 -32q0 -23 -15.5 -40t-36.5 -17q-17 0 -28.5 13t-11.5 32q0 23 15.5 40t36.5 17z" />
    <glyph glyph-name="Zcaron" unicode="&#x17d;" horiz-adv-x="620" 
d="M636 667l-484 -625h165q112 0 154 23.5t79 106.5h23l-43 -172h-528l486 625h-141q-92 0 -133 -21.5t-75 -88.5h-22l49 152h470zM297 885h36l77 -87l125 87h38l-146 -143h-45z" />
    <glyph glyph-name="zcaron" unicode="&#x17e;" horiz-adv-x="403" 
d="M353 121l-40 -128q-90 7 -122 7h-53q-54 0 -131 -7q42 102 177 235q26 25 67 68q48 49 72 72q-35 -5 -68 -5h-82q-43 0 -59.5 -9t-31.5 -40h-20l40 126q34 -7 71 -7h105q56 0 123 7q-14 -37 -36 -65.5t-80 -87.5q-142 -141 -198 -223q45 6 100 6h59q40 0 58 10.5t29 40.5
h20zM174 692h32l63 -96l115 96h33l-136 -157h-39z" />
    <glyph glyph-name="florin" unicode="&#x192;" horiz-adv-x="540" 
d="M459 420v-41h-109l-104 -358q-31 -105 -84.5 -159.5t-126.5 -54.5q-31 0 -49.5 15.5t-18.5 41.5t12.5 42t32.5 16q16 0 25.5 -9t9.5 -23q0 -7 -6 -30l-1 -9q0 -13 14 -13q21 0 42 23q33 36 59 128l111 390h-88v41h100l23 75q43 136 113 185q44 30 96 30q32 0 51 -15.5
t19 -41.5t-12.5 -42t-32.5 -16q-16 0 -25.5 9t-9.5 23q0 5 6 30l1 9q0 13 -15 13q-57 0 -100 -151l-30 -108h97z" />
    <glyph glyph-name="uni01CD" unicode="&#x1cd;" horiz-adv-x="617" 
d="M403 228h-230l-88 -143q-19 -32 -19 -43t10 -15t41 -5v-22h-155v22q29 3 42 16q9 8 32 44l57 87l328 523h17l66 -515q12 -88 16 -109t12 -32q9 -11 52 -14v-22h-220v22h12q29 1 37.5 6.5t8.5 25.5q0 16 -3 44zM399 261l-33 281l-172 -281h205zM322 885h36l77 -87l126 87
h38l-147 -143h-44z" />
    <glyph glyph-name="uni01CE" unicode="&#x1ce;" horiz-adv-x="479" 
d="M384 453h68q-24 -73 -50 -167l-43 -147q-21 -78 -21 -85q0 -15 14 -15q22 0 69 62l15 -11q-43 -60 -71.5 -84t-57.5 -24q-39 0 -39 38q0 17 16 81l13 50q-58 -92 -100.5 -131.5t-84.5 -39.5q-41 0 -65.5 31t-24.5 83q0 79 40 164t101.5 140t118.5 55q70 0 79 -79z
M285 428q-76 0 -143 -142q-43 -93 -43 -166q0 -32 15.5 -52t40.5 -20q46 0 108 87q38 53 61 111t23 98t-16.5 62t-45.5 22zM232 692h32l62 -96l115 96h34l-137 -157h-39z" />
    <glyph glyph-name="uni01D1" unicode="&#x1d1;" horiz-adv-x="305" 
d="M200 485h23l-61 -406q-9 -61 -22 -83t-40 -22q-21 0 -34 13.5t-13 35.5q0 17 21 81zM250 674q20 0 33.5 -13.5t13.5 -33.5q0 -24 -18 -42t-42 -18q-20 0 -33.5 13.5t-13.5 33.5q0 24 18 42t42 18z" />
    <glyph glyph-name="uni01D3" unicode="&#x1d3;" horiz-adv-x="698" 
d="M130 667h252v-22q-63 -1 -76 -16q-7 -3 -32 -117l-49 -231q-16 -74 -16 -113q0 -58 41.5 -92t112.5 -34q83 0 131 53q21 23 35 60t32 121l51 242q15 69 15 100q0 13 -10 18.5t-37 7.5q-2 1 -15 1v22h162v-22q-23 -2 -33 -6t-15 -15q-7 -18 -31 -124l-51 -239
q-20 -95 -38.5 -138.5t-51.5 -73.5q-67 -59 -175 -59q-103 0 -162.5 48t-59.5 130q0 38 13 102l53 248q16 77 16 99q0 16 -11 21t-51 7v22zM356 885h36l77 -87l125 87h38l-146 -143h-45z" />
    <glyph glyph-name="uni01D4" unicode="&#x1d4;" horiz-adv-x="525" 
d="M415 460h80l-58 -196q-46 -154 -46 -178q0 -19 14 -19q27 0 68 60l17 -13q-39 -57 -56 -76q-41 -50 -81 -50q-19 0 -31 14.5t-12 36.5q0 17 12 60l28 103q-128 -215 -231 -215q-33 0 -53 17.5t-20 46.5q0 21 20 102l42 168q0 1 1.5 5.5t3 10.5t2.5 12q8 28 8 38
q0 12 -23 12q-1 0 -31 -2v22l148 44l-65 -260q-23 -91 -23 -110q0 -39 34 -39t81 46.5t118 149.5zM242 692h32l63 -96l115 96h33l-136 -157h-39z" />
    <glyph glyph-name="Gcaron" unicode="&#x1e6;" horiz-adv-x="737" 
d="M709 654l-41 -192h-20q-11 183 -171 183q-81 0 -154 -53t-117 -141t-44 -187q0 -98 59 -163.5t148 -65.5q32 0 66 9.5t52 22.5q16 12 27 62l23 110q8 38 8 46q0 14 -11.5 18.5t-51.5 8.5v22h244v-22q-52 -3 -68 -10q-10 -4 -15 -16t-13 -50l-37 -173q-73 -40 -129 -56.5
t-124 -16.5q-130 0 -207 73t-77 198q0 110 57 206t154 153t207 57q54 0 147 -23q27 -6 48 -6q9 0 40 6zM385 885h36l77 -87l125 87h39l-147 -143h-45z" />
    <glyph glyph-name="gcaron" unicode="&#x1e7;" horiz-adv-x="423" 
d="M170 72l90 -25q64 -18 87 -36q30 -25 30 -72q0 -65 -62 -108.5t-156 -43.5q-81 0 -130 32.5t-49 85.5q0 83 113 120q-32 10 -44.5 20.5t-12.5 25.5q0 18 17 34.5t67 45.5q-35 22 -49.5 47t-14.5 62q0 76 56 134.5t130 58.5q47 0 84 -33q39 42 73 42q19 0 31 -12t12 -30
q0 -17 -11 -28.5t-27 -11.5q-23 0 -32 27q-4 11 -12 11q-6 0 -23 -11q35 -36 35 -90q0 -71 -55 -130t-122 -59q-21 0 -54 11q-33 -27 -33 -40q0 -7 9.5 -11t52.5 -16zM247 422q-38 0 -66 -39q-48 -63 -48 -135q0 -31 17.5 -53t43.5 -22q38 0 68 50q40 71 40 130
q0 32 -14.5 50.5t-40.5 18.5zM124 14l-13 4q-28 -36 -37 -55t-9 -43q0 -44 36 -71.5t95 -27.5q55 0 93.5 27.5t38.5 66.5q0 24 -21.5 39.5t-74.5 29.5l-81 22q-15 4 -27 8zM183 692h32l62 -96l115 96h34l-137 -157h-39z" />
    <glyph glyph-name="uni01F4" unicode="&#x1f4;" horiz-adv-x="737" 
d="M709 654l-41 -192h-20q-11 183 -171 183q-81 0 -154 -53t-117 -141t-44 -187q0 -98 59 -163.5t148 -65.5q32 0 66 9.5t52 22.5q16 12 27 62l23 110q8 38 8 46q0 14 -11.5 18.5t-51.5 8.5v22h244v-22q-52 -3 -68 -10q-10 -4 -15 -16t-13 -50l-37 -173q-73 -40 -129 -56.5
t-124 -16.5q-130 0 -207 73t-77 198q0 110 57 206t154 153t207 57q54 0 147 -23q27 -6 48 -6q9 0 40 6zM473 742h-40l133 109q27 23 37 28.5t22 5.5q11 0 19 -7t8 -17q0 -22 -37 -42z" />
    <glyph glyph-name="Scommaaccent" unicode="&#x218;" horiz-adv-x="502" 
d="M501 658l-35 -165h-22q-19 150 -139 150q-49 0 -81.5 -29.5t-32.5 -73.5q0 -29 20.5 -58t70.5 -70l77 -61q50 -40 71 -77.5t21 -84.5q0 -85 -60.5 -142t-150.5 -57q-41 0 -94 15q-48 15 -69 15q-27 0 -58 -20l44 236h23q0 -85 36 -136q45 -67 122 -67q56 0 94 35.5
t38 87.5q0 29 -17 54.5t-58 60.5l-81 68q-66 55 -87 87.5t-21 81.5q0 73 54 121t136 48q44 0 92 -16q44 -13 58 -13q20 0 49 10zM133 -230l-10 18q76 28 83 97q-17 -22 -36 -22q-30 0 -30 30q0 22 17 38t40 16q41 0 41 -50q0 -43 -27.5 -76.5t-77.5 -50.5z" />
    <glyph glyph-name="scommaaccent" unicode="&#x219;" horiz-adv-x="355" 
d="M330 443l-11 -130h-22q-4 53 -25 79q-29 34 -73 34q-30 0 -48.5 -15.5t-18.5 -40.5q0 -31 49 -76l59 -55q61 -58 61 -120q0 -58 -40 -99t-97 -41q-26 0 -68 14q-21 7 -47 7q-17 0 -37 -6l21 169h19q5 -67 37 -106.5t82 -39.5q32 0 51.5 18t19.5 47q0 38 -50 85l-57 55
q-68 64 -68 121q0 48 35.5 79.5t89.5 31.5q26 0 67 -8q28 -5 46 -5q12 0 25 2zM56 -230l-10 18q41 15 60.5 38t22.5 59q-16 -22 -36 -22q-30 0 -30 30q0 22 17 38t40 16q41 0 41 -50q0 -43 -27.5 -76.5t-77.5 -50.5z" />
    <glyph glyph-name="uni021A" unicode="&#x21a;" horiz-adv-x="569" 
d="M423 634l-103 -485q-17 -79 -17 -100q0 -13 10.5 -18.5t37.5 -7.5l15 -1v-22h-250v22q63 1 76 16q6 6 9.5 21.5t20.5 95.5l102 479q-115 0 -154.5 -23t-76.5 -113h-21l37 174q90 -5 167 -5h204q68 0 168 5l-33 -174h-22l1 24q0 74 -30 95q-15 10 -39.5 13t-101.5 4z
M162 -230l-9 18q76 29 83 97q-18 -22 -37 -22q-30 0 -30 30q0 22 17 38t40 16q41 0 41 -50q0 -43 -27.5 -76.5t-77.5 -50.5z" />
    <glyph glyph-name="uni021B" unicode="&#x21b;" horiz-adv-x="275" 
d="M283 420v-33h-90l-39 -186q-18 -89 -18 -105q0 -24 16 -24q23 0 66 60l15 -13q-44 -74 -74 -103t-61 -29q-46 0 -46 54q0 18 11 72l58 274h-72v27q62 19 92 52.5t60 115.5h34l-34 -162h82zM17 -230l-10 18q76 29 83 97q-16 -22 -37 -22q-30 0 -30 30q0 22 17 38t40 16
q42 0 42 -50q0 -43 -27.5 -76.5t-77.5 -50.5z" />
    <glyph glyph-name="afii57929" unicode="&#x2bc;" horiz-adv-x="265" 
d="M122 442l-8 15q52 22 79 51t43 81q-19 -20 -35 -20t-26 12t-10 31q0 25 17 43.5t40 18.5q25 0 39 -18t14 -49q0 -54 -41.5 -98.5t-111.5 -66.5z" />
    <glyph glyph-name="circumflex" unicode="&#x2c6;" 
d="M436 535h-32l-62 96l-116 -96h-33l137 157h38z" />
    <glyph glyph-name="caron" unicode="&#x2c7;" 
d="M226 692h32l62 -96l115 96h34l-137 -157h-38z" />
    <glyph glyph-name="uni02C9" unicode="&#x2c9;" 
d="M454 619l-11 -50h-249l12 50h248z" />
    <glyph glyph-name="breve" unicode="&#x2d8;" 
d="M444 675h24q-16 -52 -63 -91t-94 -39q-51 0 -74 45q-16 31 -16 85h23q5 -36 27.5 -56t57.5 -20q31 0 62 20.5t53 55.5z" />
    <glyph glyph-name="dotaccent" unicode="&#x2d9;" 
d="M336 655q17 0 28.5 -13t11.5 -32q0 -23 -15.5 -40t-36.5 -17q-17 0 -28.5 13t-11.5 32q0 23 15.5 40t36.5 17z" />
    <glyph glyph-name="ring" unicode="&#x2da;" 
d="M331 702q37 0 62.5 -26t25.5 -63q0 -36 -26 -61.5t-62 -25.5q-37 0 -62.5 25.5t-25.5 62.5t25.5 62.5t62.5 25.5zM331 664q-21 0 -35.5 -15t-14.5 -35q0 -21 14.5 -35.5t35.5 -14.5q20 0 35 15t15 35q0 21 -14.5 35.5t-35.5 14.5z" />
    <glyph glyph-name="ogonek" unicode="&#x2db;" 
d="M238 0h52q-80 -55 -80 -94q0 -31 45 -31q20 0 43 6l-15 -37q-32 -11 -56 -11q-35 0 -56 16.5t-21 43.5q0 51 88 107z" />
    <glyph glyph-name="tilde" unicode="&#x2dc;" 
d="M443 642h23q-24 -86 -84 -86q-16 0 -52 15l-30 13q-28 11 -40 11q-18 0 -41 -39h-25q11 37 20 52q9 14 26 24t34 10q16 0 44 -11l31 -13q31 -14 41 -14q16 0 24.5 5.5t21.5 22.5q1 2 7 10z" />
    <glyph glyph-name="hungarumlaut" unicode="&#x2dd;" 
d="M257 534h-30l95 121q19 26 26 32t18 6q12 0 19.5 -6.5t7.5 -17.5q0 -14 -31 -43zM391 534h-31l95 121q19 26 26.5 32t18.5 6t18.5 -7t7.5 -17q0 -16 -31 -43z" />
    <glyph glyph-name="uni0387" unicode="&#x387;" horiz-adv-x="240" 
d="M128 280q20 0 33.5 -13.5t13.5 -33.5q0 -24 -18 -42t-42 -18q-20 0 -33.5 13.5t-13.5 33.5q0 24 18 42t42 18z" />
    <glyph glyph-name="Wacute" unicode="&#x1e82;" horiz-adv-x="302" 
d="M257 260v-67h-208v67h208z" />
    <glyph glyph-name="Wdieresis" unicode="&#x1e84;" horiz-adv-x="860" 
d="M569 -20h-12l-64 491l-266 -491h-10l-70 520q-9 60 -13 85q-4 37 -12 45.5t-41 13.5l-19 1v22h237v-22q-47 -2 -58.5 -7t-11.5 -24q0 -7 7 -67l50 -389l200 374l-9 63q-4 31 -13.5 39t-38.5 10l-17 1v22h233v-22q-47 -3 -58 -8t-11 -24q0 -9 6 -66l48 -389l214 395
q28 56 28 73q0 10 -11.5 14t-45.5 5v22h149v-22q-20 -5 -35 -26.5t-83 -143.5zM475 854q17 0 28.5 -13t11.5 -32q0 -23 -15.5 -40t-36.5 -17q-17 0 -28.5 13t-11.5 32q0 23 15.5 40t36.5 17zM645 854q17 0 28.5 -13t11.5 -32q0 -23 -15.5 -40t-36.5 -17q-17 0 -28.5 13
t-11.5 32q0 23 15.5 40t36.5 17z" />
    <glyph glyph-name="uni2002" unicode="&#x2002;" 
 />
    <glyph glyph-name="uni2003" unicode="&#x2003;" horiz-adv-x="1000" 
 />
    <glyph glyph-name="uni2004" unicode="&#x2004;" horiz-adv-x="333" 
 />
    <glyph glyph-name="uni2005" unicode="&#x2005;" horiz-adv-x="250" 
 />
    <glyph glyph-name="uni2006" unicode="&#x2006;" horiz-adv-x="67" 
 />
    <glyph glyph-name="uni2007" unicode="&#x2007;" horiz-adv-x="540" 
 />
    <glyph glyph-name="uni2009" unicode="&#x2009;" horiz-adv-x="125" 
 />
    <glyph glyph-name="uni200A" unicode="&#x200a;" horiz-adv-x="33" 
 />
    <glyph glyph-name="uni2011" unicode="&#x2011;" horiz-adv-x="222" 
d="M217 260v-67h-208v67h208z" />
    <glyph glyph-name="figuredash" unicode="&#x2012;" horiz-adv-x="540" 
d="M442 253v-53h-341v53h341z" />
    <glyph glyph-name="endash" unicode="&#x2013;" horiz-adv-x="540" 
d="M442 253v-53h-341v53h341z" />
    <glyph glyph-name="emdash" unicode="&#x2014;" horiz-adv-x="596" 
d="M592 253v-53h-585v53h585z" />
    <glyph glyph-name="afii00208" unicode="&#x2015;" horiz-adv-x="596" 
d="M592 253v-53h-585v53h585z" />
    <glyph glyph-name="underscoredbl" unicode="&#x2017;" 
d="M23 -37h454v-42h-454v42zM23 -139h454v-42h-454v42z" />
    <glyph glyph-name="quoteleft" unicode="&#x2018;" horiz-adv-x="265" 
d="M287 674l8 -15q-52 -22 -79.5 -51t-43.5 -81q20 20 36 20t26 -12t10 -31q0 -25 -17 -43.5t-40 -18.5q-25 0 -39 18t-14 49q0 53 41.5 98t111.5 67z" />
    <glyph glyph-name="quoteright" unicode="&#x2019;" horiz-adv-x="265" 
d="M122 442l-8 15q52 22 79 51t43 81q-19 -20 -35 -20t-26 12t-10 31q0 25 17 43.5t40 18.5q25 0 39 -18t14 -49q0 -54 -41.5 -98.5t-111.5 -66.5z" />
    <glyph glyph-name="quotesinglbase" unicode="&#x201a;" horiz-adv-x="265" 
d="M0 -132l-8 15q52 22 78.5 51t43.5 81q-19 -20 -35 -20t-26 12t-10 31q0 25 17 43.5t40 18.5q25 0 39 -18t14 -49q0 -53 -41.5 -98t-111.5 -67z" />
    <glyph glyph-name="quotedblleft" unicode="&#x201c;" horiz-adv-x="438" 
d="M461 674l7 -15q-52 -22 -78.5 -51t-43.5 -81q19 20 35 20t26.5 -12t10.5 -31q0 -26 -17 -44t-41 -18q-25 0 -39 18t-14 49q0 53 42 98t112 67zM287 674l8 -15q-52 -22 -79.5 -51t-43.5 -81q20 20 36 20t26 -12t10 -31q0 -25 -17 -43.5t-40 -18.5q-25 0 -39 18t-14 49
q0 53 41.5 98t111.5 67z" />
    <glyph glyph-name="quotedblright" unicode="&#x201d;" horiz-adv-x="438" 
d="M122 442l-8 15q52 22 79 51t43 81q-19 -20 -35 -20t-26 12t-10 31q0 25 17 43.5t40 18.5q25 0 39 -18t14 -49q0 -54 -41.5 -98.5t-111.5 -66.5zM295 442l-8 15q52 22 79.5 51t43.5 81q-20 -20 -36 -20t-26 12t-10 31q0 25 17 43.5t40 18.5q25 0 39 -18t14 -49
q0 -54 -41.5 -99t-111.5 -66z" />
    <glyph glyph-name="quotedblbase" unicode="&#x201e;" horiz-adv-x="438" 
d="M0 -132l-8 15q52 22 78.5 51t43.5 81q-19 -20 -35 -20t-26 12t-10 31q0 25 17 43.5t40 18.5q25 0 39 -18t14 -49q0 -53 -41.5 -98t-111.5 -67zM173 -132l-8 15q52 22 79.5 51t43.5 81q-20 -20 -36 -20t-26 12t-10 31q0 25 17 43.5t40 18.5q25 0 39 -18t14 -49
q0 -53 -41.5 -98t-111.5 -67z" />
    <glyph glyph-name="dagger" unicode="&#x2020;" horiz-adv-x="499" 
d="M330 667h32l9 -32q5 -18 5 -25q0 -20 -20 -54q-31 -48 -49 -121q38 1 93 27q12 5 27 5q19 0 37 -8l32 -14v-34l-37 -18q-18 -9 -30 -9q-11 0 -64 20q-27 10 -62 10q-10 -59 -10 -89q0 -10 2 -68q1 -7 1 -17q0 -16 -15 -57q-15 -40 -22 -65l-71 -244h-21l34 244q6 54 9 93
q2 30 25 77q31 61 47 126q-31 -1 -48 -6q-15 -5 -27 -10q-15 -5 -19 -7q-21 -7 -31 -7q-11 0 -29 9l-37 18v34l32 14q18 8 37 8q15 0 43 -13q49 -19 83 -19q7 35 7 83q0 15 -4 38q-2 18 -2 23q0 27 20 56z" />
    <glyph glyph-name="daggerdbl" unicode="&#x2021;" horiz-adv-x="506" 
d="M334 667h32l9 -32q4 -20 4 -25q0 -21 -31 -74q-25 -47 -37 -101q36 1 93 27q12 5 26 5q20 0 38 -8l32 -14v-34l-38 -18q-17 -9 -29 -9t-64 20q-29 10 -62 10q-10 -50 -10 -87q0 -10 1 -18v-19q0 -22 -17 -58q-17 -38 -35 -106q37 1 92 28q13 5 27 5q17 0 37 -9l32 -14
v-34l-37 -18q-19 -9 -29 -9q-11 0 -65 20q-27 10 -62 11q-7 -36 -7 -82q0 -10 5 -39q2 -18 2 -24q0 -25 -21 -55l-23 -32h-31l-10 32q-4 20 -4 25q0 19 31 74q26 52 37 101q-32 -2 -48 -7q-2 -1 -11 -4t-16 -6q-12 -4 -19 -7q-21 -7 -30 -7q-11 0 -29 9l-38 18v34l32 14
q20 9 38 9q14 0 42 -13q45 -19 83 -20q9 53 9 88v16q-1 12 -1 23q0 19 18 57q18 40 35 104q-30 -1 -48 -6l-46 -17q-20 -7 -30 -7q-11 0 -29 9l-37 18v34l32 14q18 8 37 8q15 0 43 -13q49 -19 82 -19q8 38 8 82q0 9 -5 39q-2 18 -2 23q0 26 21 56z" />
    <glyph glyph-name="bullet" unicode="&#x2022;" horiz-adv-x="667" 
d="M337 477q55 0 95.5 -41t40.5 -97q0 -58 -40.5 -98.5t-97.5 -40.5t-98 40.5t-41 97.5q0 58 41 98.5t100 40.5z" />
    <glyph glyph-name="ellipsis" unicode="&#x2026;" horiz-adv-x="720" 
d="M90 100q20 0 33.5 -13.5t13.5 -33.5q0 -24 -18 -42t-42 -18q-20 0 -33.5 13.5t-13.5 33.5q0 24 18 42t42 18zM330 100q20 0 33.5 -13.5t13.5 -33.5q0 -24 -18 -42t-42 -18q-20 0 -33.5 13.5t-13.5 33.5q0 24 18 42t42 18zM570 100q20 0 33.5 -13.5t13.5 -33.5
q0 -24 -18 -42t-42 -18q-20 0 -33.5 13.5t-13.5 33.5q0 24 18 42t42 18z" />
    <glyph glyph-name="perthousand" unicode="&#x2030;" horiz-adv-x="1066" 
d="M261 657q49 0 75.5 -31t26.5 -87q0 -94 -52.5 -168t-118.5 -74q-46 0 -73 32.5t-27 88.5q0 98 50 168.5t119 70.5zM254 625q-40 0 -70.5 -61t-30.5 -142q0 -40 13.5 -63.5t36.5 -23.5q29 0 52 36q20 30 33.5 79t13.5 89q0 86 -48 86zM601 680l27 -18l-433 -677l-26 17z
M598 350q48 0 74.5 -31t26.5 -87q0 -94 -52 -168t-118 -74q-46 0 -73 32.5t-27 88.5q0 98 50 168.5t119 70.5zM590 318q-40 0 -70 -61t-30 -142q0 -40 13.5 -63.5t36.5 -23.5q35 0 66.5 65t31.5 139q0 86 -48 86zM918 350q48 0 74.5 -31t26.5 -87q0 -94 -52 -168t-118 -74
q-46 0 -73 32.5t-27 88.5q0 98 50 168.5t119 70.5zM910 318q-40 0 -70 -61t-30 -142q0 -40 13.5 -63.5t36.5 -23.5q35 0 66.5 65t31.5 139q0 86 -48 86z" />
    <glyph glyph-name="guilsinglleft" unicode="&#x2039;" horiz-adv-x="251" 
d="M178 47h-42q-42 115 -105 178q104 88 172 182h52q-78 -131 -145 -182q36 -67 68 -178z" />
    <glyph glyph-name="guilsinglright" unicode="&#x203a;" horiz-adv-x="251" 
d="M77 407h42q39 -110 105 -178q-101 -85 -173 -182h-51q80 134 145 182q-39 71 -68 178z" />
    <glyph glyph-name="exclamdbl" unicode="&#x203c;" horiz-adv-x="496" 
d="M163 204h-25q-2 75 -19 250q-7 74 -7 112q0 47 11 79t27 32t27 -31.5t11 -77.5q0 -36 -14 -188q-11 -134 -11 -176zM151 69q15 0 26 -11t11 -27t-11 -27t-27 -11t-27 11t-11 27t11.5 27t27.5 11zM358 204h-25q-2 76 -19 250q-7 78 -7 114q0 45 11 77t27 32t27 -32t11 -79
q0 -38 -14 -186q-11 -132 -11 -176zM345 69q16 0 27 -11t11 -27t-11 -27t-27 -11t-27 11t-11 27t11 27t27 11z" />
    <glyph glyph-name="uni203E" unicode="&#x203e;" 
d="M23 842h454v-42h-454v42z" />
    <glyph glyph-name="fraction" unicode="&#x2044;" horiz-adv-x="132" 
d="M293 680l26 -18l-433 -677l-26 17z" />
    <glyph glyph-name="zerosuperior" unicode="&#x2070;" horiz-adv-x="353" 
d="M265 661q54 0 84 -35t30 -98q0 -50 -18.5 -105t-47.5 -93q-55 -69 -122 -69q-52 0 -82 36.5t-30 100.5q0 108 55 185.5t131 77.5zM257 633q-46 0 -81 -69t-35 -161q0 -50 16 -78.5t45 -28.5q47 0 83 82q32 73 32 151q0 49 -15.5 76.5t-44.5 27.5z" />
    <glyph glyph-name="foursuperior" unicode="&#x2074;" horiz-adv-x="353" 
d="M369 423l-9 -41h-69l-25 -115h-58l24 115h-154v44l231 238h40l-51 -241h71zM241 423l36 169l-163 -169h127z" />
    <glyph glyph-name="fivesuperior" unicode="&#x2075;" horiz-adv-x="353" 
d="M361 659l-21 -58h-159l-27 -78q32 17 61 17q56 0 91 -33t35 -86q0 -67 -47 -113.5t-115 -46.5q-34 0 -56.5 11t-50.5 40l18 16q42 -35 82 -35q44 0 75.5 32.5t31.5 78.5q0 41 -25.5 66t-66.5 25q-30 0 -75 -18l61 178h141h15q6 0 14 4h18z" />
    <glyph glyph-name="sixsuperior" unicode="&#x2076;" horiz-adv-x="353" 
d="M366 649l-5 -22q-33 8 -50 8q-47 0 -82 -30q-22 -18 -37 -43t-32 -74q29 26 50 36t48 10q46 0 74.5 -30.5t28.5 -79.5q0 -65 -45.5 -114t-106.5 -49q-56 0 -88.5 36.5t-32.5 100.5q0 56 21.5 110.5t58.5 93.5q56 59 131 59q28 0 67 -12zM155 459q-5 -34 -5 -64
q0 -98 73 -98q37 0 61.5 29t24.5 72q0 40 -24 66.5t-59 26.5q-33 0 -71 -32z" />
    <glyph glyph-name="sevensuperior" unicode="&#x2077;" horiz-adv-x="353" 
d="M116 584l24 71h250q-7 -13 -54 -94q-116 -205 -150 -294h-64l117 206l75 126h-135q-24 0 -29 -2t-12 -13h-22z" />
    <glyph glyph-name="eightsuperior" unicode="&#x2078;" horiz-adv-x="353" 
d="M272 477q40 -34 56 -58t16 -52q0 -45 -40 -77q-35 -29 -99 -29q-63 0 -97.5 24.5t-34.5 68.5q0 88 123 120q-55 51 -55 95q0 41 35 66.5t91 25.5q53 0 81.5 -21t28.5 -59q0 -76 -105 -104zM255 492q68 27 68 82q0 27 -18.5 44.5t-47.5 17.5q-27 0 -42.5 -14t-15.5 -39
q0 -21 11.5 -40t44.5 -51zM212 458q-77 -28 -77 -94q0 -32 24.5 -53t61.5 -21q29 0 49 16.5t20 41.5q0 23 -17 46.5t-61 63.5z" />
    <glyph glyph-name="ninesuperior" unicode="&#x2079;" horiz-adv-x="353" 
d="M76 290l15 20q32 -21 62 -21q46 0 87.5 44t58.5 111q-38 -41 -89 -41q-49 0 -78.5 31t-29.5 81q0 63 41 104.5t103 41.5q55 0 90 -32q34 -33 34 -100q0 -118 -76 -205q-56 -63 -126 -63q-46 0 -92 29zM304 474q5 45 5 70q0 95 -66 95q-35 0 -59 -29t-24 -72
q0 -40 23.5 -67t58.5 -27q32 0 62 30z" />
    <glyph glyph-name="zeroinferior" unicode="&#x2080;" horiz-adv-x="353" 
d="M208 394q54 0 84 -35t30 -98q0 -50 -18.5 -105t-47.5 -93q-55 -69 -122 -69q-52 0 -82 36.5t-30 100.5q0 108 55 185.5t131 77.5zM200 366q-46 0 -81 -69t-35 -161q0 -50 16 -78.5t45 -28.5q47 0 83 82q32 73 32 151q0 49 -15.5 76.5t-44.5 27.5z" />
    <glyph glyph-name="oneinferior" unicode="&#x2081;" horiz-adv-x="353" 
d="M103 318l153 85q-1 -10 -22 -100l-44 -207q-11 -60 -11 -62q0 -15 26 -15h14v-19h-153v19h13q25 0 33 12.5t20 68.5l38 179q7 38 7 41q0 5 -4 5q-9 0 -59 -26z" />
    <glyph glyph-name="twoinferior" unicode="&#x2082;" horiz-adv-x="353" 
d="M80 282h-22q6 53 39.5 82.5t88.5 29.5q51 0 83.5 -28.5t32.5 -72.5q0 -37 -25.5 -71t-93.5 -87l-101 -78q41 3 60 3h80q18 0 22.5 1t11.5 9h21l-31 -70h-240v29l70 60q79 67 127 119q34 37 34 76q0 31 -20 49.5t-54 18.5q-70 0 -83 -70z" />
    <glyph glyph-name="threeinferior" unicode="&#x2083;" horiz-adv-x="353" 
d="M60 324l41 64h213l-145 -151q9 1 23 1q35 0 59.5 -29t24.5 -70q0 -58 -44 -101.5t-103 -43.5q-60 0 -113 54l17 17q42 -39 81 -39q40 0 68.5 31t28.5 74q0 48 -36 68q-20 11 -60 14l116 122h-115q-25 0 -30 -11h-26z" />
    <glyph glyph-name="fourinferior" unicode="&#x2084;" horiz-adv-x="353" 
d="M313 156l-9 -41h-69l-25 -115h-58l24 115h-154v44l231 238h40l-51 -241h71zM185 156l36 169l-163 -169h127z" />
    <glyph glyph-name="fiveinferior" unicode="&#x2085;" horiz-adv-x="353" 
d="M304 392l-21 -58h-159l-27 -78q32 17 61 17q56 0 91 -33t35 -86q0 -67 -47 -113.5t-115 -46.5q-34 0 -56.5 11t-50.5 41l18 16q42 -36 82 -36q44 0 75.5 32.5t31.5 78.5q0 41 -25.5 66t-66.5 25q-30 0 -75 -18l61 178h141h15q6 0 14 4h18z" />
    <glyph glyph-name="sixinferior" unicode="&#x2086;" horiz-adv-x="353" 
d="M310 382l-5 -22q-33 8 -50 8q-47 0 -82 -30q-22 -18 -37 -43t-32 -74q29 26 50 36t48 10q46 0 74.5 -30.5t28.5 -79.5q0 -65 -45.5 -114t-106.5 -49q-56 0 -88.5 36.5t-32.5 100.5q0 56 21.5 110.5t58.5 93.5q56 59 131 59q28 0 67 -12zM99 192q-5 -34 -5 -64
q0 -98 73 -98q37 0 61.5 29t24.5 72q0 40 -24 66.5t-59 26.5q-33 0 -71 -32z" />
    <glyph glyph-name="seveninferior" unicode="&#x2087;" horiz-adv-x="353" 
d="M59 317l24 71h250q-7 -13 -54 -94q-116 -205 -150 -294h-64l117 206l75 126h-135q-24 0 -29 -2t-12 -13h-22z" />
    <glyph glyph-name="eightinferior" unicode="&#x2088;" horiz-adv-x="353" 
d="M215 210q40 -34 56 -58t16 -52q0 -45 -40 -77q-35 -29 -99 -29q-63 0 -97.5 24.5t-34.5 68.5q0 88 123 120q-55 51 -55 95q0 41 35 66.5t91 25.5q53 0 81.5 -21t28.5 -59q0 -76 -105 -104zM198 225q68 27 68 82q0 27 -18.5 44.5t-47.5 17.5q-27 0 -42.5 -14t-15.5 -39
q0 -21 11.5 -40t44.5 -51zM155 191q-77 -28 -77 -94q0 -32 24.5 -53t61.5 -21q29 0 49 16.5t20 41.5q0 23 -17 46.5t-61 63.5z" />
    <glyph glyph-name="nineinferior" unicode="&#x2089;" horiz-adv-x="353" 
d="M19 24l15 19q32 -21 62 -21q46 0 87.5 44t58.5 111q-39 -40 -89 -40q-49 0 -78.5 30.5t-29.5 80.5q0 63 41 104.5t103 41.5q55 0 90 -32q34 -33 34 -100q0 -118 -76 -205q-55 -63 -126 -63q-46 0 -92 30zM247 208q5 43 5 69q0 95 -66 95q-35 0 -59 -29t-24 -71
q0 -40 23.5 -67t58.5 -27q32 0 62 30z" />
    <glyph glyph-name="franc" unicode="&#x20a3;" horiz-adv-x="540" 
d="M491 667l-16 -133h-19q-1 60 -14 76q-18 26 -83 26h-87l-48 -227h27q49 0 66.5 12t25.5 51h19l-36 -169h-18q2 34 2 40q0 24 -10 29.5t-51 5.5h-32l-53 -250q-14 -66 -14 -86q0 -13 10 -17.5t43 -5.5v-19h-196v19q16 0 23.5 2.5t15 6.5t13 20.5t10.5 34.5t14 60l84 396
q14 67 14 86q0 21 -40 22l-13 1v19h363zM395 0h-57l47 187q9 32 9 40q0 5 -4.5 5.5t-31.5 0.5v16l107 32l-29 -95q44 66 55.5 79t25.5 13q26 0 26 -33q0 -47 -31 -47q-16 0 -19 12q0 4 -3 4q-13 0 -66 -78z" />
    <glyph glyph-name="lira" unicode="&#x20a4;" horiz-adv-x="540" 
d="M175 248h-92v41h91q-1 29 -1 65h-90v41h89v37q0 127 67 191q57 54 139 54q64 0 106 -32.5t42 -82.5q0 -30 -16 -50t-39 -20q-19 0 -32.5 13t-13.5 33q0 19 25 45q6 7 6 18q0 19 -21 32t-51 13q-71 0 -100 -72q-20 -52 -20 -142v-37h145v-41h-146q-1 -8 -1 -18
q0 -20 -3 -47h150v-41h-157q-10 -52 -40 -122l59 -19q71 -23 112 -23q83 0 112 105l27 -5q-20 -94 -43 -132q-39 -62 -114 -62q-32 0 -59 11.5t-127 67.5q-34 -41 -57.5 -56.5t-52.5 -15.5q-35 0 -57.5 21.5t-22.5 54.5q0 36 26 58.5t69 22.5q39 0 82 -14q8 34 9 108z
M140 87q-44 22 -71 22q-15 0 -24 -9.5t-9 -23.5q0 -15 10 -24t26 -9q28 0 68 44z" />
    <glyph glyph-name="peseta" unicode="&#x20a7;" horiz-adv-x="767" 
d="M203 345l-46 -217q-14 -67 -14 -86q0 -13 10 -17.5t43 -5.5v-19h-196v19q36 1 46 17.5t30 106.5l84 396q14 67 14 86q0 12 -8.5 16.5t-31.5 6.5l-13 1v18h203q96 0 131 -29q40 -32 40 -95q0 -53 -30.5 -100.5t-79.5 -70.5q-57 -27 -182 -27zM266 641l-58 -274
q98 3 136 31q28 21 45.5 65t17.5 92q0 88 -107 88q-19 0 -34 -2zM527 254v-26h-56l-23 -106q-10 -47 -10 -61q0 -12 7 -12q13 0 40 37l14 -11q-29 -47 -48 -65t-40 -18q-32 0 -32 35q0 11 7 43l33 158h-44v22q40 11 58 30.5t36 69.5h28l-21 -96h51zM731 268l-6 -83h-20
q-6 67 -60 67q-17 0 -27 -7.5t-10 -20.5q0 -17 31 -44l37 -33q39 -35 39 -73q0 -36 -25.5 -61t-62.5 -25q-16 0 -43 8q-14 4 -29 4q-10 0 -26 -5l13 108h18q3 -40 22.5 -63t49.5 -23q18 0 29 9t11 25q0 21 -31 48l-36 33q-44 40 -44 75q0 29 23 48.5t58 19.5q17 0 43 -5
q21 -3 28 -3q11 0 18 1z" />
    <glyph glyph-name="Euro" unicode="&#x20ac;" horiz-adv-x="540" 
d="M187 385h302l-23 -38h-288q-2 -10 -6 -44h270l-23 -38h-249v-11q1 -96 44 -155.5t111 -59.5q100 0 167 120l20 -6q-43 -85 -98 -124t-129 -39q-98 0 -156 67t-58 179q0 18 1 29h-59l24 38h39q3 22 8 44h-56l24 38h43q35 116 121.5 194t180.5 78q38 0 100 -21
q45 -15 60 -15q6 0 24 6l-38 -201h-17v24q0 83 -31.5 129t-88.5 46q-70 0 -130.5 -66.5t-88.5 -173.5z" />
    <glyph glyph-name="uni2101" unicode="&#x2101;" horiz-adv-x="949" 
d="M301 402h-138l-53 -83q-12 -19 -12 -24q0 -8 32 -9v-19h-103v19l3 1q16 1 25 8q6 8 19 26l35 51l204 309h15l42 -305q10 -75 17 -84q8 -5 29 -5l3 -1v-19h-143v19q4 1 11 1q16 0 20.5 2.5t4.5 13.5t-2 25zM297 428l-18 153l-99 -153h117zM730 680l27 -18l-433 -677
l-27 17zM912 396l-24 -105h-19q-12 89 -83 89q-29 0 -48 -16t-19 -41q0 -32 55 -74l47 -36q32 -25 45.5 -47t13.5 -51q0 -52 -38.5 -86.5t-95.5 -34.5q-28 0 -60 9q-30 9 -42 9q-15 0 -40 -15l29 149h20q0 -56 25.5 -88t70.5 -32q33 0 55.5 20t22.5 49t-46 66l-50 40
q-41 32 -54.5 52.5t-13.5 49.5q0 44 34.5 73.5t86.5 29.5q26 0 58 -9q25 -8 35 -8q11 0 35 7z" />
    <glyph glyph-name="afii61248" unicode="&#x2105;" horiz-adv-x="270" 
d="M162 389q19 0 32.5 -14t13.5 -33q0 -20 -14 -33.5t-33 -13.5t-33 13.5t-14 33.5t14 33.5t34 13.5z" />
    <glyph glyph-name="afii61289" unicode="&#x2113;" 
d="M250 265q-30 -152 -30 -205q0 -26 18 -26q13 0 24 12t26 42q10 18 19 18q14 0 14 -14q0 -18 -19 -51q-36 -58 -83 -58q-33 0 -51 23.5t-18 65.5q0 29 10 125q-43 -45 -55 -45q-5 0 -9 5.5t-4 11.5q0 10 20 27q20 18 55 59q41 217 88.5 318.5t108.5 101.5q29 0 46.5 -22.5
t17.5 -59.5q0 -83 -62 -187q-33 -54 -116 -141zM259 320q73 79 106 163q25 65 25 112q0 17 -7 27t-18 10q-30 0 -53 -67.5t-53 -244.5z" />
    <glyph glyph-name="uni2117" unicode="&#x2117;" horiz-adv-x="179" 
d="M181 345l15 -10q-48 -76 -86 -76q-32 0 -32 31q0 7 7 44l26 120l5 24q3 9 3 16q0 6 -15 6h-22v16l103 32q-9 -33 -21 -85l-17 -81q-11 -57 -11 -64q0 -10 6 -10q14 0 39 37zM171 676q16 0 25 -9t9 -24q0 -17 -10.5 -28t-26.5 -11t-25.5 9.5t-9.5 25.5t11 26.5t27 10.5z
" />
    <glyph glyph-name="trademark" unicode="&#x2122;" horiz-adv-x="832" 
d="M291 648l-59 -276q-10 -48 -10 -57q0 -14 27 -15l9 -1v-12h-142v12q34 1 41 8q5 4 10 25q1 3 2 9t3 12l4 22l58 273q-65 0 -87.5 -13.5t-43.5 -64.5h-12l21 100q62 -3 95 -3h116q27 0 96 3l-19 -100h-13q1 6 1 14q0 43 -15 53t-82 11zM578 287h-5l-56 325l-55 -253
q-8 -39 -8 -45q0 -8 6.5 -11t26.5 -4v-12h-94v12q21 1 26 8q4 5 9 25q2 9 13 53l40 170q17 75 17 85q0 8 -6.5 10.5t-27.5 4.5l1 12h92l49 -297l181 297h78v-12q-20 -4 -24 -11q-4 -8 -18 -71l-44 -208q-9 -37 -9 -50q0 -8 5.5 -11t22.5 -4q4 0 8 -1v-12h-143v12q33 1 41 8
q6 4 15 43l58 258z" />
    <glyph glyph-name="uni2126" unicode="&#x2126;" horiz-adv-x="667" 
d="M688 119l-38 -119h-276v44q50 25 76 44t51 49q76 95 76 220q0 115 -64 205q-65 88 -180 88q-126 0 -192 -108q-51 -82 -51 -183q0 -145 96 -243q36 -37 108 -72v-44h-277l-38 119h19q15 -43 41 -57.5t86 -15.5l108 -3v6q-83 33 -130 75q-105 99 -105 235q0 66 31.5 131.5
t84.5 112.5q87 75 220 75q160 0 255 -109q80 -94 80 -208q0 -75 -34.5 -143t-96.5 -115q-32 -25 -103 -54v-6l113 4q57 0 81.5 14.5t39.5 57.5h19z" />
    <glyph glyph-name="onethird" unicode="&#x2153;" horiz-adv-x="839" 
d="M160 585l153 85q-1 -11 -22 -100l-44 -207q-11 -60 -11 -62q0 -15 26 -15h14v-19h-153v19h13q25 0 33 12.5t20 68.5l38 179q7 38 7 41q0 5 -4 5q-9 0 -59 -26zM647 680l26 -18l-433 -677l-26 17zM546 324l41 64h213l-146 -151q10 1 24 1q35 0 59.5 -29t24.5 -70
q0 -58 -44 -101.5t-103 -43.5t-113 54l17 17q42 -39 81 -39q40 0 68.5 31t28.5 74q0 47 -36 68q-20 11 -60 14l116 122h-115q-25 0 -30 -11h-26z" />
    <glyph glyph-name="twothirds" unicode="&#x2154;" horiz-adv-x="839" 
d="M136 549h-22q6 53 39.5 82.5t88.5 29.5q51 0 83.5 -28.5t32.5 -72.5q0 -38 -24.5 -70.5t-94.5 -87.5l-101 -79q41 3 60 3h80q18 0 22 1.5t12 9.5h21l-31 -71h-240v29l70 61q100 86 130.5 123t30.5 72q0 31 -20 49.5t-54 18.5q-70 0 -83 -70zM646 680l27 -18l-433 -677
l-27 17zM545 324l41 64h213l-145 -151q9 1 24 1q35 0 59 -29t24 -70q0 -58 -44 -101.5t-103 -43.5t-113 54l17 17q42 -39 81 -39q40 0 68.5 31t28.5 74q0 48 -36 68q-19 11 -59 14l115 122h-114q-25 0 -30 -11h-27z" />
    <glyph glyph-name="oneeighth" unicode="&#x215b;" horiz-adv-x="839" 
d="M160 585l153 85q-1 -11 -22 -100l-44 -207q-11 -60 -11 -62q0 -15 26 -15h14v-19h-153v19h13q25 0 33 12.5t20 68.5l38 179q7 38 7 41q0 5 -4 5q-9 0 -59 -26zM647 680l26 -18l-433 -677l-26 17zM700 210q73 -59 73 -109q0 -46 -40 -78q-35 -29 -99 -29q-63 0 -97.5 24.5
t-34.5 68.5q0 88 123 120q-55 51 -55 95q0 41 34.5 66.5t91.5 25.5q53 0 81.5 -21t28.5 -59q0 -78 -106 -104zM684 225q68 27 68 81q0 28 -18.5 45.5t-47.5 17.5q-27 0 -42.5 -14t-15.5 -39q0 -21 11.5 -39.5t44.5 -51.5zM641 191q-77 -28 -77 -93q0 -33 24 -54t62 -21
q29 0 49 16.5t20 41.5q0 22 -17 46.5t-61 63.5z" />
    <glyph glyph-name="threeeighths" unicode="&#x215c;" horiz-adv-x="839" 
d="M117 591l41 64h213l-145 -151q9 1 23 1q35 0 59.5 -29t24.5 -70q0 -58 -44 -101.5t-103 -43.5t-113 54l17 16q42 -38 81 -38q40 0 68.5 31t28.5 74q0 48 -36 68q-20 11 -60 14l116 122h-115q-25 0 -30 -11h-26zM647 680l26 -18l-433 -677l-26 17zM700 210
q40 -33 56 -57.5t16 -51.5q0 -45 -39 -78q-36 -29 -100 -29q-62 0 -96.5 24.5t-34.5 68.5q0 88 123 120q-55 49 -55 95q0 41 34.5 66.5t91.5 25.5q52 0 80.5 -21t28.5 -59q0 -76 -105 -104zM684 225q67 27 67 81q0 28 -18 45.5t-47 17.5q-27 0 -42.5 -14t-15.5 -39
q0 -21 11.5 -40t44.5 -51zM641 191q-77 -28 -77 -93q0 -33 24 -54t61 -21q30 0 49.5 16.5t19.5 41.5q0 22 -17 46.5t-60 63.5z" />
    <glyph glyph-name="fiveeighths" unicode="&#x215d;" horiz-adv-x="839" 
d="M361 659l-21 -58h-159l-27 -78q32 17 61 17q56 0 91 -33t35 -86q0 -67 -47 -113.5t-115 -46.5q-34 0 -56.5 11t-50.5 40l18 16q42 -35 82 -35q44 0 75.5 32.5t31.5 78.5q0 41 -25.5 66t-66.5 25q-30 0 -75 -18l61 178h141h15q6 0 14 4h18zM646 680l27 -18l-433 -677
l-26 17zM700 210q39 -32 55.5 -57t16.5 -52q0 -46 -40 -78q-35 -29 -99 -29q-63 0 -97.5 24.5t-34.5 68.5q0 88 124 120q-55 51 -55 95q0 41 34.5 66.5t91.5 25.5q52 0 80.5 -21t28.5 -59t-27 -64.5t-78 -39.5zM683 225q68 27 68 81q0 28 -18 45.5t-47 17.5q-27 0 -42.5 -14
t-15.5 -39q0 -21 11.5 -40t43.5 -51zM641 191q-78 -28 -78 -93q0 -33 24 -54t62 -21q29 0 49 16.5t20 41.5q0 23 -17 47t-60 63z" />
    <glyph glyph-name="seveneighths" unicode="&#x215e;" horiz-adv-x="839" 
d="M116 584l24 71h250q-7 -13 -54 -94q-116 -205 -150 -294h-64l117 206l75 126h-135q-24 0 -29 -2t-12 -13h-22zM647 680l26 -18l-432 -677l-27 17zM701 210q40 -34 56 -58t16 -51q0 -46 -40 -78q-35 -29 -99 -29q-63 0 -97.5 24.5t-34.5 68.5q0 88 123 120q-55 51 -55 95
q0 41 35 66.5t91 25.5q53 0 81.5 -21t28.5 -59q0 -76 -105 -104zM684 225q68 27 68 81q0 28 -18.5 45.5t-47.5 17.5q-27 0 -42.5 -14t-15.5 -39q0 -21 11.5 -40t44.5 -51zM641 191q-77 -28 -77 -94q0 -32 24.5 -53t61.5 -21q29 0 49 16.5t20 41.5q0 23 -17 46.5t-61 63.5z
" />
    <glyph glyph-name="arrowleft" unicode="&#x2190;" horiz-adv-x="667" 
d="M653 363v-51h-500q15 -19 33.5 -56t18.5 -48q0 -14 -15 -14q-8 0 -22 17q-46 54 -132 104q-23 11 -23 20q0 10 16 19q62 37 87 57t58 59q8 9 16 9q15 0 15 -15q0 -29 -52 -101h500z" />
    <glyph glyph-name="arrowup" unicode="&#x2191;" horiz-adv-x="667" 
d="M360 13h-51v500q-18 -15 -55.5 -33.5t-48.5 -18.5q-14 0 -14 15q0 8 17 23q53 44 103 132q13 23 21 23q10 0 19 -17q37 -61 57.5 -87t58.5 -58q9 -8 9 -16q0 -15 -15 -15q-29 0 -101 52v-500z" />
    <glyph glyph-name="arrowright" unicode="&#x2192;" horiz-adv-x="667" 
d="M13 310v51h500q-15 19 -33.5 56t-18.5 48q0 14 15 14q8 0 22 -17q46 -54 132 -104q23 -12 23 -20q0 -10 -16 -19q-62 -37 -87 -57t-58 -59q-8 -9 -16 -9q-15 0 -15 15q0 29 52 101h-500z" />
    <glyph glyph-name="arrowdown" unicode="&#x2193;" horiz-adv-x="667" 
d="M307 653h51v-500q19 16 56 34t48 18q14 0 14 -15q0 -8 -17 -22q-55 -47 -103 -132q-13 -23 -21 -23q-10 0 -19 16q-37 62 -57 87t-59 58q-9 8 -9 16q0 15 15 15q27 0 101 -52v500z" />
    <glyph glyph-name="arrowboth" unicode="&#x2194;" horiz-adv-x="667" 
d="M513 310h-361q22 -29 37.5 -59t15.5 -42q0 -15 -15 -15q-6 0 -8.5 2.5t-15.5 16.5q-29 33 -56 53.5t-87 56.5q-10 6 -10 15q0 8 23 20q85 49 132 104q14 17 22 17q15 0 15 -14q0 -11 -18.5 -47.5t-34.5 -56.5h361q-15 19 -33.5 56t-18.5 48q0 14 15 14q8 0 22 -17
q46 -54 132 -104q23 -12 23 -20q0 -10 -16 -19q-62 -37 -87 -57t-58 -59q-8 -9 -16 -9q-15 0 -15 15q0 29 52 101z" />
    <glyph glyph-name="arrowupdn" unicode="&#x2195;" horiz-adv-x="667" 
d="M360 513v-361q29 22 59 38t42 16q15 0 15 -15q0 -6 -2.5 -8.5t-16.5 -15.5q-33 -29 -53.5 -56t-56.5 -88q-6 -10 -15 -10q-8 0 -20 23q-50 88 -104 132q-17 15 -17 23q0 15 14 15q11 0 48 -19t56 -35v361q-19 -15 -56 -33.5t-48 -18.5q-14 0 -14 15q0 8 17 23
q55 46 104 132q12 23 20 23q10 0 19 -17q37 -61 57.5 -87t58.5 -58q9 -8 9 -16q0 -15 -15 -15q-29 0 -101 52z" />
    <glyph glyph-name="arrowupdnbse" unicode="&#x21a8;" horiz-adv-x="667" 
d="M360 513v-361q29 22 59 38t42 16q15 0 15 -15q0 -6 -2.5 -8.5t-16.5 -15.5q-33 -29 -53.5 -56t-56.5 -88q-6 -10 -15 -10q-7 0 -21 23q-47 86 -103 132q-17 15 -17 23q0 15 14 15q11 0 47.5 -19t56.5 -35v361q-18 -14 -55.5 -33t-48.5 -19q-14 0 -14 15q0 8 17 23
q55 46 104 132q12 23 20 23q10 0 19 -17q37 -61 57.5 -87t58.5 -58q9 -8 9 -16q0 -15 -15 -15q-29 0 -101 52zM201 -68h264v-43h-264v43z" />
    <glyph glyph-name="partialdiff" unicode="&#x2202;" 
d="M146 669l10 18q94 -39 162 -105q63 -61 106.5 -164t43.5 -191q0 -104 -62.5 -172.5t-157.5 -68.5q-92 0 -154 66.5t-62 164.5t62 164.5t153 66.5q64 0 107 -35q10 -9 35 -40q-35 107 -90.5 175.5t-152.5 120.5zM253 425q-44 0 -80 -30q-28 -24 -47 -75.5t-19 -102.5
q0 -52 18 -101.5t46 -74.5q35 -32 77 -32q61 0 103 61.5t42 152.5q0 89 -39.5 145.5t-100.5 56.5z" />
    <glyph glyph-name="emptyset" unicode="&#x2205;" horiz-adv-x="618" 
d="M439 667l48 -25l-48 -88q113 -80 113 -204q0 -102 -72 -172.5t-176 -70.5q-46 0 -79 16l-63 -123l-48 25l61 122q-108 80 -108 202q0 102 71 172.5t173 70.5q39 0 81 -14zM416 502l-165 -330q32 -8 58 -8q77 0 132 54.5t55 130.5q0 47 -21.5 89t-58.5 64zM200 198
l166 329q-28 8 -54 8q-78 0 -133.5 -54.5t-55.5 -130.5q0 -90 77 -152z" />
    <glyph glyph-name="Delta" unicode="&#x2206;" horiz-adv-x="667" 
d="M351 683l308 -683h-652l307 683h37zM311 592l-207 -460q-14 -31 -14 -48q0 -18 10.5 -25.5t35.5 -7.5h412z" />
    <glyph glyph-name="product" unicode="&#x220f;" horiz-adv-x="667" 
d="M17 667h633v-18h-23q-44 0 -55 -13.5t-11 -66.5v-704q0 -53 11 -66.5t53 -13.5h25v-18h-258v18h21q44 0 55 13.5t11 66.5v704q0 53 -11 66.5t-55 13.5h-157q-44 0 -55 -13.5t-11 -66.5v-704q0 -53 11 -66.5t53 -13.5h24v-18h-258v18h21q44 0 55.5 13.5t11.5 66.5v704
q0 53 -11.5 66.5t-55.5 13.5h-24v18z" />
    <glyph glyph-name="summation" unicode="&#x2211;" horiz-adv-x="667" 
d="M57 667h514v-160h-18q-11 78 -46 106t-123 28h-228l206 -388l-238 -439h265q60 0 93.5 10.5t59.5 38.5q34 34 52 102h18l-33 -198h-522l243 449z" />
    <glyph glyph-name="minus" unicode="&#x2212;" horiz-adv-x="540" 
d="M77 359h433v-54h-433v54z" />
    <glyph glyph-name="uni2218" unicode="&#x2218;" 
d="M253 480q56 0 95.5 -41t39.5 -99t-40 -99t-97 -41t-97.5 41t-40.5 99t40.5 99t99.5 41zM252 432q-39 0 -65.5 -27t-26.5 -65t26.5 -65t64.5 -27q37 0 63.5 27t26.5 65t-26 65t-63 27z" />
    <glyph glyph-name="radical" unicode="&#x221a;" horiz-adv-x="667" 
d="M650 823v-27h-119l-185 -796h-80l-87 360h-162v27h228l79 -337l181 773h145z" />
    <glyph glyph-name="infinity" unicode="&#x221e;" horiz-adv-x="667" 
d="M314 288q-43 -68 -75 -93t-77 -25q-63 0 -106.5 46.5t-43.5 113.5q0 73 46.5 123.5t113.5 50.5q93 0 168 -123l5 7.5t5 7t3 3.5q28 43 38 56t25 23q38 26 82 26q65 0 110.5 -48t45.5 -118q0 -73 -48.5 -124t-118.5 -51q-48 0 -93 33t-80 92zM354 361q38 -63 69 -91
q51 -45 104 -45q43 0 72 31.5t29 78.5q0 50 -36 80t-96 30q-48 0 -81 -19t-61 -65zM299 311q-33 51 -57 78q-47 52 -108 52q-42 0 -69.5 -30.5t-27.5 -76.5q0 -49 34.5 -77.5t91.5 -28.5q45 0 75 18.5t61 64.5z" />
    <glyph glyph-name="orthogonal" unicode="&#x221f;" horiz-adv-x="344" 
d="M22 471h299v-38h-299v38z" />
    <glyph glyph-name="intersection" unicode="&#x2229;" horiz-adv-x="553" 
d="M62 0h-28v423q0 120 42 175q67 84 196 84q125 0 191 -71q32 -34 43 -70t11 -110v-431h-84v424q0 101 -19 136q-22 41 -66.5 65.5t-97.5 24.5q-102 0 -154 -76q-21 -30 -27.5 -62t-6.5 -104v-408z" />
    <glyph glyph-name="union" unicode="&#x222a;" horiz-adv-x="553" 
d="M36 667h84v-424q0 -101 19 -136q22 -41 66.5 -65.5t97.5 -24.5q102 0 154 76q21 30 27.5 62t6.5 104v408h28v-423q0 -120 -42 -175q-67 -84 -196 -84q-125 0 -191 71q-32 34 -43 70t-11 110v431z" />
    <glyph glyph-name="integral" unicode="&#x222b;" horiz-adv-x="501" 
d="M291 472v-456q0 -82 -6.5 -123.5t-23.5 -74.5q-44 -81 -129 -81q-52 0 -87.5 30t-35.5 73q0 24 15 40t38 16q20 0 35 -14t15 -33q0 -11 -5 -23q-6 -11 -6 -21q0 -13 8.5 -21.5t22.5 -8.5q34 0 56 48t22 123v472q0 85 6 126t24 75q44 81 129 81q52 0 87.5 -30t35.5 -74
q0 -24 -15 -40t-38 -16q-21 0 -35.5 14t-14.5 34q0 10 5 23q6 11 6 21q0 14 -8.5 22t-22.5 8q-36 0 -57 -51t-21 -139z" />
    <glyph glyph-name="uni222E" unicode="&#x222e;" horiz-adv-x="498" 
d="M207 -54v98q-65 9 -109.5 62t-44.5 123t44 122t110 62v36q0 115 43 183t117 68q50 0 86 -29.5t36 -71.5q0 -26 -15 -42.5t-38 -16.5q-20 0 -35 14t-15 33q0 11 5 19q6 14 6 25q0 31 -31 31q-35 0 -56.5 -48.5t-21.5 -128.5v-71q68 -11 111 -62.5t43 -122.5
q0 -70 -44 -123t-110 -62v-28q0 -82 -6.5 -123.5t-23.5 -74.5q-45 -81 -128 -81q-54 0 -88.5 30t-34.5 77q0 22 15 37t37 15q21 0 35.5 -14.5t14.5 -34.5q0 -11 -5 -21q-6 -10 -6 -21q0 -14 8.5 -22t22.5 -8q34 0 56 48t22 123zM288 371v-284q50 10 81 49.5t31 92.5
q0 77 -60 119q-29 19 -52 23zM207 88v283q-49 -8 -80.5 -48.5t-31.5 -93.5t31.5 -93t80.5 -48z" />
    <glyph glyph-name="uni2236" unicode="&#x2236;" horiz-adv-x="270" 
d="M161 528q18 0 30.5 -13t12.5 -30q0 -18 -12.5 -30.5t-30.5 -12.5q-17 0 -30 12.5t-13 30.5t12.5 30.5t30.5 12.5zM161 242q18 0 30.5 -13t12.5 -30q0 -18 -12.5 -30.5t-30.5 -12.5q-17 0 -30 12.5t-13 30.5t12.5 30.5t30.5 12.5z" />
    <glyph glyph-name="similar" unicode="&#x223c;" 
d="M458 400l15 -9q-27 -43 -66.5 -69t-77.5 -26q-21 0 -66 14q-89 28 -125 28q-26 0 -43.5 -10t-42.5 -38q-3 -4 -9 -10l-16 9q68 96 146 96q29 0 97 -21q57 -18 84 -18q58 0 104 54z" />
    <glyph glyph-name="approxequal" unicode="&#x2248;" 
d="M458 478l15 -9q-27 -43 -66.5 -69.5t-77.5 -26.5q-21 0 -66 14q-89 29 -125 29q-25 0 -42.5 -10t-43.5 -39q-6 -6 -9 -10l-16 9q68 97 147 97q31 0 96 -22q55 -18 85 -18q56 0 103 55zM458 322l15 -8q-27 -43 -66.5 -69.5t-77.5 -26.5q-21 0 -98 24q-58 19 -93 19
q-26 0 -43.5 -10t-42.5 -39l-9 -10l-16 9q69 97 147 97q30 0 96 -22q54 -18 85 -18q55 0 103 54z" />
    <glyph glyph-name="notequal" unicode="&#x2260;" 
d="M275 441l57 123l38 -18l-49 -105h156v-41h-175l-47 -99h223v-41h-242l-61 -132l-38 18l53 114h-166v41h185l47 99h-233v41h252z" />
    <glyph glyph-name="equivalence" unicode="&#x2261;" 
d="M23 501h454v-41h-454v41zM23 221h454v-41h-454v41zM23 362h454v-42h-454v42z" />
    <glyph glyph-name="lessequal" unicode="&#x2264;" 
d="M457 614v-37l-313 -204l313 -209v-99l-414 277v6zM43 34h414v-34h-414v34z" />
    <glyph glyph-name="greaterequal" unicode="&#x2265;" 
d="M43 34h414v-34h-414v34zM43 65v37l313 204l-313 210v98l414 -278v-6z" />
    <glyph glyph-name="dotmath" unicode="&#x22c5;" horiz-adv-x="240" 
d="M128 280q20 0 33.5 -13.5t13.5 -33.5q0 -24 -18 -42t-42 -18q-20 0 -33.5 13.5t-13.5 33.5q0 24 18 42t42 18z" />
    <glyph glyph-name="house" unicode="&#x2302;" horiz-adv-x="751" 
d="M84 0v401l291 328l292 -328v-401h-583zM135 51h481v328l-241 270l-240 -270v-328z" />
    <glyph glyph-name="revlogicalnot" unicode="&#x2310;" 
d="M128 0h-92v267h429v-40h-337v-227z" />
    <glyph glyph-name="uni2319" unicode="&#x2319;" 
d="M128 267v-227h337v-40h-429v267h92z" />
    <glyph glyph-name="integraltp" unicode="&#x2320;" 
d="M244 -258h-81v676q0 85 6 126t24 75q44 81 129 81q52 0 87.5 -30t35.5 -74q0 -24 -15 -40t-38 -16q-20 0 -35 14.5t-15 33.5q0 10 5 23q6 11 6 21q0 14 -8.5 22t-22.5 8q-36 0 -57 -51t-21 -139v-730z" />
    <glyph glyph-name="integralbt" unicode="&#x2321;" 
d="M256 699h81v-676q0 -85 -6 -125.5t-24 -74.5q-44 -81 -129 -81q-52 0 -87.5 30t-35.5 74q0 23 15.5 39t37.5 16q20 0 35 -14.5t15 -33.5q0 -9 -5 -22q-6 -11 -6 -21q0 -14 8.5 -22t22.5 -8q36 0 57 51t21 138v730z" />
    <glyph glyph-name="filledbox" unicode="&#x25a0;" horiz-adv-x="667" 
d="M667 0h-667v667h667v-667z" />
    <glyph glyph-name="uni25A1" unicode="&#x25a1;" horiz-adv-x="667" 
d="M667 0h-667v667h667v-667zM620 47v573h-573v-573h573z" />
    <glyph glyph-name="H18551" unicode="&#x25ab;" horiz-adv-x="344" 
d="M22 471h128v126h43v-126h128v-38h-128v-125h-43v125h-128v38z" />
    <glyph glyph-name="filledrect" unicode="&#x25ac;" horiz-adv-x="667" 
d="M667 333v-333h-667v333h667z" />
    <glyph glyph-name="uni25AE" unicode="&#x25ae;" horiz-adv-x="667" 
d="M500 0h-333v667h333v-667z" />
    <glyph glyph-name="uni25AF" unicode="&#x25af;" horiz-adv-x="667" 
d="M334 589q107 0 183.5 -74.5t76.5 -180.5t-76.5 -181.5t-183.5 -75.5q-110 0 -185.5 75.5t-75.5 184.5q0 104 77 178t184 74z" />
    <glyph glyph-name="triagup" unicode="&#x25b2;" horiz-adv-x="667" 
d="M633 67h-600l300 561z" />
    <glyph glyph-name="uni25B4" unicode="&#x25b4;" 
d="M466 147h-433l217 405z" />
    <glyph glyph-name="uni25B8" unicode="&#x25b8;" 
d="M71 119v433l405 -217z" />
    <glyph glyph-name="triagdn" unicode="&#x25bc;" horiz-adv-x="667" 
d="M33 600h600l-300 -561z" />
    <glyph glyph-name="uni25BE" unicode="&#x25be;" 
d="M33 520h433l-216 -405z" />
    <glyph glyph-name="uni25C2" unicode="&#x25c2;" 
d="M428 552v-433l-405 216z" />
    <glyph glyph-name="lozenge" unicode="&#x25ca;" horiz-adv-x="667" 
d="M334 693l259 -359l-259 -360l-260 360zM334 604l-197 -270l197 -271l197 271z" />
    <glyph glyph-name="circle" unicode="&#x25cb;" horiz-adv-x="667" 
d="M334 589q107 0 183.5 -74.5t76.5 -180.5t-76.5 -181.5t-183.5 -75.5q-110 0 -185.5 75.5t-75.5 184.5q0 104 77 178t184 74zM334 543q-88 0 -151 -61t-63 -146q0 -89 62 -151t152 -62q88 0 150.5 62t62.5 149q0 86 -62.5 147.5t-150.5 61.5z" />
    <glyph glyph-name="invbullet" unicode="&#x25d8;" horiz-adv-x="667" 
d="M0 0v667h667v-667h-667zM336 473q-59 0 -99.5 -40.5t-40.5 -99.5q0 -57 40.5 -98t97.5 -41t97 41t40 99q0 57 -40 98t-95 41z" />
    <glyph glyph-name="invcircle" unicode="&#x25d9;" horiz-adv-x="667" 
d="M334 543q88 0 150.5 -61.5t62.5 -147.5q0 -87 -62.5 -149t-150.5 -62q-90 0 -152 62t-62 151q0 85 63 146t151 61zM667 0h-667v667h667v-667zM334 590q-107 0 -184 -74t-77 -178q0 -110 75.5 -185.5t185.5 -75.5q107 0 183.5 75.5t76.5 181.5t-76.5 181t-183.5 75z" />
    <glyph glyph-name="openbullet" unicode="&#x25e6;" 
d="M253 480q56 0 95.5 -41t39.5 -99t-40 -99t-97 -41t-97.5 41t-40.5 99t40.5 99t99.5 41zM252 432q-39 0 -65.5 -27t-26.5 -65t26.5 -65t64.5 -27q37 0 63.5 27t26.5 65t-26 65t-63 27z" />
    <glyph glyph-name="smileface" unicode="&#x263a;" horiz-adv-x="667" 
d="M241 466q17 0 30 -13t13 -31t-13 -31t-31 -13t-31 13t-13 31q0 19 13 31.5t32 12.5zM434 465q17 0 30 -13t13 -31t-13 -31t-31 -13t-31 13t-13 31q0 19 13 31.5t32 12.5zM540 372q-4 -60 -15 -95t-35 -66q-56 -70 -156 -70q-109 0 -164 82q-20 29 -28.5 60.5t-13.5 88.5
q12 -54 42 -89q61 -70 164 -70q102 0 165 70q29 35 41 89zM339 650q127 0 219 -93.5t92 -222.5q0 -131 -92.5 -224t-223.5 -93q-132 0 -224.5 93t-92.5 226q0 131 94 222.5t228 91.5zM338 608q-126 0 -208 -91q-71 -79 -71 -181q0 -116 80 -196.5t195 -80.5
q114 0 194.5 80.5t80.5 194.5q0 112 -80.5 193t-190.5 81z" />
    <glyph glyph-name="invsmileface" unicode="&#x263b;" horiz-adv-x="667" 
d="M339 650q127 0 219 -93.5t92 -222.5q0 -131 -92.5 -224t-223.5 -93q-132 0 -224.5 93t-92.5 226q0 131 94 222.5t228 91.5zM240 466q-18 0 -31 -12.5t-13 -31.5q0 -18 12.5 -31t31.5 -13q18 0 30.5 13t12.5 31t-13 31t-30 13zM434 466q-19 0 -32 -13t-13 -31
q0 -19 13 -32t31 -13t31 13t13 32q0 18 -13 31t-30 13zM540 372q-13 -55 -41 -88q-62 -71 -165 -71t-164 71q-29 33 -42 88q5 -61 15.5 -95.5t35.5 -65.5q56 -70 155 -70q111 0 165 83q20 29 28.5 61t12.5 87z" />
    <glyph glyph-name="sun" unicode="&#x263c;" horiz-adv-x="667" 
d="M159 472l-75 75l35 35l75 -75q49 40 114 48v105h50v-105q66 -8 113 -47l75 74l35 -35l-74 -74q38 -48 47 -114h105v-51h-105q-9 -64 -47 -114l74 -74l-35 -35l-75 74q-50 -40 -113 -47v-105h-50v105q-60 6 -114 47l-75 -74l-35 35l74 74q-40 51 -46 114h-105v51h105
q7 61 47 113zM336 493q-68 0 -115.5 -46t-47.5 -112q0 -67 46.5 -114t113.5 -47q66 0 112.5 47t46.5 113q0 65 -46 112t-110 47z" />
    <glyph glyph-name="female" unicode="&#x2640;" horiz-adv-x="667" 
d="M308 209v105q-68 10 -111.5 61.5t-43.5 120.5q0 76 52.5 129.5t126.5 53.5q75 0 128 -53.5t53 -129.5q0 -70 -44 -120.5t-113 -61.5v-105h163v-43h-163v-166h-48v166h-161v43h161zM335 632q-57 0 -96 -39.5t-39 -96.5q0 -56 39 -95.5t94 -39.5t94 39.5t39 95.5t-38.5 96
t-92.5 40z" />
    <glyph glyph-name="male" unicode="&#x2642;" horiz-adv-x="667" 
d="M570 499l-152 -151q36 -49 36 -110q0 -75 -53 -128.5t-127 -53.5t-127 53.5t-53 129.5q0 75 53 128.5t127 53.5q61 0 112 -39l151 151q-52 12 -106 40q-21 11 -21 23t13 12q3 0 20 -3q41 -9 83 -9q57 0 105 14l10 1q10 0 10 -10q0 -4 -5 -23q-10 -40 -10 -87q0 -43 9 -84
q3 -17 3 -20q0 -13 -12 -13q-7 0 -10.5 3.5t-12.5 17.5q-31 44 -43 104zM276 374q-57 0 -96 -39t-39 -96q0 -56 39 -95.5t94 -39.5t94 39.5t39 95.5t-38.5 95.5t-92.5 39.5z" />
    <glyph glyph-name="spade" unicode="&#x2660;" horiz-adv-x="667" 
d="M108 0v18q70 14 102 29t63 49q52 60 56 159q-12 -26 -13 -28q-20 -33 -56 -53.5t-76 -20.5q-49 0 -84.5 37t-35.5 88q0 81 104 169q142 115 164 239q26 -80 51.5 -117t99.5 -105q73 -67 97 -103.5t24 -83.5q0 -52 -35.5 -87.5t-86.5 -35.5q-84 0 -140 101
q6 -108 58.5 -163t167.5 -74v-18h-460z" />
    <glyph glyph-name="club" unicode="&#x2663;" horiz-adv-x="667" 
d="M561 0h-455v18q113 16 167 78.5t54 177.5q-22 -38 -34 -52q-27 -35 -66.5 -55t-79.5 -20q-59 0 -101.5 44.5t-42.5 107.5q0 62 38.5 104.5t93.5 42.5q19 0 33 -4.5t53 -24.5q-35 53 -35 100q0 59 43.5 101t104.5 42t104 -42t43 -101q0 -47 -35 -100q40 20 53 24.5t33 4.5
q55 0 93.5 -42.5t38.5 -104.5q0 -64 -42.5 -108t-103.5 -44q-37 0 -76 19t-64 50q-17 21 -38 58q2 -65 15 -106t44 -76q32 -32 62.5 -46.5t99.5 -27.5v-18z" />
    <glyph glyph-name="heart" unicode="&#x2665;" horiz-adv-x="667" 
d="M332 -11q-16 67 -52 128.5t-134 192.5q-54 74 -72 113t-18 82q0 56 37.5 95t91.5 39q76 0 120 -68q13 -19 27 -62q37 131 147 131q55 0 93.5 -38.5t38.5 -92.5q0 -50 -24 -100.5t-86 -128.5q-143 -179 -169 -291z" />
    <glyph glyph-name="diamond" unicode="&#x2666;" horiz-adv-x="667" 
d="M333 693q22 -47 111.5 -173t142.5 -186q-71 -85 -141.5 -184.5t-112.5 -175.5q-71 135 -253 360q180 226 253 359z" />
    <glyph glyph-name="musicalnote" unicode="&#x266a;" horiz-adv-x="667" 
d="M306 156v511h46v-61q14 -17 15 -18l52 -63q91 -107 91 -225q0 -91 -57 -162h-28q33 77 33 149q0 65 -31.5 116t-74.5 57v-304q0 -72 -42.5 -118.5t-109.5 -46.5q-32 0 -50.5 16t-18.5 45q0 45 36.5 80t84.5 35q29 0 54 -11z" />
    <glyph glyph-name="uni266C" unicode="&#x266c;" horiz-adv-x="667" 
d="M195 587l421 107v-502q0 -72 -42.5 -118t-109.5 -46q-32 0 -50 16t-18 44q0 46 36.5 80.5t83.5 34.5q29 0 54 -11v270l-329 -90v-236q0 -71 -42.5 -117t-109.5 -46q-32 0 -50.5 16t-18.5 44q0 44 36.5 78.5t84.5 34.5q26 0 54 -10v451zM241 448l329 90v70l-329 -90v-70z
" />
    <glyph glyph-name="dotlessj" unicode="&#xf6be;" horiz-adv-x="247" 
d="M64 395v19l157 50l-14 -55q-5 -18 -18 -81l-66 -309q-46 -215 -133 -215q-22 0 -37.5 15t-15.5 37q0 19 12 32t29 13q12 0 19.5 -5.5t17.5 -21.5q4 -7 9 -7q12 0 16 51q6 91 29 200l41 194q8 36 9 41q5 18 5 28q0 9 -6 12t-23 3z" />
    <glyph glyph-name="commaaccent" unicode="&#xf6c3;" 
d="M118 -230l-10 18q76 29 83 97q-17 -22 -37 -22q-30 0 -30 30q0 22 17 38t40 16q42 0 42 -50q0 -43 -27.5 -76.5t-77.5 -50.5z" />
    <glyph glyph-name="Acute" unicode="&#xf6c9;" 
d="M346 742h-41l133 109q29 24 38 29t21 5q11 0 19 -7t8 -17q0 -22 -37 -42z" />
    <glyph glyph-name="Caron" unicode="&#xf6ca;" 
d="M250 885h36l77 -87l126 87h38l-147 -143h-44z" />
    <glyph glyph-name="Dieresis" unicode="&#xf6cb;" 
d="M295 854q17 0 28.5 -13t11.5 -32q0 -23 -15.5 -40t-36.5 -17q-17 0 -28.5 13t-11.5 32q0 23 15.5 40t36.5 17zM465 854q17 0 28.5 -13t11.5 -32q0 -23 -15.5 -40t-36.5 -17q-17 0 -28.5 13t-11.5 32q0 23 15.5 40t36.5 17z" />
    <glyph glyph-name="Grave" unicode="&#xf6ce;" 
d="M410 742h-39l-112 80q-26 18 -26 38q0 10 10 18.5t23 8.5q10 0 17.5 -6t27.5 -28z" />
    <glyph glyph-name="Hungarumlaut" unicode="&#xf6cf;" 
d="M270 742h-39l120 111q26 24 31.5 28t15.5 4q31 0 31 -24q0 -19 -32 -39zM437 742h-38l120 111q25 24 31 28t16 4q31 0 31 -24q0 -18 -32 -39z" />
    <glyph glyph-name="Macron" unicode="&#xf6d0;" 
d="M511 818l-12 -50h-272l12 50h272z" />
    <glyph glyph-name="commasuperior" unicode="&#xf6e2;" horiz-adv-x="167" 
d="M44 188l-7 14q56 23 69 64l1 3q-8 -4 -14 -4q-11 0 -18 8t-7 21q0 17 11 28.5t27 11.5t25.5 -12t9.5 -32q0 -34 -26.5 -61.5t-70.5 -40.5z" />
    <glyph glyph-name="periodsuperior" unicode="&#xf6e8;" horiz-adv-x="167" 
d="M104 333q14 0 23 -9t9 -22q0 -16 -11.5 -27.5t-27.5 -11.5q-14 0 -23 9t-9 22q0 16 11.5 27.5t27.5 11.5z" />
    <glyph glyph-name="Dbreve" horiz-adv-x="726" 
d="M29 0v22q24 1 33.5 5.5t14.5 15.5q8 18 32 124l74 350q17 79 17 100q0 16 -11 21t-51 7v22h279q139 0 202 -40q46 -29 71 -82.5t25 -122.5q0 -82 -31 -159.5t-87 -135.5q-120 -127 -336 -127h-232zM308 636l-97 -454q-20 -98 -20 -123q0 -18 15.5 -25t57.5 -7
q150 0 240 102q49 56 76.5 131t27.5 154q0 110 -58.5 168t-169.5 58q-28 0 -72 -4zM578 878h24q-12 -34 -47 -72q-53 -56 -116 -56q-99 0 -97 128h23q14 -73 94 -73q33 0 59.5 16.5t59.5 56.5z" />
    <glyph glyph-name="Adotaccent" horiz-adv-x="617" 
d="M403 228h-230l-88 -143q-19 -32 -19 -43t10 -15t41 -5v-22h-155v22q29 3 42 16q9 8 32 44l57 87l328 523h17l66 -515q12 -88 16 -109t12 -32q9 -11 52 -14v-22h-220v22h12q29 1 37.5 6.5t8.5 25.5q0 16 -3 44zM399 261l-33 281l-172 -281h205zM451 854q17 0 28.5 -13
t11.5 -32q0 -23 -15.5 -40t-36.5 -17q-17 0 -28.5 13t-11.5 32q0 23 15.5 40t36.5 17z" />
    <glyph glyph-name="Fdotaccent" horiz-adv-x="512" 
d="M562 667l-17 -153h-23q-1 69 -16 89q-22 31 -97 31h-102l-57 -272h93q59 0 79 14t30 63h22l-42 -197h-21q2 38 2 48q0 26 -11.5 32.5t-59.5 6.5h-99l-39 -180q-17 -83 -17 -100q0 -15 11.5 -20t51.5 -7v-22h-230v22q42 1 53.5 20t35.5 125l74 350q17 74 17 101
q0 13 -10 19t-37 8l-15 1v21h424zM404 854q17 0 28.5 -13t11.5 -32q0 -23 -15.5 -40t-36.5 -17q-17 0 -28.5 13t-11.5 32q0 23 15.5 40t36.5 17z" />
    <glyph glyph-name="ahungarumlaut" horiz-adv-x="479" 
d="M384 453h68q-24 -73 -50 -167l-43 -147q-21 -78 -21 -85q0 -15 14 -15q22 0 69 62l15 -11q-43 -60 -71.5 -84t-57.5 -24q-39 0 -39 38q0 17 16 81l13 50q-58 -92 -100.5 -131.5t-84.5 -39.5q-41 0 -65.5 31t-24.5 83q0 79 40 164t101.5 140t118.5 55q70 0 79 -79z
M285 428q-76 0 -143 -142q-43 -93 -43 -166q0 -32 15.5 -52t40.5 -20q46 0 108 87q38 53 61 111t23 98t-16.5 62t-45.5 22zM269 534h-30l95 121q19 26 26 32t18 6q12 0 19.5 -6.5t7.5 -17.5q0 -16 -31 -43zM403 534h-31l95 121q19 26 26.5 32t18.5 6t18.5 -7t7.5 -17
q0 -16 -31 -43z" />
    <glyph glyph-name="adotaccent" horiz-adv-x="479" 
d="M384 453h68q-24 -73 -50 -167l-43 -147q-21 -78 -21 -85q0 -15 14 -15q22 0 69 62l15 -11q-43 -60 -71.5 -84t-57.5 -24q-39 0 -39 38q0 17 16 81l13 50q-58 -92 -100.5 -131.5t-84.5 -39.5q-41 0 -65.5 31t-24.5 83q0 79 40 164t101.5 140t118.5 55q70 0 79 -79z
M285 428q-76 0 -143 -142q-43 -93 -43 -166q0 -32 15.5 -52t40.5 -20q46 0 108 87q38 53 61 111t23 98t-16.5 62t-45.5 22zM346 655q17 0 28.5 -13t11.5 -32q0 -23 -15.5 -40t-36.5 -17q-17 0 -28.5 13t-11.5 32q0 23 15.5 40t36.5 17z" />
    <glyph glyph-name="one.numerator" horiz-adv-x="247" 
d="M143 611l106 58q-6 -25 -10 -42q-5 -22 -5 -26l-31 -142q-7 -38 -7 -42q0 -10 18 -10h9v-14h-105v14h9q17 0 22.5 8.5t13.5 46.5l26 122q5 25 5 28t-3 3q-7 0 -40 -18z" />
    <glyph glyph-name="two.numerator" horiz-adv-x="247" 
d="M127 585h-17q5 37 28 57.5t60 20.5q35 0 57 -19.5t22 -50.5q0 -25 -17 -48t-64 -59l-68 -53q19 2 40 2h54q16 0 23 7h15l-22 -49h-163v20l48 42q68 59 88.5 84t20.5 48q0 22 -13 34.5t-36 12.5q-49 0 -56 -49z" />
    <glyph glyph-name="three.numerator" horiz-adv-x="247" 
d="M116 614l28 45h145l-98 -104q6 1 15 1q24 0 40.5 -19.5t16.5 -48.5q0 -40 -30 -69.5t-70 -29.5t-77 38l12 11q27 -26 55 -26q26 0 45.5 21t19.5 50q0 50 -65 56l78 83h-76q-18 0 -20 -8h-19z" />
    <glyph glyph-name="four.numerator" horiz-adv-x="247" 
d="M286 500l-6 -28h-47l-17 -79h-40l16 79h-104v30l157 163h28l-35 -165h48zM198 500l25 115l-110 -115h85z" />
    <glyph glyph-name="five.numerator" horiz-adv-x="247" 
d="M280 661l-14 -39h-108l-18 -52q21 11 40 11q38 0 62 -22.5t24 -59.5q0 -46 -32 -78t-77 -32q-42 0 -74 36l13 11q29 -26 55 -26q30 0 51 23t21 55q0 28 -17 45t-45 17q-19 0 -51 -13l42 122h96h10q5 0 10 2h12z" />
    <glyph glyph-name="six.numerator" horiz-adv-x="247" 
d="M282 654l-3 -15q-20 6 -35 6q-35 0 -58.5 -23.5t-42.5 -76.5q34 31 66 31q31 0 50.5 -21t19.5 -55q0 -44 -31 -77.5t-73 -33.5q-38 0 -60 25t-22 69q0 73 43 126.5t101 53.5q19 0 45 -9zM139 524q-3 -27 -3 -43q0 -67 49 -67q25 0 41.5 20t16.5 49q0 27 -16 45t-40 18
q-23 0 -48 -22z" />
    <glyph glyph-name="seven.numerator" horiz-adv-x="247" 
d="M115 609l16 50h171q-109 -192 -139 -266h-44l79 141q17 28 23 39q23 38 28 47h-91q-16 0 -19 -1.5t-8 -9.5h-16z" />
    <glyph glyph-name="eight.numerator" horiz-adv-x="247" 
d="M218 537q48 -40 48 -75q0 -32 -26 -52.5t-69 -20.5q-42 0 -65.5 17t-23.5 47q0 60 83 82q-36 33 -36 65q0 29 23.5 46t62.5 17q74 0 74 -55q0 -52 -71 -71zM206 548q46 18 46 55q0 19 -12 30.5t-32 11.5q-18 0 -28.5 -9.5t-10.5 -25.5q0 -25 37 -62zM177 524
q-52 -19 -52 -64q0 -22 16.5 -36t41.5 -14q19 0 32.5 11t13.5 28q0 27 -52 75z" />
    <glyph glyph-name="nine.numerator" horiz-adv-x="247" 
d="M85 410l10 14q22 -15 42 -15q64 0 99 104q-29 -26 -60 -26q-33 0 -53 21t-20 55q0 43 28 71.5t71 28.5q41 0 62.5 -23.5t21.5 -66.5q0 -73 -42 -128.5t-96 -55.5q-32 0 -63 21zM240 535q4 24 4 47q0 65 -45 65q-24 0 -40 -19.5t-16 -48.5q0 -28 15.5 -46t40.5 -18
q21 0 41 20z" />
    <glyph glyph-name="zero.numerator" horiz-adv-x="247" 
d="M213 663q37 0 57.5 -23.5t20.5 -67.5q0 -71 -39 -127t-89 -56q-35 0 -55.5 25t-20.5 69q0 73 37.5 126.5t88.5 53.5zM208 643q-31 0 -54.5 -47t-23.5 -108q0 -74 41 -74q31 0 54 56q22 49 22 102q0 71 -39 71z" />
    <glyph glyph-name="one.denominator" horiz-adv-x="247" 
d="M165 276l-4 -17q-1 -8 -6 -26q-1 -6 -5 -26l-31 -141q-7 -38 -7 -42q0 -10 18 -10h9v-14h-105v14h9q17 0 22.5 8.5t13.5 46.5l26 122l5 27q0 3 -3 3q-4 0 -40 -17l-8 13z" />
    <glyph glyph-name="two.denominator" horiz-adv-x="247" 
d="M44 192h-17q5 36 28 56.5t60 20.5q34 0 56.5 -19.5t22.5 -49.5q0 -26 -17 -48.5t-64 -58.5l-68 -53q19 2 40 2h54q16 0 23 7h15l-22 -49h-163v20l48 42q67 58 88 83t21 48q0 22 -13 34.5t-36 12.5q-48 0 -56 -48z" />
    <glyph glyph-name="three.denominator" horiz-adv-x="247" 
d="M32 221l28 44h145l-98 -103q6 1 15 1q24 0 40.5 -19.5t16.5 -48.5q0 -40 -30 -69.5t-70 -29.5t-77 37l12 12q29 -26 55 -26t45.5 21t19.5 50q0 50 -65 56l78 82h-76q-18 0 -20 -7h-19z" />
    <glyph glyph-name="four.denominator" horiz-adv-x="247" 
d="M203 106l-6 -28h-47l-17 -78h-40l16 78h-104v30l157 163h28l-35 -165h48zM115 106l25 115l-110 -115h85z" />
    <glyph glyph-name="five.denominator" horiz-adv-x="247" 
d="M197 268l-14 -40h-108l-18 -52q21 11 40 11q38 0 62 -22.5t24 -58.5q0 -46 -32 -78t-77 -32q-42 0 -74 36l13 11q29 -26 55 -26q30 0 51 23t21 55q0 28 -17 44.5t-45 16.5q-18 0 -51 -13l42 122h96h10q3 0 10 3h12z" />
    <glyph glyph-name="six.denominator" horiz-adv-x="247" 
d="M198 261l-3 -16q-20 6 -35 6q-35 0 -58.5 -23t-42.5 -76q34 31 66 31q31 0 50.5 -21t19.5 -55q0 -44 -31 -77.5t-73 -33.5q-38 0 -60 25t-22 68q0 73 43 126.5t101 53.5q18 0 45 -8zM55 131q-3 -27 -3 -43q0 -67 49 -67q25 0 41.5 20t16.5 49q0 27 -16 45t-40 18
q-23 0 -48 -22z" />
    <glyph glyph-name="seven.denominator" horiz-adv-x="247" 
d="M31 216l16 49h171q-8 -14 -37 -65q-77 -134 -102 -200h-44l79 141q18 30 23 39q10 16 28 46h-91q-16 0 -19 -1t-8 -9h-16z" />
    <glyph glyph-name="eight.denominator" horiz-adv-x="247" 
d="M134 143q48 -40 48 -74q0 -32 -26 -52.5t-69 -20.5q-42 0 -65.5 16.5t-23.5 47.5q0 60 83 82q-36 33 -36 64q0 29 23.5 46t62.5 17q74 0 74 -55q0 -51 -71 -71zM122 154q46 20 46 55q0 19 -12 30.5t-32 11.5q-18 0 -28.5 -9.5t-10.5 -25.5q0 -15 7.5 -27.5t29.5 -34.5z
M93 130q-52 -19 -52 -63q0 -22 16.5 -36t41.5 -14q19 0 32.5 11t13.5 28q0 27 -52 74z" />
    <glyph glyph-name="nine.denominator" horiz-adv-x="247" 
d="M1 16l10 14q24 -14 42 -14q64 0 99 104q-30 -27 -60 -27q-33 0 -53 21t-20 55q0 43 28 71.5t71 28.5q41 0 62.5 -23.5t21.5 -66.5q0 -72 -42 -127.5t-96 -55.5q-32 0 -63 20zM156 142q4 24 4 47q0 64 -45 64q-24 0 -40 -19.5t-16 -48.5q0 -28 15.5 -46t40.5 -18
q21 0 41 21z" />
    <glyph glyph-name="zero.denominator" horiz-adv-x="247" 
d="M129 269q37 0 57.5 -23.5t20.5 -67.5q0 -70 -39 -126t-89 -56q-35 0 -55.5 25t-20.5 69q0 73 37.5 126t88.5 53zM124 249q-31 0 -54.5 -47t-23.5 -107q0 -74 41 -74q31 0 54 56q22 47 22 101q0 71 -39 71z" />
    <glyph glyph-name="oneone" horiz-adv-x="839" 
d="M160 585l153 85q-1 -11 -22 -100l-44 -207q-11 -60 -11 -62q0 -15 26 -15h14v-19h-153v19h13q25 0 33 12.5t20 68.5l38 179q7 38 7 41q0 5 -4 5q-9 0 -59 -26zM647 680l26 -18l-433 -677l-26 17zM589 318l153 85q0 -4 -22 -100l-44 -207q-11 -60 -11 -62q0 -15 26 -15h14
v-19h-153v19h13q24 0 32.5 12.5t20.5 68.5l38 179q7 34 7 41q0 5 -5 5q-11 -2 -58 -26z" />
    <glyph glyph-name="onefifth" horiz-adv-x="839" 
d="M160 585l153 85q-1 -11 -22 -100l-44 -207q-11 -60 -11 -62q0 -15 26 -15h14v-19h-153v19h13q25 0 33 12.5t20 68.5l38 179q7 38 7 41q0 5 -4 5q-9 0 -59 -26zM647 680l26 -18l-433 -677l-26 17zM790 392l-21 -58h-159l-27 -78q32 17 61 17q56 0 91 -33t35 -86
q0 -67 -47 -113.5t-115 -46.5q-34 0 -56.5 11t-50.5 41l18 16q42 -36 82 -36q44 0 75.5 32.5t31.5 78.5q0 41 -25.5 66t-66.5 25q-30 0 -74 -18l60 178h142h14q7 0 15 4h17z" />
    <glyph glyph-name="twofifth" horiz-adv-x="839" 
d="M136 549h-22q6 53 39.5 82.5t88.5 29.5q51 0 83.5 -28.5t32.5 -72.5q0 -38 -24.5 -70.5t-94.5 -87.5l-101 -79q41 3 60 3h80q18 0 22 1.5t12 9.5h21l-31 -71h-240v29l70 61q100 86 130.5 123t30.5 72q0 31 -20 49.5t-54 18.5q-70 0 -83 -70zM646 680l27 -18l-433 -677
l-27 17zM790 392l-21 -58h-159l-28 -78q32 17 62 17q55 0 90 -33t35 -86q0 -67 -47 -113.5t-115 -46.5q-33 0 -55.5 11t-50.5 41l18 16q40 -36 81 -36q44 0 75.5 33t31.5 79q0 40 -25.5 65t-66.5 25q-29 0 -74 -18l61 178h141h14q7 0 15 4h18z" />
    <glyph glyph-name="threefifth" horiz-adv-x="839" 
d="M117 591l41 64h213l-145 -151q9 1 23 1q35 0 59.5 -29t24.5 -70q0 -58 -44 -101.5t-103 -43.5t-113 54l17 16q42 -38 81 -38q40 0 68.5 31t28.5 74q0 48 -36 68q-20 11 -60 14l116 122h-115q-25 0 -30 -11h-26zM647 680l26 -18l-433 -677l-26 17zM790 392l-21 -58h-159
l-27 -78q32 17 61 17q56 0 91 -33t35 -86q0 -67 -47 -113.5t-115 -46.5q-34 0 -56.5 11t-50.5 41l18 16q42 -36 82 -36q44 0 75.5 32.5t31.5 78.5q0 41 -25.5 66t-66.5 25q-30 0 -75 -18l61 178h141h15q6 0 15 4h17z" />
    <glyph glyph-name="fourfifth" horiz-adv-x="839" 
d="M369 423l-9 -41h-69l-25 -115h-58l24 115h-154v44l231 238h40l-51 -241h71zM241 423l36 169l-163 -169h127zM646 680l27 -18l-433 -677l-27 17zM790 392l-21 -58h-159l-28 -78q32 17 62 17q55 0 90 -33t35 -86q0 -67 -47 -113.5t-115 -46.5q-33 0 -55.5 11t-50.5 41
l18 16q42 -36 81 -36q44 0 75.5 32.5t31.5 78.5q0 41 -25.5 66t-66.5 25q-29 0 -74 -18l61 178h141h14q7 0 15 4h18z" />
    <glyph glyph-name="onesixth" horiz-adv-x="839" 
d="M160 585l153 85q-1 -11 -22 -100l-44 -207q-11 -60 -11 -62q0 -15 26 -15h14v-19h-153v19h13q25 0 33 12.5t20 68.5l38 179q7 38 7 41q0 5 -4 5q-9 0 -59 -26zM647 680l26 -18l-433 -677l-26 17zM795 382l-4 -22q-33 8 -51 8q-46 0 -82 -30q-38 -31 -68 -117
q28 26 49.5 36t48.5 10q46 0 74.5 -30.5t28.5 -79.5q0 -65 -45.5 -114t-106.5 -49q-57 0 -89.5 36.5t-32.5 100.5q0 56 21.5 110.5t58.5 93.5q56 59 132 59q27 0 66 -12zM584 192q-5 -32 -5 -63q0 -99 73 -99q37 0 62 29t25 72q0 40 -24 66.5t-59 26.5q-34 0 -72 -32z" />
    <glyph glyph-name="fivesixth" horiz-adv-x="839" 
d="M361 659l-21 -58h-159l-27 -78q32 17 61 17q56 0 91 -33t35 -86q0 -67 -47 -113.5t-115 -46.5q-34 0 -56.5 11t-50.5 40l18 16q42 -35 82 -35q44 0 75.5 32.5t31.5 78.5q0 41 -25.5 66t-66.5 25q-30 0 -75 -18l61 178h141h15q6 0 14 4h18zM646 680l27 -18l-433 -677
l-26 17zM795 382l-5 -22q-33 8 -50 8q-47 0 -82 -30q-22 -18 -37 -43t-32 -74q29 26 50 36t48 10q46 0 74.5 -30.5t28.5 -79.5q0 -65 -45.5 -114t-106.5 -49q-56 0 -88.5 36.5t-32.5 100.5q0 56 21.5 110.5t58.5 93.5q56 59 131 59q28 0 67 -12zM584 192q-5 -34 -5 -64
q0 -98 73 -98q37 0 61.5 29t24.5 72q0 40 -24 66.5t-59 26.5q-33 0 -71 -32z" />
    <glyph glyph-name="Dotaccent" 
d="M380 854q17 0 28.5 -13t11.5 -32q0 -23 -15.5 -40t-36.5 -17q-17 0 -28.5 13t-11.5 32q0 23 15.5 40t36.5 17z" />
    <glyph glyph-name="Ring" 
d="M374 895q37 0 62.5 -26t25.5 -63q0 -36 -26 -61.5t-62 -25.5q-37 0 -62.5 25.5t-25.5 62.5t25.5 62.5t62.5 25.5zM374 857q-21 0 -35.5 -15t-14.5 -35q0 -21 14.5 -35.5t35.5 -14.5q20 0 35 15t15 35q0 21 -14.5 35.5t-35.5 14.5z" />
    <glyph glyph-name="Circumflex" 
d="M497 742h-36l-77 87l-126 -87h-38l147 143h44z" />
    <glyph glyph-name="Breve" 
d="M496 878h24q-10 -34 -47 -72q-51 -56 -116 -56q-97 0 -97 128h23q14 -73 95 -73q32 0 58.5 16.5t59.5 56.5z" />
    <glyph glyph-name="Tilde" 
d="M497 850h23q-10 -41 -32 -63.5t-52 -22.5q-20 0 -52 12l-40 16q-29 11 -41 11q-16 0 -26 -8t-24 -31h-25q10 41 33 63.5t54 22.5q21 0 47 -11l41 -17q30 -10 42 -10q30 0 52 38z" />
    <glyph glyph-name="Cedilla" 
d="M222 0h32l-34 -57q11 2 23 2q29 0 47 -17t18 -44q0 -34 -28.5 -55t-75.5 -21q-42 0 -86 20l11 27q34 -15 64 -15q53 0 53 38q0 16 -11 25.5t-30 9.5q-7 0 -22 -3l-10 8z" />
    <glyph glyph-name="Ogonek" 
d="M403 0h51q-78 -54 -78 -91q0 -14 12 -23t32 -9t43 6l-16 -39q-34 -11 -58 -11q-34 0 -54.5 16.5t-20.5 43.5q0 54 89 107z" />
    <glyph glyph-name="commaaccent.sc" 
d="M118 -230l-10 18q76 29 83 97q-17 -22 -37 -22q-30 0 -30 30q0 22 17 38t40 16q42 0 42 -50q0 -43 -27.5 -76.5t-77.5 -50.5z" />
    <glyph glyph-name="Comma.high" 
d="M421 497l-10 18q76 29 83 97q-16 -22 -37 -22q-30 0 -30 30q0 22 17 38t40 16q42 0 42 -50q0 -43 -27.5 -76.5t-77.5 -50.5z" />
    <glyph glyph-name="Dieresis.alt" 
d="M301 854q17 0 28.5 -13t11.5 -32q0 -23 -15.5 -40t-36.5 -17q-17 0 -28.5 13t-11.5 32q0 23 15.5 40t36.5 17zM452 854q17 0 28.5 -13t11.5 -32q0 -23 -15.5 -40t-36.5 -17q-17 0 -28.5 13t-11.5 32q0 23 15.5 40t36.5 17z" />
    <glyph glyph-name="comma.high" 
d="M434 530l-10 18q76 29 83 97q-17 -22 -37 -22q-30 0 -30 30q0 22 17 38t40 16q42 0 42 -50q0 -43 -27.5 -76.5t-77.5 -50.5z" />
    <glyph glyph-name="dieresis.alt" 
d="M266 655q17 0 28.5 -13t11.5 -32q0 -23 -15.5 -40t-36.5 -17q-17 0 -28.5 13t-11.5 32q0 23 15.5 40t36.5 17zM409 655q17 0 28.5 -13t11.5 -32q0 -23 -15.5 -40t-36.5 -17q-17 0 -28.5 13t-11.5 32q0 23 15.5 40t36.5 17z" />
    <glyph glyph-name="commareversed" 
d="M430 707l10 -19q-41 -15 -60.5 -38t-22.5 -59q16 23 36 23q30 0 30 -30q0 -22 -17 -38t-40 -16q-41 0 -41 50q0 43 27.5 76.5t77.5 50.5z" />
    <glyph glyph-name="zerozero.afrac" horiz-adv-x="247" 
d="M268 347v-27h-241v27h241zM213 663q37 0 57.5 -23.5t20.5 -67.5q0 -71 -39 -127t-89 -56q-35 0 -55.5 25t-20.5 69q0 73 37.5 126.5t88.5 53.5zM208 643q-31 0 -54.5 -47t-23.5 -108q0 -74 41 -74q31 0 54 56q22 49 22 102q0 71 -39 71zM129 269q37 0 57.5 -23.5
t20.5 -67.5q0 -70 -39 -126t-89 -56q-35 0 -55.5 25t-20.5 69q0 73 37.5 126t88.5 53zM124 249q-31 0 -54.5 -47t-23.5 -107q0 -74 41 -74q31 0 54 56q22 47 22 101q0 71 -39 71z" />
    </font>
</defs>
</svg>
